<?xml version="1.0" encoding="utf-8"?>
<svg xmlns="http://www.w3.org/2000/svg" xmlns:xlink="http://www.w3.org/1999/xlink" width="576" height="384" viewBox="0 0 2304 1536">
<defs>
  <clipPath id="clip8700">
    <rect x="0" y="0" width="2000" height="2000"/>
  </clipPath>
</defs>
<defs>
  <clipPath id="clip8701">
    <rect x="0" y="0" width="2304" height="1536"/>
  </clipPath>
</defs>
<polygon clip-path="url(#clip8701)" points="
0,1536 2304,1536 2304,0 0,0 
  " fill="#ffffff" fill-rule="evenodd" fill-opacity="1"/>
<defs>
  <clipPath id="clip8702">
    <rect x="460" y="0" width="1614" height="1536"/>
  </clipPath>
</defs>
<polygon clip-path="url(#clip8701)" points="
224.386,1376.48 2225.26,1376.48 2225.26,47.2441 224.386,47.2441 
  " fill="#ffffff" fill-rule="evenodd" fill-opacity="1"/>
<defs>
  <clipPath id="clip8703">
    <rect x="224" y="47" width="2002" height="1330"/>
  </clipPath>
</defs>
<polyline clip-path="url(#clip8703)" style="stroke:#000000; stroke-width:2; stroke-opacity:0.1; fill:none" points="
  853.02,1376.48 853.02,47.2441 
  "/>
<polyline clip-path="url(#clip8703)" style="stroke:#000000; stroke-width:2; stroke-opacity:0.1; fill:none" points="
  1425.02,1376.48 1425.02,47.2441 
  "/>
<polyline clip-path="url(#clip8703)" style="stroke:#000000; stroke-width:2; stroke-opacity:0.1; fill:none" points="
  1997.03,1376.48 1997.03,47.2441 
  "/>
<polyline clip-path="url(#clip8703)" style="stroke:#000000; stroke-width:2; stroke-opacity:0.1; fill:none" points="
  224.386,1110.63 2225.26,1110.63 
  "/>
<polyline clip-path="url(#clip8703)" style="stroke:#000000; stroke-width:2; stroke-opacity:0.1; fill:none" points="
  224.386,844.787 2225.26,844.787 
  "/>
<polyline clip-path="url(#clip8703)" style="stroke:#000000; stroke-width:2; stroke-opacity:0.1; fill:none" points="
  224.386,578.939 2225.26,578.939 
  "/>
<polyline clip-path="url(#clip8703)" style="stroke:#000000; stroke-width:2; stroke-opacity:0.1; fill:none" points="
  224.386,313.092 2225.26,313.092 
  "/>
<polyline clip-path="url(#clip8703)" style="stroke:#000000; stroke-width:2; stroke-opacity:0.1; fill:none" points="
  224.386,47.2441 2225.26,47.2441 
  "/>
<polyline clip-path="url(#clip8701)" style="stroke:#000000; stroke-width:4; stroke-opacity:1; fill:none" points="
  224.386,1376.48 2225.26,1376.48 
  "/>
<polyline clip-path="url(#clip8701)" style="stroke:#000000; stroke-width:4; stroke-opacity:1; fill:none" points="
  281.015,1376.48 281.015,47.2441 
  "/>
<polyline clip-path="url(#clip8701)" style="stroke:#000000; stroke-width:4; stroke-opacity:1; fill:none" points="
  853.02,1376.48 853.02,1356.54 
  "/>
<polyline clip-path="url(#clip8701)" style="stroke:#000000; stroke-width:4; stroke-opacity:1; fill:none" points="
  1425.02,1376.48 1425.02,1356.54 
  "/>
<polyline clip-path="url(#clip8701)" style="stroke:#000000; stroke-width:4; stroke-opacity:1; fill:none" points="
  1997.03,1376.48 1997.03,1356.54 
  "/>
<polyline clip-path="url(#clip8701)" style="stroke:#000000; stroke-width:4; stroke-opacity:1; fill:none" points="
  281.015,1110.63 311.028,1110.63 
  "/>
<polyline clip-path="url(#clip8701)" style="stroke:#000000; stroke-width:4; stroke-opacity:1; fill:none" points="
  281.015,844.787 311.028,844.787 
  "/>
<polyline clip-path="url(#clip8701)" style="stroke:#000000; stroke-width:4; stroke-opacity:1; fill:none" points="
  281.015,578.939 311.028,578.939 
  "/>
<polyline clip-path="url(#clip8701)" style="stroke:#000000; stroke-width:4; stroke-opacity:1; fill:none" points="
  281.015,313.092 311.028,313.092 
  "/>
<polyline clip-path="url(#clip8701)" style="stroke:#000000; stroke-width:4; stroke-opacity:1; fill:none" points="
  281.015,47.2441 311.028,47.2441 
  "/>
<g clip-path="url(#clip8701)">
<text style="fill:#000000; fill-opacity:1; font-family:Arial,Helvetica Neue,Helvetica,sans-serif; font-size:48px; text-anchor:middle;" transform="rotate(0, 853.02, 1430)" x="853.02" y="1430">10</text>
</g>
<g clip-path="url(#clip8701)">
<text style="fill:#000000; fill-opacity:1; font-family:Arial,Helvetica Neue,Helvetica,sans-serif; font-size:48px; text-anchor:middle;" transform="rotate(0, 1425.02, 1430)" x="1425.02" y="1430">20</text>
</g>
<g clip-path="url(#clip8701)">
<text style="fill:#000000; fill-opacity:1; font-family:Arial,Helvetica Neue,Helvetica,sans-serif; font-size:48px; text-anchor:middle;" transform="rotate(0, 1997.03, 1430)" x="1997.03" y="1430">30</text>
</g>
<g clip-path="url(#clip8701)">
<text style="fill:#000000; fill-opacity:1; font-family:Arial,Helvetica Neue,Helvetica,sans-serif; font-size:48px; text-anchor:end;" transform="rotate(0, 257.975, 1128.13)" x="257.975" y="1128.13">0.2</text>
</g>
<g clip-path="url(#clip8701)">
<text style="fill:#000000; fill-opacity:1; font-family:Arial,Helvetica Neue,Helvetica,sans-serif; font-size:48px; text-anchor:end;" transform="rotate(0, 257.975, 862.287)" x="257.975" y="862.287">0.4</text>
</g>
<g clip-path="url(#clip8701)">
<text style="fill:#000000; fill-opacity:1; font-family:Arial,Helvetica Neue,Helvetica,sans-serif; font-size:48px; text-anchor:end;" transform="rotate(0, 257.975, 596.439)" x="257.975" y="596.439">0.6</text>
</g>
<g clip-path="url(#clip8701)">
<text style="fill:#000000; fill-opacity:1; font-family:Arial,Helvetica Neue,Helvetica,sans-serif; font-size:48px; text-anchor:end;" transform="rotate(0, 257.975, 330.592)" x="257.975" y="330.592">0.8</text>
</g>
<g clip-path="url(#clip8701)">
<text style="fill:#000000; fill-opacity:1; font-family:Arial,Helvetica Neue,Helvetica,sans-serif; font-size:48px; text-anchor:end;" transform="rotate(0, 257.975, 64.7441)" x="257.975" y="64.7441">1.0</text>
</g>
<g clip-path="url(#clip8701)">
<text style="fill:#000000; fill-opacity:1; font-family:Arial,Helvetica Neue,Helvetica,sans-serif; font-size:66px; text-anchor:middle;" transform="rotate(0, 1224.82, 1526.4)" x="1224.82" y="1526.4">Step</text>
</g>
<g clip-path="url(#clip8701)">
<text style="fill:#000000; fill-opacity:1; font-family:Arial,Helvetica Neue,Helvetica,sans-serif; font-size:66px; text-anchor:middle;" transform="rotate(-90, 57.6, 711.863)" x="57.6" y="711.863">Maximal fitness</text>
</g>
<polyline clip-path="url(#clip8703)" style="stroke:#800080; stroke-width:8; stroke-opacity:1; fill:none" points="
  338.215,996.7 395.416,901.755 452.616,901.755 509.817,806.809 567.017,711.863 624.218,711.863 681.418,616.918 738.619,616.918 795.819,616.918 853.02,521.972 
  910.22,427.027 967.421,521.972 1024.62,427.027 1081.82,427.027 1139.02,332.081 1196.22,332.081 1253.42,332.081 1310.62,332.081 1367.82,237.135 1425.02,237.135 
  1482.23,237.135 1539.43,237.135 1596.63,237.135 1653.83,237.135 1711.03,237.135 1768.23,142.19 1825.43,142.19 1882.63,142.19 1939.83,142.19 1997.03,142.19 
  2054.23,142.19 2111.43,142.19 2168.63,47.2441 
  "/>
</svg>
