<?xml version="1.0" encoding="utf-8"?>
<svg xmlns="http://www.w3.org/2000/svg" xmlns:xlink="http://www.w3.org/1999/xlink" width="576" height="384" viewBox="0 0 2304 1536">
<defs>
  <clipPath id="clip6700">
    <rect x="0" y="0" width="2000" height="2000"/>
  </clipPath>
</defs>
<defs>
  <clipPath id="clip6701">
    <rect x="0" y="0" width="2304" height="1536"/>
  </clipPath>
</defs>
<polygon clip-path="url(#clip6701)" points="
0,1536 2304,1536 2304,0 0,0 
  " fill="#ffffff" fill-rule="evenodd" fill-opacity="1"/>
<defs>
  <clipPath id="clip6702">
    <rect x="460" y="0" width="1614" height="1536"/>
  </clipPath>
</defs>
<polygon clip-path="url(#clip6701)" points="
224.386,1376.48 2225.26,1376.48 2225.26,47.2441 224.386,47.2441 
  " fill="#ffffff" fill-rule="evenodd" fill-opacity="1"/>
<defs>
  <clipPath id="clip6703">
    <rect x="224" y="47" width="2002" height="1330"/>
  </clipPath>
</defs>
<polyline clip-path="url(#clip6703)" style="stroke:#000000; stroke-width:2; stroke-opacity:0.1; fill:none" points="
  658.538,1376.48 658.538,47.2441 
  "/>
<polyline clip-path="url(#clip6703)" style="stroke:#000000; stroke-width:2; stroke-opacity:0.1; fill:none" points="
  1036.06,1376.48 1036.06,47.2441 
  "/>
<polyline clip-path="url(#clip6703)" style="stroke:#000000; stroke-width:2; stroke-opacity:0.1; fill:none" points="
  1413.58,1376.48 1413.58,47.2441 
  "/>
<polyline clip-path="url(#clip6703)" style="stroke:#000000; stroke-width:2; stroke-opacity:0.1; fill:none" points="
  1791.11,1376.48 1791.11,47.2441 
  "/>
<polyline clip-path="url(#clip6703)" style="stroke:#000000; stroke-width:2; stroke-opacity:0.1; fill:none" points="
  2168.63,1376.48 2168.63,47.2441 
  "/>
<polyline clip-path="url(#clip6703)" style="stroke:#000000; stroke-width:2; stroke-opacity:0.1; fill:none" points="
  224.386,1110.63 2225.26,1110.63 
  "/>
<polyline clip-path="url(#clip6703)" style="stroke:#000000; stroke-width:2; stroke-opacity:0.1; fill:none" points="
  224.386,844.787 2225.26,844.787 
  "/>
<polyline clip-path="url(#clip6703)" style="stroke:#000000; stroke-width:2; stroke-opacity:0.1; fill:none" points="
  224.386,578.939 2225.26,578.939 
  "/>
<polyline clip-path="url(#clip6703)" style="stroke:#000000; stroke-width:2; stroke-opacity:0.1; fill:none" points="
  224.386,313.092 2225.26,313.092 
  "/>
<polyline clip-path="url(#clip6703)" style="stroke:#000000; stroke-width:2; stroke-opacity:0.1; fill:none" points="
  224.386,47.2441 2225.26,47.2441 
  "/>
<polyline clip-path="url(#clip6701)" style="stroke:#000000; stroke-width:4; stroke-opacity:1; fill:none" points="
  224.386,1376.48 2225.26,1376.48 
  "/>
<polyline clip-path="url(#clip6701)" style="stroke:#000000; stroke-width:4; stroke-opacity:1; fill:none" points="
  281.015,1376.48 281.015,47.2441 
  "/>
<polyline clip-path="url(#clip6701)" style="stroke:#000000; stroke-width:4; stroke-opacity:1; fill:none" points="
  658.538,1376.48 658.538,1356.54 
  "/>
<polyline clip-path="url(#clip6701)" style="stroke:#000000; stroke-width:4; stroke-opacity:1; fill:none" points="
  1036.06,1376.48 1036.06,1356.54 
  "/>
<polyline clip-path="url(#clip6701)" style="stroke:#000000; stroke-width:4; stroke-opacity:1; fill:none" points="
  1413.58,1376.48 1413.58,1356.54 
  "/>
<polyline clip-path="url(#clip6701)" style="stroke:#000000; stroke-width:4; stroke-opacity:1; fill:none" points="
  1791.11,1376.48 1791.11,1356.54 
  "/>
<polyline clip-path="url(#clip6701)" style="stroke:#000000; stroke-width:4; stroke-opacity:1; fill:none" points="
  2168.63,1376.48 2168.63,1356.54 
  "/>
<polyline clip-path="url(#clip6701)" style="stroke:#000000; stroke-width:4; stroke-opacity:1; fill:none" points="
  281.015,1110.63 311.028,1110.63 
  "/>
<polyline clip-path="url(#clip6701)" style="stroke:#000000; stroke-width:4; stroke-opacity:1; fill:none" points="
  281.015,844.787 311.028,844.787 
  "/>
<polyline clip-path="url(#clip6701)" style="stroke:#000000; stroke-width:4; stroke-opacity:1; fill:none" points="
  281.015,578.939 311.028,578.939 
  "/>
<polyline clip-path="url(#clip6701)" style="stroke:#000000; stroke-width:4; stroke-opacity:1; fill:none" points="
  281.015,313.092 311.028,313.092 
  "/>
<polyline clip-path="url(#clip6701)" style="stroke:#000000; stroke-width:4; stroke-opacity:1; fill:none" points="
  281.015,47.2441 311.028,47.2441 
  "/>
<g clip-path="url(#clip6701)">
<text style="fill:#000000; fill-opacity:1; font-family:Arial,Helvetica Neue,Helvetica,sans-serif; font-size:48px; text-anchor:middle;" transform="rotate(0, 658.538, 1430)" x="658.538" y="1430">100</text>
</g>
<g clip-path="url(#clip6701)">
<text style="fill:#000000; fill-opacity:1; font-family:Arial,Helvetica Neue,Helvetica,sans-serif; font-size:48px; text-anchor:middle;" transform="rotate(0, 1036.06, 1430)" x="1036.06" y="1430">200</text>
</g>
<g clip-path="url(#clip6701)">
<text style="fill:#000000; fill-opacity:1; font-family:Arial,Helvetica Neue,Helvetica,sans-serif; font-size:48px; text-anchor:middle;" transform="rotate(0, 1413.58, 1430)" x="1413.58" y="1430">300</text>
</g>
<g clip-path="url(#clip6701)">
<text style="fill:#000000; fill-opacity:1; font-family:Arial,Helvetica Neue,Helvetica,sans-serif; font-size:48px; text-anchor:middle;" transform="rotate(0, 1791.11, 1430)" x="1791.11" y="1430">400</text>
</g>
<g clip-path="url(#clip6701)">
<text style="fill:#000000; fill-opacity:1; font-family:Arial,Helvetica Neue,Helvetica,sans-serif; font-size:48px; text-anchor:middle;" transform="rotate(0, 2168.63, 1430)" x="2168.63" y="1430">500</text>
</g>
<g clip-path="url(#clip6701)">
<text style="fill:#000000; fill-opacity:1; font-family:Arial,Helvetica Neue,Helvetica,sans-serif; font-size:48px; text-anchor:end;" transform="rotate(0, 257.975, 1128.13)" x="257.975" y="1128.13">0.2</text>
</g>
<g clip-path="url(#clip6701)">
<text style="fill:#000000; fill-opacity:1; font-family:Arial,Helvetica Neue,Helvetica,sans-serif; font-size:48px; text-anchor:end;" transform="rotate(0, 257.975, 862.287)" x="257.975" y="862.287">0.4</text>
</g>
<g clip-path="url(#clip6701)">
<text style="fill:#000000; fill-opacity:1; font-family:Arial,Helvetica Neue,Helvetica,sans-serif; font-size:48px; text-anchor:end;" transform="rotate(0, 257.975, 596.439)" x="257.975" y="596.439">0.6</text>
</g>
<g clip-path="url(#clip6701)">
<text style="fill:#000000; fill-opacity:1; font-family:Arial,Helvetica Neue,Helvetica,sans-serif; font-size:48px; text-anchor:end;" transform="rotate(0, 257.975, 330.592)" x="257.975" y="330.592">0.8</text>
</g>
<g clip-path="url(#clip6701)">
<text style="fill:#000000; fill-opacity:1; font-family:Arial,Helvetica Neue,Helvetica,sans-serif; font-size:48px; text-anchor:end;" transform="rotate(0, 257.975, 64.7441)" x="257.975" y="64.7441">1.0</text>
</g>
<g clip-path="url(#clip6701)">
<text style="fill:#000000; fill-opacity:1; font-family:Arial,Helvetica Neue,Helvetica,sans-serif; font-size:66px; text-anchor:middle;" transform="rotate(0, 1224.82, 1526.4)" x="1224.82" y="1526.4">Step</text>
</g>
<g clip-path="url(#clip6701)">
<text style="fill:#000000; fill-opacity:1; font-family:Arial,Helvetica Neue,Helvetica,sans-serif; font-size:66px; text-anchor:middle;" transform="rotate(-90, 57.6, 711.863)" x="57.6" y="711.863">Maximal fitness</text>
</g>
<polyline clip-path="url(#clip6703)" style="stroke:#800080; stroke-width:8; stroke-opacity:1; fill:none" points="
  284.79,996.7 288.565,996.7 292.34,901.755 296.116,901.755 299.891,806.809 303.666,806.809 307.441,711.863 311.217,711.863 314.992,616.918 318.767,521.972 
  322.542,521.972 326.317,521.972 330.093,427.027 333.868,427.027 337.643,332.081 341.418,332.081 345.194,332.081 348.969,332.081 352.744,332.081 356.519,237.135 
  360.295,237.135 364.07,237.135 367.845,237.135 371.62,237.135 375.395,237.135 379.171,237.135 382.946,237.135 386.721,237.135 390.496,237.135 394.272,237.135 
  398.047,237.135 401.822,237.135 405.597,237.135 409.373,142.19 413.148,142.19 416.923,142.19 420.698,142.19 424.474,142.19 428.249,142.19 432.024,142.19 
  435.799,142.19 439.574,142.19 443.35,142.19 447.125,142.19 450.9,142.19 454.675,142.19 458.451,142.19 462.226,47.2441 466.001,142.19 469.776,142.19 
  473.552,142.19 477.327,142.19 481.102,142.19 484.877,142.19 488.652,142.19 492.428,142.19 496.203,142.19 499.978,142.19 503.753,142.19 507.529,142.19 
  511.304,142.19 515.079,142.19 518.854,142.19 522.63,47.2441 526.405,47.2441 530.18,47.2441 533.955,47.2441 537.731,142.19 541.506,142.19 545.281,142.19 
  549.056,142.19 552.831,142.19 556.607,142.19 560.382,142.19 564.157,142.19 567.932,142.19 571.708,142.19 575.483,142.19 579.258,142.19 583.033,142.19 
  586.809,142.19 590.584,142.19 594.359,47.2441 598.134,47.2441 601.91,47.2441 605.685,47.2441 609.46,47.2441 613.235,47.2441 617.01,47.2441 620.786,47.2441 
  624.561,47.2441 628.336,47.2441 632.111,47.2441 635.887,47.2441 639.662,47.2441 643.437,47.2441 647.212,47.2441 650.988,47.2441 654.763,47.2441 658.538,47.2441 
  662.313,47.2441 666.088,47.2441 669.864,47.2441 673.639,47.2441 677.414,47.2441 681.189,47.2441 684.965,47.2441 688.74,47.2441 692.515,47.2441 696.29,47.2441 
  700.066,47.2441 703.841,47.2441 707.616,47.2441 711.391,47.2441 715.167,47.2441 718.942,47.2441 722.717,47.2441 726.492,47.2441 730.267,47.2441 734.043,47.2441 
  737.818,47.2441 741.593,47.2441 745.368,47.2441 749.144,47.2441 752.919,47.2441 756.694,47.2441 760.469,47.2441 764.245,47.2441 768.02,47.2441 771.795,47.2441 
  775.57,47.2441 779.345,47.2441 783.121,47.2441 786.896,47.2441 790.671,47.2441 794.446,47.2441 798.222,47.2441 801.997,47.2441 805.772,47.2441 809.547,47.2441 
  813.323,47.2441 817.098,47.2441 820.873,47.2441 824.648,47.2441 828.424,47.2441 832.199,47.2441 835.974,47.2441 839.749,47.2441 843.524,47.2441 847.3,47.2441 
  851.075,47.2441 854.85,47.2441 858.625,47.2441 862.401,47.2441 866.176,47.2441 869.951,47.2441 873.726,47.2441 877.502,47.2441 881.277,47.2441 885.052,47.2441 
  888.827,47.2441 892.602,47.2441 896.378,47.2441 900.153,47.2441 903.928,47.2441 907.703,47.2441 911.479,47.2441 915.254,47.2441 919.029,47.2441 922.804,47.2441 
  926.58,47.2441 930.355,47.2441 934.13,47.2441 937.905,47.2441 941.681,47.2441 945.456,47.2441 949.231,47.2441 953.006,47.2441 956.781,47.2441 960.557,47.2441 
  964.332,47.2441 968.107,47.2441 971.882,47.2441 975.658,47.2441 979.433,47.2441 983.208,47.2441 986.983,47.2441 990.759,47.2441 994.534,47.2441 998.309,47.2441 
  1002.08,47.2441 1005.86,47.2441 1009.63,47.2441 1013.41,47.2441 1017.19,47.2441 1020.96,47.2441 1024.74,47.2441 1028.51,47.2441 1032.29,47.2441 1036.06,47.2441 
  1039.84,47.2441 1043.61,47.2441 1047.39,47.2441 1051.16,47.2441 1054.94,47.2441 1058.71,47.2441 1062.49,47.2441 1066.26,47.2441 1070.04,47.2441 1073.81,47.2441 
  1077.59,47.2441 1081.36,47.2441 1085.14,47.2441 1088.91,47.2441 1092.69,47.2441 1096.47,47.2441 1100.24,47.2441 1104.02,47.2441 1107.79,47.2441 1111.57,47.2441 
  1115.34,47.2441 1119.12,47.2441 1122.89,47.2441 1126.67,47.2441 1130.44,47.2441 1134.22,47.2441 1137.99,47.2441 1141.77,47.2441 1145.54,47.2441 1149.32,47.2441 
  1153.09,47.2441 1156.87,47.2441 1160.64,47.2441 1164.42,47.2441 1168.19,47.2441 1171.97,47.2441 1175.74,47.2441 1179.52,47.2441 1183.3,47.2441 1187.07,47.2441 
  1190.85,47.2441 1194.62,47.2441 1198.4,47.2441 1202.17,47.2441 1205.95,47.2441 1209.72,47.2441 1213.5,47.2441 1217.27,47.2441 1221.05,47.2441 1224.82,47.2441 
  1228.6,47.2441 1232.37,47.2441 1236.15,47.2441 1239.92,47.2441 1243.7,47.2441 1247.47,47.2441 1251.25,47.2441 1255.02,47.2441 1258.8,47.2441 1262.58,47.2441 
  1266.35,47.2441 1270.13,47.2441 1273.9,47.2441 1277.68,47.2441 1281.45,47.2441 1285.23,47.2441 1289,47.2441 1292.78,47.2441 1296.55,47.2441 1300.33,47.2441 
  1304.1,47.2441 1307.88,47.2441 1311.65,47.2441 1315.43,47.2441 1319.2,47.2441 1322.98,47.2441 1326.75,47.2441 1330.53,47.2441 1334.3,47.2441 1338.08,47.2441 
  1341.86,47.2441 1345.63,47.2441 1349.41,47.2441 1353.18,47.2441 1356.96,47.2441 1360.73,47.2441 1364.51,47.2441 1368.28,47.2441 1372.06,47.2441 1375.83,47.2441 
  1379.61,47.2441 1383.38,47.2441 1387.16,47.2441 1390.93,47.2441 1394.71,47.2441 1398.48,47.2441 1402.26,47.2441 1406.03,47.2441 1409.81,47.2441 1413.58,47.2441 
  1417.36,47.2441 1421.14,47.2441 1424.91,47.2441 1428.69,47.2441 1432.46,47.2441 1436.24,47.2441 1440.01,47.2441 1443.79,47.2441 1447.56,47.2441 1451.34,47.2441 
  1455.11,47.2441 1458.89,47.2441 1462.66,47.2441 1466.44,47.2441 1470.21,47.2441 1473.99,47.2441 1477.76,47.2441 1481.54,47.2441 1485.31,47.2441 1489.09,47.2441 
  1492.86,47.2441 1496.64,47.2441 1500.42,47.2441 1504.19,47.2441 1507.97,47.2441 1511.74,47.2441 1515.52,47.2441 1519.29,47.2441 1523.07,47.2441 1526.84,47.2441 
  1530.62,47.2441 1534.39,47.2441 1538.17,47.2441 1541.94,47.2441 1545.72,47.2441 1549.49,47.2441 1553.27,47.2441 1557.04,47.2441 1560.82,47.2441 1564.59,47.2441 
  1568.37,47.2441 1572.14,47.2441 1575.92,47.2441 1579.69,47.2441 1583.47,47.2441 1587.25,47.2441 1591.02,47.2441 1594.8,47.2441 1598.57,47.2441 1602.35,47.2441 
  1606.12,47.2441 1609.9,47.2441 1613.67,47.2441 1617.45,47.2441 1621.22,47.2441 1625,47.2441 1628.77,47.2441 1632.55,47.2441 1636.32,47.2441 1640.1,47.2441 
  1643.87,47.2441 1647.65,47.2441 1651.42,47.2441 1655.2,47.2441 1658.97,47.2441 1662.75,47.2441 1666.53,47.2441 1670.3,47.2441 1674.08,47.2441 1677.85,47.2441 
  1681.63,47.2441 1685.4,47.2441 1689.18,47.2441 1692.95,47.2441 1696.73,47.2441 1700.5,47.2441 1704.28,47.2441 1708.05,47.2441 1711.83,47.2441 1715.6,47.2441 
  1719.38,47.2441 1723.15,47.2441 1726.93,47.2441 1730.7,47.2441 1734.48,47.2441 1738.25,47.2441 1742.03,47.2441 1745.81,47.2441 1749.58,47.2441 1753.36,47.2441 
  1757.13,47.2441 1760.91,47.2441 1764.68,47.2441 1768.46,47.2441 1772.23,47.2441 1776.01,47.2441 1779.78,47.2441 1783.56,47.2441 1787.33,47.2441 1791.11,47.2441 
  1794.88,47.2441 1798.66,47.2441 1802.43,47.2441 1806.21,47.2441 1809.98,47.2441 1813.76,47.2441 1817.53,47.2441 1821.31,47.2441 1825.09,47.2441 1828.86,47.2441 
  1832.64,47.2441 1836.41,47.2441 1840.19,47.2441 1843.96,47.2441 1847.74,47.2441 1851.51,47.2441 1855.29,47.2441 1859.06,47.2441 1862.84,47.2441 1866.61,47.2441 
  1870.39,47.2441 1874.16,47.2441 1877.94,47.2441 1881.71,47.2441 1885.49,47.2441 1889.26,47.2441 1893.04,47.2441 1896.81,47.2441 1900.59,47.2441 1904.37,47.2441 
  1908.14,47.2441 1911.92,47.2441 1915.69,47.2441 1919.47,47.2441 1923.24,47.2441 1927.02,47.2441 1930.79,47.2441 1934.57,47.2441 1938.34,47.2441 1942.12,47.2441 
  1945.89,47.2441 1949.67,47.2441 1953.44,47.2441 1957.22,47.2441 1960.99,47.2441 1964.77,47.2441 1968.54,47.2441 1972.32,47.2441 1976.09,47.2441 1979.87,47.2441 
  1983.64,47.2441 1987.42,47.2441 1991.2,47.2441 1994.97,47.2441 1998.75,47.2441 2002.52,47.2441 2006.3,47.2441 2010.07,47.2441 2013.85,47.2441 2017.62,47.2441 
  2021.4,47.2441 2025.17,47.2441 2028.95,47.2441 2032.72,47.2441 2036.5,47.2441 2040.27,47.2441 2044.05,47.2441 2047.82,47.2441 2051.6,47.2441 2055.37,47.2441 
  2059.15,47.2441 2062.92,47.2441 2066.7,47.2441 2070.48,47.2441 2074.25,47.2441 2078.03,47.2441 2081.8,47.2441 2085.58,47.2441 2089.35,47.2441 2093.13,47.2441 
  2096.9,47.2441 2100.68,47.2441 2104.45,47.2441 2108.23,47.2441 2112,47.2441 2115.78,47.2441 2119.55,47.2441 2123.33,47.2441 2127.1,47.2441 2130.88,47.2441 
  2134.65,47.2441 2138.43,47.2441 2142.2,47.2441 2145.98,47.2441 2149.76,47.2441 2153.53,47.2441 2157.31,47.2441 2161.08,47.2441 2164.86,47.2441 2168.63,47.2441 
  
  "/>
</svg>
