<?xml version="1.0" encoding="utf-8"?>
<svg xmlns="http://www.w3.org/2000/svg" xmlns:xlink="http://www.w3.org/1999/xlink" width="576" height="384" viewBox="0 0 2304 1536">
<defs>
  <clipPath id="clip1600">
    <rect x="0" y="0" width="2000" height="2000"/>
  </clipPath>
</defs>
<defs>
  <clipPath id="clip1601">
    <rect x="0" y="0" width="2304" height="1536"/>
  </clipPath>
</defs>
<polygon clip-path="url(#clip1601)" points="
0,1536 2304,1536 2304,0 0,0 
  " fill="#ffffff" fill-rule="evenodd" fill-opacity="1"/>
<defs>
  <clipPath id="clip1602">
    <rect x="460" y="0" width="1614" height="1536"/>
  </clipPath>
</defs>
<polygon clip-path="url(#clip1601)" points="
224.386,1376.48 2225.26,1376.48 2225.26,47.2441 224.386,47.2441 
  " fill="#ffffff" fill-rule="evenodd" fill-opacity="1"/>
<defs>
  <clipPath id="clip1603">
    <rect x="224" y="47" width="2002" height="1330"/>
  </clipPath>
</defs>
<polyline clip-path="url(#clip1603)" style="stroke:#000000; stroke-width:2; stroke-opacity:0.1; fill:none" points="
  637.169,1376.48 637.169,47.2441 
  "/>
<polyline clip-path="url(#clip1603)" style="stroke:#000000; stroke-width:2; stroke-opacity:0.1; fill:none" points="
  993.323,1376.48 993.323,47.2441 
  "/>
<polyline clip-path="url(#clip1603)" style="stroke:#000000; stroke-width:2; stroke-opacity:0.1; fill:none" points="
  1349.48,1376.48 1349.48,47.2441 
  "/>
<polyline clip-path="url(#clip1603)" style="stroke:#000000; stroke-width:2; stroke-opacity:0.1; fill:none" points="
  1705.63,1376.48 1705.63,47.2441 
  "/>
<polyline clip-path="url(#clip1603)" style="stroke:#000000; stroke-width:2; stroke-opacity:0.1; fill:none" points="
  2061.79,1376.48 2061.79,47.2441 
  "/>
<polyline clip-path="url(#clip1603)" style="stroke:#000000; stroke-width:2; stroke-opacity:0.1; fill:none" points="
  224.386,1110.63 2225.26,1110.63 
  "/>
<polyline clip-path="url(#clip1603)" style="stroke:#000000; stroke-width:2; stroke-opacity:0.1; fill:none" points="
  224.386,844.787 2225.26,844.787 
  "/>
<polyline clip-path="url(#clip1603)" style="stroke:#000000; stroke-width:2; stroke-opacity:0.1; fill:none" points="
  224.386,578.939 2225.26,578.939 
  "/>
<polyline clip-path="url(#clip1603)" style="stroke:#000000; stroke-width:2; stroke-opacity:0.1; fill:none" points="
  224.386,313.092 2225.26,313.092 
  "/>
<polyline clip-path="url(#clip1603)" style="stroke:#000000; stroke-width:2; stroke-opacity:0.1; fill:none" points="
  224.386,47.2441 2225.26,47.2441 
  "/>
<polyline clip-path="url(#clip1601)" style="stroke:#000000; stroke-width:4; stroke-opacity:1; fill:none" points="
  224.386,1376.48 2225.26,1376.48 
  "/>
<polyline clip-path="url(#clip1601)" style="stroke:#000000; stroke-width:4; stroke-opacity:1; fill:none" points="
  281.015,1376.48 281.015,47.2441 
  "/>
<polyline clip-path="url(#clip1601)" style="stroke:#000000; stroke-width:4; stroke-opacity:1; fill:none" points="
  637.169,1376.48 637.169,1356.54 
  "/>
<polyline clip-path="url(#clip1601)" style="stroke:#000000; stroke-width:4; stroke-opacity:1; fill:none" points="
  993.323,1376.48 993.323,1356.54 
  "/>
<polyline clip-path="url(#clip1601)" style="stroke:#000000; stroke-width:4; stroke-opacity:1; fill:none" points="
  1349.48,1376.48 1349.48,1356.54 
  "/>
<polyline clip-path="url(#clip1601)" style="stroke:#000000; stroke-width:4; stroke-opacity:1; fill:none" points="
  1705.63,1376.48 1705.63,1356.54 
  "/>
<polyline clip-path="url(#clip1601)" style="stroke:#000000; stroke-width:4; stroke-opacity:1; fill:none" points="
  2061.79,1376.48 2061.79,1356.54 
  "/>
<polyline clip-path="url(#clip1601)" style="stroke:#000000; stroke-width:4; stroke-opacity:1; fill:none" points="
  281.015,1110.63 311.028,1110.63 
  "/>
<polyline clip-path="url(#clip1601)" style="stroke:#000000; stroke-width:4; stroke-opacity:1; fill:none" points="
  281.015,844.787 311.028,844.787 
  "/>
<polyline clip-path="url(#clip1601)" style="stroke:#000000; stroke-width:4; stroke-opacity:1; fill:none" points="
  281.015,578.939 311.028,578.939 
  "/>
<polyline clip-path="url(#clip1601)" style="stroke:#000000; stroke-width:4; stroke-opacity:1; fill:none" points="
  281.015,313.092 311.028,313.092 
  "/>
<polyline clip-path="url(#clip1601)" style="stroke:#000000; stroke-width:4; stroke-opacity:1; fill:none" points="
  281.015,47.2441 311.028,47.2441 
  "/>
<g clip-path="url(#clip1601)">
<text style="fill:#000000; fill-opacity:1; font-family:Arial,Helvetica Neue,Helvetica,sans-serif; font-size:48px; text-anchor:middle;" transform="rotate(0, 637.169, 1430)" x="637.169" y="1430">10</text>
</g>
<g clip-path="url(#clip1601)">
<text style="fill:#000000; fill-opacity:1; font-family:Arial,Helvetica Neue,Helvetica,sans-serif; font-size:48px; text-anchor:middle;" transform="rotate(0, 993.323, 1430)" x="993.323" y="1430">20</text>
</g>
<g clip-path="url(#clip1601)">
<text style="fill:#000000; fill-opacity:1; font-family:Arial,Helvetica Neue,Helvetica,sans-serif; font-size:48px; text-anchor:middle;" transform="rotate(0, 1349.48, 1430)" x="1349.48" y="1430">30</text>
</g>
<g clip-path="url(#clip1601)">
<text style="fill:#000000; fill-opacity:1; font-family:Arial,Helvetica Neue,Helvetica,sans-serif; font-size:48px; text-anchor:middle;" transform="rotate(0, 1705.63, 1430)" x="1705.63" y="1430">40</text>
</g>
<g clip-path="url(#clip1601)">
<text style="fill:#000000; fill-opacity:1; font-family:Arial,Helvetica Neue,Helvetica,sans-serif; font-size:48px; text-anchor:middle;" transform="rotate(0, 2061.79, 1430)" x="2061.79" y="1430">50</text>
</g>
<g clip-path="url(#clip1601)">
<text style="fill:#000000; fill-opacity:1; font-family:Arial,Helvetica Neue,Helvetica,sans-serif; font-size:48px; text-anchor:end;" transform="rotate(0, 257.975, 1128.13)" x="257.975" y="1128.13">0.2</text>
</g>
<g clip-path="url(#clip1601)">
<text style="fill:#000000; fill-opacity:1; font-family:Arial,Helvetica Neue,Helvetica,sans-serif; font-size:48px; text-anchor:end;" transform="rotate(0, 257.975, 862.287)" x="257.975" y="862.287">0.4</text>
</g>
<g clip-path="url(#clip1601)">
<text style="fill:#000000; fill-opacity:1; font-family:Arial,Helvetica Neue,Helvetica,sans-serif; font-size:48px; text-anchor:end;" transform="rotate(0, 257.975, 596.439)" x="257.975" y="596.439">0.6</text>
</g>
<g clip-path="url(#clip1601)">
<text style="fill:#000000; fill-opacity:1; font-family:Arial,Helvetica Neue,Helvetica,sans-serif; font-size:48px; text-anchor:end;" transform="rotate(0, 257.975, 330.592)" x="257.975" y="330.592">0.8</text>
</g>
<g clip-path="url(#clip1601)">
<text style="fill:#000000; fill-opacity:1; font-family:Arial,Helvetica Neue,Helvetica,sans-serif; font-size:48px; text-anchor:end;" transform="rotate(0, 257.975, 64.7441)" x="257.975" y="64.7441">1.0</text>
</g>
<g clip-path="url(#clip1601)">
<text style="fill:#000000; fill-opacity:1; font-family:Arial,Helvetica Neue,Helvetica,sans-serif; font-size:66px; text-anchor:middle;" transform="rotate(0, 1224.82, 1526.4)" x="1224.82" y="1526.4">Step</text>
</g>
<g clip-path="url(#clip1601)">
<text style="fill:#000000; fill-opacity:1; font-family:Arial,Helvetica Neue,Helvetica,sans-serif; font-size:66px; text-anchor:middle;" transform="rotate(-90, 57.6, 711.863)" x="57.6" y="711.863">Maximal fitness</text>
</g>
<polyline clip-path="url(#clip1603)" style="stroke:#800080; stroke-width:8; stroke-opacity:1; fill:none" points="
  316.63,996.7 352.245,806.809 387.861,806.809 423.476,711.863 459.092,616.918 494.707,616.918 530.323,616.918 565.938,616.918 601.553,521.972 637.169,521.972 
  672.784,521.972 708.4,521.972 744.015,521.972 779.63,521.972 815.246,427.027 850.861,427.027 886.477,427.027 922.092,427.027 957.707,332.081 993.323,332.081 
  1028.94,332.081 1064.55,237.135 1100.17,237.135 1135.78,237.135 1171.4,237.135 1207.02,237.135 1242.63,237.135 1278.25,237.135 1313.86,237.135 1349.48,142.19 
  1385.09,142.19 1420.71,142.19 1456.32,142.19 1491.94,142.19 1527.55,142.19 1563.17,142.19 1598.78,142.19 1634.4,142.19 1670.02,142.19 1705.63,142.19 
  1741.25,142.19 1776.86,142.19 1812.48,142.19 1848.09,142.19 1883.71,142.19 1919.32,142.19 1954.94,142.19 1990.55,142.19 2026.17,142.19 2061.79,142.19 
  2097.4,142.19 2133.02,142.19 2168.63,47.2441 
  "/>
</svg>
