<?xml version="1.0" encoding="utf-8"?>
<svg xmlns="http://www.w3.org/2000/svg" xmlns:xlink="http://www.w3.org/1999/xlink" width="576" height="384" viewBox="0 0 2304 1536">
<defs>
  <clipPath id="clip6600">
    <rect x="0" y="0" width="2000" height="2000"/>
  </clipPath>
</defs>
<defs>
  <clipPath id="clip6601">
    <rect x="0" y="0" width="2304" height="1536"/>
  </clipPath>
</defs>
<polygon clip-path="url(#clip6601)" points="
0,1536 2304,1536 2304,0 0,0 
  " fill="#ffffff" fill-rule="evenodd" fill-opacity="1"/>
<defs>
  <clipPath id="clip6602">
    <rect x="460" y="0" width="1614" height="1536"/>
  </clipPath>
</defs>
<polygon clip-path="url(#clip6601)" points="
224.386,1376.48 2225.26,1376.48 2225.26,47.2441 224.386,47.2441 
  " fill="#ffffff" fill-rule="evenodd" fill-opacity="1"/>
<defs>
  <clipPath id="clip6603">
    <rect x="224" y="47" width="2002" height="1330"/>
  </clipPath>
</defs>
<polyline clip-path="url(#clip6603)" style="stroke:#000000; stroke-width:2; stroke-opacity:0.1; fill:none" points="
  820.334,1376.48 820.334,47.2441 
  "/>
<polyline clip-path="url(#clip6603)" style="stroke:#000000; stroke-width:2; stroke-opacity:0.1; fill:none" points="
  1359.65,1376.48 1359.65,47.2441 
  "/>
<polyline clip-path="url(#clip6603)" style="stroke:#000000; stroke-width:2; stroke-opacity:0.1; fill:none" points="
  1898.97,1376.48 1898.97,47.2441 
  "/>
<polyline clip-path="url(#clip6603)" style="stroke:#000000; stroke-width:2; stroke-opacity:0.1; fill:none" points="
  224.386,1110.63 2225.26,1110.63 
  "/>
<polyline clip-path="url(#clip6603)" style="stroke:#000000; stroke-width:2; stroke-opacity:0.1; fill:none" points="
  224.386,844.787 2225.26,844.787 
  "/>
<polyline clip-path="url(#clip6603)" style="stroke:#000000; stroke-width:2; stroke-opacity:0.1; fill:none" points="
  224.386,578.939 2225.26,578.939 
  "/>
<polyline clip-path="url(#clip6603)" style="stroke:#000000; stroke-width:2; stroke-opacity:0.1; fill:none" points="
  224.386,313.092 2225.26,313.092 
  "/>
<polyline clip-path="url(#clip6603)" style="stroke:#000000; stroke-width:2; stroke-opacity:0.1; fill:none" points="
  224.386,47.2441 2225.26,47.2441 
  "/>
<polyline clip-path="url(#clip6601)" style="stroke:#000000; stroke-width:4; stroke-opacity:1; fill:none" points="
  224.386,1376.48 2225.26,1376.48 
  "/>
<polyline clip-path="url(#clip6601)" style="stroke:#000000; stroke-width:4; stroke-opacity:1; fill:none" points="
  281.015,1376.48 281.015,47.2441 
  "/>
<polyline clip-path="url(#clip6601)" style="stroke:#000000; stroke-width:4; stroke-opacity:1; fill:none" points="
  820.334,1376.48 820.334,1356.54 
  "/>
<polyline clip-path="url(#clip6601)" style="stroke:#000000; stroke-width:4; stroke-opacity:1; fill:none" points="
  1359.65,1376.48 1359.65,1356.54 
  "/>
<polyline clip-path="url(#clip6601)" style="stroke:#000000; stroke-width:4; stroke-opacity:1; fill:none" points="
  1898.97,1376.48 1898.97,1356.54 
  "/>
<polyline clip-path="url(#clip6601)" style="stroke:#000000; stroke-width:4; stroke-opacity:1; fill:none" points="
  281.015,1110.63 311.028,1110.63 
  "/>
<polyline clip-path="url(#clip6601)" style="stroke:#000000; stroke-width:4; stroke-opacity:1; fill:none" points="
  281.015,844.787 311.028,844.787 
  "/>
<polyline clip-path="url(#clip6601)" style="stroke:#000000; stroke-width:4; stroke-opacity:1; fill:none" points="
  281.015,578.939 311.028,578.939 
  "/>
<polyline clip-path="url(#clip6601)" style="stroke:#000000; stroke-width:4; stroke-opacity:1; fill:none" points="
  281.015,313.092 311.028,313.092 
  "/>
<polyline clip-path="url(#clip6601)" style="stroke:#000000; stroke-width:4; stroke-opacity:1; fill:none" points="
  281.015,47.2441 311.028,47.2441 
  "/>
<g clip-path="url(#clip6601)">
<text style="fill:#000000; fill-opacity:1; font-family:Arial,Helvetica Neue,Helvetica,sans-serif; font-size:48px; text-anchor:middle;" transform="rotate(0, 820.334, 1430)" x="820.334" y="1430">10</text>
</g>
<g clip-path="url(#clip6601)">
<text style="fill:#000000; fill-opacity:1; font-family:Arial,Helvetica Neue,Helvetica,sans-serif; font-size:48px; text-anchor:middle;" transform="rotate(0, 1359.65, 1430)" x="1359.65" y="1430">20</text>
</g>
<g clip-path="url(#clip6601)">
<text style="fill:#000000; fill-opacity:1; font-family:Arial,Helvetica Neue,Helvetica,sans-serif; font-size:48px; text-anchor:middle;" transform="rotate(0, 1898.97, 1430)" x="1898.97" y="1430">30</text>
</g>
<g clip-path="url(#clip6601)">
<text style="fill:#000000; fill-opacity:1; font-family:Arial,Helvetica Neue,Helvetica,sans-serif; font-size:48px; text-anchor:end;" transform="rotate(0, 257.975, 1128.13)" x="257.975" y="1128.13">0.2</text>
</g>
<g clip-path="url(#clip6601)">
<text style="fill:#000000; fill-opacity:1; font-family:Arial,Helvetica Neue,Helvetica,sans-serif; font-size:48px; text-anchor:end;" transform="rotate(0, 257.975, 862.287)" x="257.975" y="862.287">0.4</text>
</g>
<g clip-path="url(#clip6601)">
<text style="fill:#000000; fill-opacity:1; font-family:Arial,Helvetica Neue,Helvetica,sans-serif; font-size:48px; text-anchor:end;" transform="rotate(0, 257.975, 596.439)" x="257.975" y="596.439">0.6</text>
</g>
<g clip-path="url(#clip6601)">
<text style="fill:#000000; fill-opacity:1; font-family:Arial,Helvetica Neue,Helvetica,sans-serif; font-size:48px; text-anchor:end;" transform="rotate(0, 257.975, 330.592)" x="257.975" y="330.592">0.8</text>
</g>
<g clip-path="url(#clip6601)">
<text style="fill:#000000; fill-opacity:1; font-family:Arial,Helvetica Neue,Helvetica,sans-serif; font-size:48px; text-anchor:end;" transform="rotate(0, 257.975, 64.7441)" x="257.975" y="64.7441">1.0</text>
</g>
<g clip-path="url(#clip6601)">
<text style="fill:#000000; fill-opacity:1; font-family:Arial,Helvetica Neue,Helvetica,sans-serif; font-size:66px; text-anchor:middle;" transform="rotate(0, 1224.82, 1526.4)" x="1224.82" y="1526.4">Step</text>
</g>
<g clip-path="url(#clip6601)">
<text style="fill:#000000; fill-opacity:1; font-family:Arial,Helvetica Neue,Helvetica,sans-serif; font-size:66px; text-anchor:middle;" transform="rotate(-90, 57.6, 711.863)" x="57.6" y="711.863">Maximal fitness</text>
</g>
<polyline clip-path="url(#clip6603)" style="stroke:#800080; stroke-width:8; stroke-opacity:1; fill:none" points="
  334.947,901.755 388.878,901.755 442.81,711.863 496.742,711.863 550.674,711.863 604.606,616.918 658.538,616.918 712.47,616.918 766.402,521.972 820.334,616.918 
  874.266,521.972 928.198,521.972 982.129,427.027 1036.06,427.027 1089.99,332.081 1143.93,332.081 1197.86,332.081 1251.79,332.081 1305.72,332.081 1359.65,332.081 
  1413.58,332.081 1467.52,237.135 1521.45,237.135 1575.38,237.135 1629.31,237.135 1683.24,237.135 1737.18,237.135 1791.11,142.19 1845.04,142.19 1898.97,142.19 
  1952.9,142.19 2006.84,142.19 2060.77,142.19 2114.7,142.19 2168.63,47.2441 
  "/>
</svg>
