<?xml version="1.0" encoding="utf-8"?>
<svg xmlns="http://www.w3.org/2000/svg" xmlns:xlink="http://www.w3.org/1999/xlink" width="576" height="384" viewBox="0 0 2304 1536">
<defs>
  <clipPath id="clip9000">
    <rect x="0" y="0" width="2000" height="2000"/>
  </clipPath>
</defs>
<defs>
  <clipPath id="clip9001">
    <rect x="0" y="0" width="2304" height="1536"/>
  </clipPath>
</defs>
<polygon clip-path="url(#clip9001)" points="
0,1536 2304,1536 2304,0 0,0 
  " fill="#ffffff" fill-rule="evenodd" fill-opacity="1"/>
<defs>
  <clipPath id="clip9002">
    <rect x="460" y="0" width="1614" height="1536"/>
  </clipPath>
</defs>
<polygon clip-path="url(#clip9001)" points="
224.386,1376.48 2225.26,1376.48 2225.26,47.2441 224.386,47.2441 
  " fill="#ffffff" fill-rule="evenodd" fill-opacity="1"/>
<defs>
  <clipPath id="clip9003">
    <rect x="224" y="47" width="2002" height="1330"/>
  </clipPath>
</defs>
<polyline clip-path="url(#clip9003)" style="stroke:#000000; stroke-width:2; stroke-opacity:0.1; fill:none" points="
  624.561,1376.48 624.561,47.2441 
  "/>
<polyline clip-path="url(#clip9003)" style="stroke:#000000; stroke-width:2; stroke-opacity:0.1; fill:none" points="
  1024.74,1376.48 1024.74,47.2441 
  "/>
<polyline clip-path="url(#clip9003)" style="stroke:#000000; stroke-width:2; stroke-opacity:0.1; fill:none" points="
  1424.91,1376.48 1424.91,47.2441 
  "/>
<polyline clip-path="url(#clip9003)" style="stroke:#000000; stroke-width:2; stroke-opacity:0.1; fill:none" points="
  1825.09,1376.48 1825.09,47.2441 
  "/>
<polyline clip-path="url(#clip9003)" style="stroke:#000000; stroke-width:2; stroke-opacity:0.1; fill:none" points="
  2225.26,1376.48 2225.26,47.2441 
  "/>
<polyline clip-path="url(#clip9003)" style="stroke:#000000; stroke-width:2; stroke-opacity:0.1; fill:none" points="
  224.386,1044.17 2225.26,1044.17 
  "/>
<polyline clip-path="url(#clip9003)" style="stroke:#000000; stroke-width:2; stroke-opacity:0.1; fill:none" points="
  224.386,711.863 2225.26,711.863 
  "/>
<polyline clip-path="url(#clip9003)" style="stroke:#000000; stroke-width:2; stroke-opacity:0.1; fill:none" points="
  224.386,379.554 2225.26,379.554 
  "/>
<polyline clip-path="url(#clip9003)" style="stroke:#000000; stroke-width:2; stroke-opacity:0.1; fill:none" points="
  224.386,47.2441 2225.26,47.2441 
  "/>
<polyline clip-path="url(#clip9001)" style="stroke:#000000; stroke-width:4; stroke-opacity:1; fill:none" points="
  224.386,1376.48 2225.26,1376.48 
  "/>
<polyline clip-path="url(#clip9001)" style="stroke:#000000; stroke-width:4; stroke-opacity:1; fill:none" points="
  224.386,1376.48 224.386,47.2441 
  "/>
<polyline clip-path="url(#clip9001)" style="stroke:#000000; stroke-width:4; stroke-opacity:1; fill:none" points="
  624.561,1376.48 624.561,1356.54 
  "/>
<polyline clip-path="url(#clip9001)" style="stroke:#000000; stroke-width:4; stroke-opacity:1; fill:none" points="
  1024.74,1376.48 1024.74,1356.54 
  "/>
<polyline clip-path="url(#clip9001)" style="stroke:#000000; stroke-width:4; stroke-opacity:1; fill:none" points="
  1424.91,1376.48 1424.91,1356.54 
  "/>
<polyline clip-path="url(#clip9001)" style="stroke:#000000; stroke-width:4; stroke-opacity:1; fill:none" points="
  1825.09,1376.48 1825.09,1356.54 
  "/>
<polyline clip-path="url(#clip9001)" style="stroke:#000000; stroke-width:4; stroke-opacity:1; fill:none" points="
  2225.26,1376.48 2225.26,1356.54 
  "/>
<polyline clip-path="url(#clip9001)" style="stroke:#000000; stroke-width:4; stroke-opacity:1; fill:none" points="
  224.386,1044.17 254.399,1044.17 
  "/>
<polyline clip-path="url(#clip9001)" style="stroke:#000000; stroke-width:4; stroke-opacity:1; fill:none" points="
  224.386,711.863 254.399,711.863 
  "/>
<polyline clip-path="url(#clip9001)" style="stroke:#000000; stroke-width:4; stroke-opacity:1; fill:none" points="
  224.386,379.554 254.399,379.554 
  "/>
<polyline clip-path="url(#clip9001)" style="stroke:#000000; stroke-width:4; stroke-opacity:1; fill:none" points="
  224.386,47.2441 254.399,47.2441 
  "/>
<g clip-path="url(#clip9001)">
<text style="fill:#000000; fill-opacity:1; font-family:Arial,Helvetica Neue,Helvetica,sans-serif; font-size:48px; text-anchor:middle;" transform="rotate(0, 624.561, 1430)" x="624.561" y="1430">10</text>
</g>
<g clip-path="url(#clip9001)">
<text style="fill:#000000; fill-opacity:1; font-family:Arial,Helvetica Neue,Helvetica,sans-serif; font-size:48px; text-anchor:middle;" transform="rotate(0, 1024.74, 1430)" x="1024.74" y="1430">20</text>
</g>
<g clip-path="url(#clip9001)">
<text style="fill:#000000; fill-opacity:1; font-family:Arial,Helvetica Neue,Helvetica,sans-serif; font-size:48px; text-anchor:middle;" transform="rotate(0, 1424.91, 1430)" x="1424.91" y="1430">30</text>
</g>
<g clip-path="url(#clip9001)">
<text style="fill:#000000; fill-opacity:1; font-family:Arial,Helvetica Neue,Helvetica,sans-serif; font-size:48px; text-anchor:middle;" transform="rotate(0, 1825.09, 1430)" x="1825.09" y="1430">40</text>
</g>
<g clip-path="url(#clip9001)">
<text style="fill:#000000; fill-opacity:1; font-family:Arial,Helvetica Neue,Helvetica,sans-serif; font-size:48px; text-anchor:middle;" transform="rotate(0, 2225.26, 1430)" x="2225.26" y="1430">50</text>
</g>
<g clip-path="url(#clip9001)">
<text style="fill:#000000; fill-opacity:1; font-family:Arial,Helvetica Neue,Helvetica,sans-serif; font-size:48px; text-anchor:end;" transform="rotate(0, 201.346, 1061.67)" x="201.346" y="1061.67">0.5</text>
</g>
<g clip-path="url(#clip9001)">
<text style="fill:#000000; fill-opacity:1; font-family:Arial,Helvetica Neue,Helvetica,sans-serif; font-size:48px; text-anchor:end;" transform="rotate(0, 201.346, 729.363)" x="201.346" y="729.363">1.0</text>
</g>
<g clip-path="url(#clip9001)">
<text style="fill:#000000; fill-opacity:1; font-family:Arial,Helvetica Neue,Helvetica,sans-serif; font-size:48px; text-anchor:end;" transform="rotate(0, 201.346, 397.054)" x="201.346" y="397.054">1.5</text>
</g>
<g clip-path="url(#clip9001)">
<text style="fill:#000000; fill-opacity:1; font-family:Arial,Helvetica Neue,Helvetica,sans-serif; font-size:48px; text-anchor:end;" transform="rotate(0, 201.346, 64.7441)" x="201.346" y="64.7441">2.0</text>
</g>
<g clip-path="url(#clip9001)">
<text style="fill:#000000; fill-opacity:1; font-family:Arial,Helvetica Neue,Helvetica,sans-serif; font-size:66px; text-anchor:middle;" transform="rotate(0, 1224.82, 1526.4)" x="1224.82" y="1526.4">Time</text>
</g>
<g clip-path="url(#clip9001)">
<text style="fill:#000000; fill-opacity:1; font-family:Arial,Helvetica Neue,Helvetica,sans-serif; font-size:66px; text-anchor:middle;" transform="rotate(-90, 57.6, 711.863)" x="57.6" y="711.863">Population size</text>
</g>
<polyline clip-path="url(#clip9003)" style="stroke:#ffa500; stroke-width:8; stroke-opacity:1; fill:none" points="
  264.404,1369.84 304.421,1366.53 344.439,1361.6 384.456,1354.26 424.474,1343.38 464.491,1327.32 504.508,1303.83 544.526,1269.88 584.543,1221.71 624.561,1155.14 
  664.578,1066.58 704.596,954.984 744.613,824.428 784.631,685.967 824.648,555.936 864.666,449.579 904.683,373.936 944.701,326.351 984.718,299.063 1024.74,284.337 
  1064.75,276.67 1104.77,272.755 1144.79,270.776 1184.81,269.782 1224.82,269.283 1264.84,269.034 1304.86,268.909 1344.88,268.846 1384.89,268.815 1424.91,268.799 
  1464.93,268.792 1504.95,268.788 1544.96,268.786 1584.98,268.785 1625,268.784 1665.02,268.784 1705.03,268.784 1745.05,268.784 1785.07,268.784 1825.09,268.784 
  1865.1,268.784 1905.12,268.784 1945.14,268.784 1985.16,268.784 2025.17,268.784 2065.19,268.784 2105.21,268.784 2145.22,268.784 2185.24,268.784 2225.26,268.784 
  
  "/>
<polyline clip-path="url(#clip9003)" style="stroke:#008080; stroke-width:4; stroke-opacity:1; fill:none" points="
  264.404,1369.84 268.405,1369.5 272.407,1369.14 276.409,1368.77 280.411,1368.38 284.412,1367.96 288.414,1367.53 292.416,1367.08 296.418,1366.6 300.419,1366.1 
  304.421,1365.57 308.423,1365.02 312.425,1364.43 316.426,1363.82 320.428,1363.18 324.43,1362.51 328.432,1361.8 332.433,1361.06 336.435,1360.28 340.437,1359.47 
  344.439,1358.61 348.44,1357.71 352.442,1356.76 356.444,1355.77 360.446,1354.73 364.447,1353.64 368.449,1352.49 372.451,1351.29 376.453,1350.03 380.454,1348.71 
  384.456,1347.32 388.458,1345.87 392.46,1344.35 396.461,1342.75 400.463,1341.07 404.465,1339.32 408.467,1337.48 412.468,1335.56 416.47,1333.54 420.472,1331.43 
  424.474,1329.22 428.475,1326.91 432.477,1324.48 436.479,1321.95 440.481,1319.3 444.482,1316.53 448.484,1313.63 452.486,1310.6 456.488,1307.43 460.489,1304.12 
  464.491,1300.67 468.493,1297.06 472.495,1293.3 476.496,1289.37 480.498,1285.27 484.5,1281 488.501,1276.55 492.503,1271.91 496.505,1267.08 500.507,1262.05 
  504.508,1256.82 508.51,1251.37 512.512,1245.72 516.514,1239.84 520.515,1233.74 524.517,1227.41 528.519,1220.84 532.521,1214.03 536.522,1206.98 540.524,1199.68 
  544.526,1192.12 548.528,1184.31 552.529,1176.24 556.531,1167.91 560.533,1159.31 564.535,1150.45 568.536,1141.32 572.538,1131.93 576.54,1122.27 580.542,1112.34 
  584.543,1102.15 588.545,1091.71 592.547,1081 596.549,1070.04 600.55,1058.84 604.552,1047.39 608.554,1035.71 612.556,1023.8 616.557,1011.67 620.559,999.336 
  624.561,986.801 628.563,974.08 632.564,961.183 636.566,948.124 640.568,934.916 644.57,921.574 648.571,908.112 652.573,894.545 656.575,880.89 660.577,867.163 
  664.578,853.381 668.58,839.561 672.582,825.719 676.584,811.873 680.585,798.041 684.587,784.24 688.589,770.486 692.591,756.797 696.592,743.189 700.594,729.679 
  704.596,716.281 708.598,703.011 712.599,689.884 716.601,676.913 720.603,664.112 724.605,651.493 728.606,639.068 732.608,626.846 736.61,614.839 740.612,603.055 
  744.613,591.502 748.615,580.188 752.617,569.119 756.619,558.3 760.62,547.737 764.622,537.432 768.624,527.39 772.626,517.612 776.627,508.099 780.629,498.852 
  784.631,489.872 788.633,481.158 792.634,472.708 796.636,464.521 800.638,456.595 804.64,448.926 808.641,441.512 812.643,434.348 816.645,427.431 820.647,420.757 
  824.648,414.32 828.65,408.116 832.652,402.14 836.654,396.387 840.655,390.851 844.657,385.526 848.659,380.407 852.66,375.489 856.662,370.765 860.664,366.23 
  864.666,361.878 868.667,357.704 872.669,353.701 876.671,349.864 880.673,346.187 884.674,342.664 888.676,339.292 892.678,336.063 896.68,332.973 900.681,330.016 
  904.683,327.188 908.685,324.484 912.687,321.898 916.688,319.427 920.69,317.066 924.692,314.81 928.694,312.655 932.695,310.597 936.697,308.631 940.699,306.755 
  944.701,304.965 948.702,303.256 952.704,301.625 956.706,300.069 960.708,298.585 964.709,297.169 968.711,295.819 972.713,294.532 976.715,293.304 980.716,292.134 
  984.718,291.018 988.72,289.955 992.722,288.942 996.723,287.976 1000.73,287.056 1004.73,286.179 1008.73,285.344 1012.73,284.548 1016.73,283.79 1020.73,283.068 
  1024.74,282.38 1028.74,281.725 1032.74,281.101 1036.74,280.507 1040.74,279.941 1044.74,279.402 1048.75,278.889 1052.75,278.401 1056.75,277.936 1060.75,277.493 
  1064.75,277.072 1068.75,276.671 1072.76,276.289 1076.76,275.925 1080.76,275.579 1084.76,275.25 1088.76,274.937 1092.77,274.638 1096.77,274.354 1100.77,274.084 
  1104.77,273.827 1108.77,273.582 1112.77,273.349 1116.78,273.127 1120.78,272.916 1124.78,272.716 1128.78,272.525 1132.78,272.343 1136.78,272.17 1140.79,272.005 
  1144.79,271.849 1148.79,271.7 1152.79,271.558 1156.79,271.423 1160.8,271.295 1164.8,271.172 1168.8,271.056 1172.8,270.946 1176.8,270.84 1180.8,270.74 
  1184.81,270.645 1188.81,270.555 1192.81,270.468 1196.81,270.386 1200.81,270.308 1204.81,270.234 1208.82,270.164 1212.82,270.096 1216.82,270.032 1220.82,269.972 
  1224.82,269.914 1228.82,269.859 1232.83,269.806 1236.83,269.757 1240.83,269.709 1244.83,269.664 1248.83,269.621 1252.84,269.58 1256.84,269.542 1260.84,269.505 
  1264.84,269.47 1268.84,269.436 1272.84,269.404 1276.85,269.374 1280.85,269.345 1284.85,269.318 1288.85,269.292 1292.85,269.267 1296.85,269.244 1300.86,269.221 
  1304.86,269.2 1308.86,269.18 1312.86,269.16 1316.86,269.142 1320.86,269.125 1324.87,269.108 1328.87,269.092 1332.87,269.077 1336.87,269.063 1340.87,269.049 
  1344.88,269.036 1348.88,269.024 1352.88,269.012 1356.88,269.001 1360.88,268.991 1364.88,268.981 1368.89,268.971 1372.89,268.962 1376.89,268.953 1380.89,268.945 
  1384.89,268.937 1388.89,268.93 1392.9,268.922 1396.9,268.916 1400.9,268.909 1404.9,268.903 1408.9,268.897 1412.91,268.892 1416.91,268.887 1420.91,268.882 
  1424.91,268.877 1428.91,268.872 1432.91,268.868 1436.92,268.864 1440.92,268.86 1444.92,268.856 1448.92,268.853 1452.92,268.849 1456.92,268.846 1460.93,268.843 
  1464.93,268.84 1468.93,268.837 1472.93,268.835 1476.93,268.832 1480.93,268.83 1484.94,268.828 1488.94,268.826 1492.94,268.824 1496.94,268.822 1500.94,268.82 
  1504.95,268.818 1508.95,268.816 1512.95,268.815 1516.95,268.813 1520.95,268.812 1524.95,268.81 1528.96,268.809 1532.96,268.808 1536.96,268.807 1540.96,268.806 
  1544.96,268.805 1548.96,268.804 1552.97,268.803 1556.97,268.802 1560.97,268.801 1564.97,268.8 1568.97,268.799 1572.98,268.798 1576.98,268.798 1580.98,268.797 
  1584.98,268.796 1588.98,268.796 1592.98,268.795 1596.99,268.795 1600.99,268.794 1604.99,268.794 1608.99,268.793 1612.99,268.793 1616.99,268.792 1621,268.792 
  1625,268.791 1629,268.791 1633,268.791 1637,268.79 1641,268.79 1645.01,268.79 1649.01,268.79 1653.01,268.789 1657.01,268.789 1661.01,268.789 
  1665.02,268.788 1669.02,268.788 1673.02,268.788 1677.02,268.788 1681.02,268.788 1685.02,268.787 1689.03,268.787 1693.03,268.787 1697.03,268.787 1701.03,268.787 
  1705.03,268.787 1709.03,268.787 1713.04,268.786 1717.04,268.786 1721.04,268.786 1725.04,268.786 1729.04,268.786 1733.04,268.786 1737.05,268.786 1741.05,268.786 
  1745.05,268.786 1749.05,268.785 1753.05,268.785 1757.06,268.785 1761.06,268.785 1765.06,268.785 1769.06,268.785 1773.06,268.785 1777.06,268.785 1781.07,268.785 
  1785.07,268.785 1789.07,268.785 1793.07,268.785 1797.07,268.785 1801.07,268.785 1805.08,268.785 1809.08,268.785 1813.08,268.785 1817.08,268.785 1821.08,268.785 
  1825.09,268.784 1829.09,268.784 1833.09,268.784 1837.09,268.784 1841.09,268.784 1845.09,268.784 1849.1,268.784 1853.1,268.784 1857.1,268.784 1861.1,268.784 
  1865.1,268.784 1869.1,268.784 1873.11,268.784 1877.11,268.784 1881.11,268.784 1885.11,268.784 1889.11,268.784 1893.11,268.784 1897.12,268.784 1901.12,268.784 
  1905.12,268.784 1909.12,268.784 1913.12,268.784 1917.13,268.784 1921.13,268.784 1925.13,268.784 1929.13,268.784 1933.13,268.784 1937.13,268.784 1941.14,268.784 
  1945.14,268.784 1949.14,268.784 1953.14,268.784 1957.14,268.784 1961.14,268.784 1965.15,268.784 1969.15,268.784 1973.15,268.784 1977.15,268.784 1981.15,268.784 
  1985.16,268.784 1989.16,268.784 1993.16,268.784 1997.16,268.784 2001.16,268.784 2005.16,268.784 2009.17,268.784 2013.17,268.784 2017.17,268.784 2021.17,268.784 
  2025.17,268.784 2029.17,268.784 2033.18,268.784 2037.18,268.784 2041.18,268.784 2045.18,268.784 2049.18,268.784 2053.18,268.784 2057.19,268.784 2061.19,268.784 
  2065.19,268.784 2069.19,268.784 2073.19,268.784 2077.2,268.784 2081.2,268.784 2085.2,268.784 2089.2,268.784 2093.2,268.784 2097.2,268.784 2101.21,268.784 
  2105.21,268.784 2109.21,268.784 2113.21,268.784 2117.21,268.784 2121.21,268.784 2125.22,268.784 2129.22,268.784 2133.22,268.784 2137.22,268.784 2141.22,268.784 
  2145.22,268.784 2149.23,268.784 2153.23,268.784 2157.23,268.784 2161.23,268.784 2165.23,268.784 2169.24,268.784 2173.24,268.784 2177.24,268.784 2181.24,268.784 
  2185.24,268.784 2189.24,268.784 2193.25,268.784 2197.25,268.784 2201.25,268.784 2205.25,268.784 2209.25,268.784 2213.25,268.784 2217.26,268.784 2221.26,268.784 
  2225.26,268.784 
  "/>
<polygon clip-path="url(#clip9001)" points="
1628.8,306.444 2156.14,306.444 2156.14,125.004 1628.8,125.004 
  " fill="#ffffff" fill-rule="evenodd" fill-opacity="1"/>
<polyline clip-path="url(#clip9001)" style="stroke:#000000; stroke-width:4; stroke-opacity:1; fill:none" points="
  1628.8,306.444 2156.14,306.444 2156.14,125.004 1628.8,125.004 1628.8,306.444 
  "/>
<polyline clip-path="url(#clip9001)" style="stroke:#ffa500; stroke-width:8; stroke-opacity:1; fill:none" points="
  1651.84,185.484 1790.08,185.484 
  "/>
<g clip-path="url(#clip9001)">
<text style="fill:#000000; fill-opacity:1; font-family:Arial,Helvetica Neue,Helvetica,sans-serif; font-size:48px; text-anchor:start;" transform="rotate(0, 1813.12, 202.984)" x="1813.12" y="202.984">Naive method</text>
</g>
<polyline clip-path="url(#clip9001)" style="stroke:#008080; stroke-width:4; stroke-opacity:1; fill:none" points="
  1651.84,245.964 1790.08,245.964 
  "/>
<g clip-path="url(#clip9001)">
<text style="fill:#000000; fill-opacity:1; font-family:Arial,Helvetica Neue,Helvetica,sans-serif; font-size:48px; text-anchor:start;" transform="rotate(0, 1813.12, 263.464)" x="1813.12" y="263.464">RK2</text>
</g>
</svg>
