<?xml version="1.0" encoding="utf-8"?>
<svg xmlns="http://www.w3.org/2000/svg" xmlns:xlink="http://www.w3.org/1999/xlink" width="900" height="300" viewBox="0 0 3600 1200">
<defs>
  <clipPath id="clip7900">
    <rect x="0" y="0" width="2000" height="2000"/>
  </clipPath>
</defs>
<defs>
  <clipPath id="clip7901">
    <rect x="0" y="0" width="3600" height="1200"/>
  </clipPath>
</defs>
<polygon clip-path="url(#clip7901)" points="
0,1200 3600,1200 3600,0 0,0 
  " fill="#ffffff" fill-rule="evenodd" fill-opacity="1"/>
<defs>
  <clipPath id="clip7902">
    <rect x="720" y="0" width="2521" height="1200"/>
  </clipPath>
</defs>
<polygon clip-path="url(#clip7901)" points="
161.394,1103.47 3521.26,1103.47 3521.26,47.2441 161.394,47.2441 
  " fill="#ffffff" fill-rule="evenodd" fill-opacity="1"/>
<defs>
  <clipPath id="clip7903">
    <rect x="161" y="47" width="3361" height="1057"/>
  </clipPath>
</defs>
<polyline clip-path="url(#clip7903)" style="stroke:#000000; stroke-width:2; stroke-opacity:0.1; fill:none" points="
  191.797,1103.47 191.797,47.2441 
  "/>
<polyline clip-path="url(#clip7903)" style="stroke:#000000; stroke-width:2; stroke-opacity:0.1; fill:none" points="
  838.672,1103.47 838.672,47.2441 
  "/>
<polyline clip-path="url(#clip7903)" style="stroke:#000000; stroke-width:2; stroke-opacity:0.1; fill:none" points="
  1485.55,1103.47 1485.55,47.2441 
  "/>
<polyline clip-path="url(#clip7903)" style="stroke:#000000; stroke-width:2; stroke-opacity:0.1; fill:none" points="
  2132.42,1103.47 2132.42,47.2441 
  "/>
<polyline clip-path="url(#clip7903)" style="stroke:#000000; stroke-width:2; stroke-opacity:0.1; fill:none" points="
  2779.29,1103.47 2779.29,47.2441 
  "/>
<polyline clip-path="url(#clip7903)" style="stroke:#000000; stroke-width:2; stroke-opacity:0.1; fill:none" points="
  3426.17,1103.47 3426.17,47.2441 
  "/>
<polyline clip-path="url(#clip7903)" style="stroke:#000000; stroke-width:2; stroke-opacity:0.1; fill:none" points="
  161.394,1079.6 3521.26,1079.6 
  "/>
<polyline clip-path="url(#clip7903)" style="stroke:#000000; stroke-width:2; stroke-opacity:0.1; fill:none" points="
  161.394,778.859 3521.26,778.859 
  "/>
<polyline clip-path="url(#clip7903)" style="stroke:#000000; stroke-width:2; stroke-opacity:0.1; fill:none" points="
  161.394,478.121 3521.26,478.121 
  "/>
<polyline clip-path="url(#clip7903)" style="stroke:#000000; stroke-width:2; stroke-opacity:0.1; fill:none" points="
  161.394,177.383 3521.26,177.383 
  "/>
<polyline clip-path="url(#clip7901)" style="stroke:#000000; stroke-width:4; stroke-opacity:1; fill:none" points="
  161.394,1103.47 3521.26,1103.47 
  "/>
<polyline clip-path="url(#clip7901)" style="stroke:#000000; stroke-width:4; stroke-opacity:1; fill:none" points="
  161.394,1103.47 161.394,47.2441 
  "/>
<polyline clip-path="url(#clip7901)" style="stroke:#000000; stroke-width:4; stroke-opacity:1; fill:none" points="
  191.797,1103.47 191.797,1087.63 
  "/>
<polyline clip-path="url(#clip7901)" style="stroke:#000000; stroke-width:4; stroke-opacity:1; fill:none" points="
  838.672,1103.47 838.672,1087.63 
  "/>
<polyline clip-path="url(#clip7901)" style="stroke:#000000; stroke-width:4; stroke-opacity:1; fill:none" points="
  1485.55,1103.47 1485.55,1087.63 
  "/>
<polyline clip-path="url(#clip7901)" style="stroke:#000000; stroke-width:4; stroke-opacity:1; fill:none" points="
  2132.42,1103.47 2132.42,1087.63 
  "/>
<polyline clip-path="url(#clip7901)" style="stroke:#000000; stroke-width:4; stroke-opacity:1; fill:none" points="
  2779.29,1103.47 2779.29,1087.63 
  "/>
<polyline clip-path="url(#clip7901)" style="stroke:#000000; stroke-width:4; stroke-opacity:1; fill:none" points="
  3426.17,1103.47 3426.17,1087.63 
  "/>
<polyline clip-path="url(#clip7901)" style="stroke:#000000; stroke-width:4; stroke-opacity:1; fill:none" points="
  161.394,1079.6 211.792,1079.6 
  "/>
<polyline clip-path="url(#clip7901)" style="stroke:#000000; stroke-width:4; stroke-opacity:1; fill:none" points="
  161.394,778.859 211.792,778.859 
  "/>
<polyline clip-path="url(#clip7901)" style="stroke:#000000; stroke-width:4; stroke-opacity:1; fill:none" points="
  161.394,478.121 211.792,478.121 
  "/>
<polyline clip-path="url(#clip7901)" style="stroke:#000000; stroke-width:4; stroke-opacity:1; fill:none" points="
  161.394,177.383 211.792,177.383 
  "/>
<g clip-path="url(#clip7901)">
<text style="fill:#000000; fill-opacity:1; font-family:Arial,Helvetica Neue,Helvetica,sans-serif; font-size:48px; text-anchor:middle;" transform="rotate(0, 191.797, 1163.47)" x="191.797" y="1163.47">0</text>
</g>
<g clip-path="url(#clip7901)">
<text style="fill:#000000; fill-opacity:1; font-family:Arial,Helvetica Neue,Helvetica,sans-serif; font-size:48px; text-anchor:middle;" transform="rotate(0, 838.672, 1163.47)" x="838.672" y="1163.47">10</text>
</g>
<g clip-path="url(#clip7901)">
<text style="fill:#000000; fill-opacity:1; font-family:Arial,Helvetica Neue,Helvetica,sans-serif; font-size:48px; text-anchor:middle;" transform="rotate(0, 1485.55, 1163.47)" x="1485.55" y="1163.47">20</text>
</g>
<g clip-path="url(#clip7901)">
<text style="fill:#000000; fill-opacity:1; font-family:Arial,Helvetica Neue,Helvetica,sans-serif; font-size:48px; text-anchor:middle;" transform="rotate(0, 2132.42, 1163.47)" x="2132.42" y="1163.47">30</text>
</g>
<g clip-path="url(#clip7901)">
<text style="fill:#000000; fill-opacity:1; font-family:Arial,Helvetica Neue,Helvetica,sans-serif; font-size:48px; text-anchor:middle;" transform="rotate(0, 2779.29, 1163.47)" x="2779.29" y="1163.47">40</text>
</g>
<g clip-path="url(#clip7901)">
<text style="fill:#000000; fill-opacity:1; font-family:Arial,Helvetica Neue,Helvetica,sans-serif; font-size:48px; text-anchor:middle;" transform="rotate(0, 3426.17, 1163.47)" x="3426.17" y="1163.47">50</text>
</g>
<g clip-path="url(#clip7901)">
<text style="fill:#000000; fill-opacity:1; font-family:Arial,Helvetica Neue,Helvetica,sans-serif; font-size:48px; text-anchor:end;" transform="rotate(0, 125.394, 1097.1)" x="125.394" y="1097.1">0.0</text>
</g>
<g clip-path="url(#clip7901)">
<text style="fill:#000000; fill-opacity:1; font-family:Arial,Helvetica Neue,Helvetica,sans-serif; font-size:48px; text-anchor:end;" transform="rotate(0, 125.394, 796.359)" x="125.394" y="796.359">0.5</text>
</g>
<g clip-path="url(#clip7901)">
<text style="fill:#000000; fill-opacity:1; font-family:Arial,Helvetica Neue,Helvetica,sans-serif; font-size:48px; text-anchor:end;" transform="rotate(0, 125.394, 495.621)" x="125.394" y="495.621">1.0</text>
</g>
<g clip-path="url(#clip7901)">
<text style="fill:#000000; fill-opacity:1; font-family:Arial,Helvetica Neue,Helvetica,sans-serif; font-size:48px; text-anchor:end;" transform="rotate(0, 125.394, 194.883)" x="125.394" y="194.883">1.5</text>
</g>
<polyline clip-path="url(#clip7903)" style="stroke:#000000; stroke-width:4; stroke-opacity:1; fill:none" points="
  256.485,1073.58 321.172,1070.59 385.859,1066.13 450.547,1059.49 515.234,1049.64 579.922,1035.1 644.609,1013.84 709.297,983.124 773.984,939.53 838.672,879.283 
  903.359,799.14 968.046,698.143 1032.73,579.991 1097.42,454.685 1162.11,337.007 1226.8,240.756 1291.48,172.299 1356.17,129.235 1420.86,104.54 1485.55,91.2133 
  1550.23,84.2742 1614.92,80.7312 1679.61,78.9407 1744.3,78.0407 1808.98,77.5895 1873.67,77.3635 1938.36,77.2505 2003.05,77.194 2067.73,77.1657 2132.42,77.1516 
  2197.11,77.1445 2261.8,77.1409 2326.48,77.1392 2391.17,77.1383 2455.86,77.1379 2520.55,77.1376 2585.23,77.1375 2649.92,77.1375 2714.61,77.1374 2779.29,77.1374 
  2843.98,77.1374 2908.67,77.1374 2973.36,77.1374 3038.04,77.1374 3102.73,77.1374 3167.42,77.1374 3232.11,77.1374 3296.79,77.1374 3361.48,77.1374 3426.17,77.1374 
  
  "/>
</svg>
