<?xml version="1.0" encoding="utf-8"?>
<svg xmlns="http://www.w3.org/2000/svg" xmlns:xlink="http://www.w3.org/1999/xlink" width="576" height="384" viewBox="0 0 2304 1536">
<defs>
  <clipPath id="clip7500">
    <rect x="0" y="0" width="2000" height="2000"/>
  </clipPath>
</defs>
<defs>
  <clipPath id="clip7501">
    <rect x="0" y="0" width="2304" height="1536"/>
  </clipPath>
</defs>
<polygon clip-path="url(#clip7501)" points="
0,1536 2304,1536 2304,0 0,0 
  " fill="#ffffff" fill-rule="evenodd" fill-opacity="1"/>
<defs>
  <clipPath id="clip7502">
    <rect x="460" y="0" width="1614" height="1536"/>
  </clipPath>
</defs>
<polygon clip-path="url(#clip7501)" points="
184.243,1376.48 2225.26,1376.48 2225.26,47.2441 184.243,47.2441 
  " fill="#ffffff" fill-rule="evenodd" fill-opacity="1"/>
<defs>
  <clipPath id="clip7503">
    <rect x="184" y="47" width="2042" height="1330"/>
  </clipPath>
</defs>
<polyline clip-path="url(#clip7503)" style="stroke:#000000; stroke-width:2; stroke-opacity:0.1; fill:none" points="
  864.582,1376.48 864.582,47.2441 
  "/>
<polyline clip-path="url(#clip7503)" style="stroke:#000000; stroke-width:2; stroke-opacity:0.1; fill:none" points="
  1544.92,1376.48 1544.92,47.2441 
  "/>
<polyline clip-path="url(#clip7503)" style="stroke:#000000; stroke-width:2; stroke-opacity:0.1; fill:none" points="
  2225.26,1376.48 2225.26,47.2441 
  "/>
<polyline clip-path="url(#clip7503)" style="stroke:#000000; stroke-width:2; stroke-opacity:0.1; fill:none" points="
  184.243,1110.63 2225.26,1110.63 
  "/>
<polyline clip-path="url(#clip7503)" style="stroke:#000000; stroke-width:2; stroke-opacity:0.1; fill:none" points="
  184.243,844.787 2225.26,844.787 
  "/>
<polyline clip-path="url(#clip7503)" style="stroke:#000000; stroke-width:2; stroke-opacity:0.1; fill:none" points="
  184.243,578.939 2225.26,578.939 
  "/>
<polyline clip-path="url(#clip7503)" style="stroke:#000000; stroke-width:2; stroke-opacity:0.1; fill:none" points="
  184.243,313.092 2225.26,313.092 
  "/>
<polyline clip-path="url(#clip7503)" style="stroke:#000000; stroke-width:2; stroke-opacity:0.1; fill:none" points="
  184.243,47.2441 2225.26,47.2441 
  "/>
<polyline clip-path="url(#clip7501)" style="stroke:#000000; stroke-width:4; stroke-opacity:1; fill:none" points="
  184.243,1376.48 2225.26,1376.48 
  "/>
<polyline clip-path="url(#clip7501)" style="stroke:#000000; stroke-width:4; stroke-opacity:1; fill:none" points="
  184.243,1376.48 184.243,47.2441 
  "/>
<polyline clip-path="url(#clip7501)" style="stroke:#000000; stroke-width:4; stroke-opacity:1; fill:none" points="
  864.582,1376.48 864.582,1356.54 
  "/>
<polyline clip-path="url(#clip7501)" style="stroke:#000000; stroke-width:4; stroke-opacity:1; fill:none" points="
  1544.92,1376.48 1544.92,1356.54 
  "/>
<polyline clip-path="url(#clip7501)" style="stroke:#000000; stroke-width:4; stroke-opacity:1; fill:none" points="
  2225.26,1376.48 2225.26,1356.54 
  "/>
<polyline clip-path="url(#clip7501)" style="stroke:#000000; stroke-width:4; stroke-opacity:1; fill:none" points="
  184.243,1110.63 214.858,1110.63 
  "/>
<polyline clip-path="url(#clip7501)" style="stroke:#000000; stroke-width:4; stroke-opacity:1; fill:none" points="
  184.243,844.787 214.858,844.787 
  "/>
<polyline clip-path="url(#clip7501)" style="stroke:#000000; stroke-width:4; stroke-opacity:1; fill:none" points="
  184.243,578.939 214.858,578.939 
  "/>
<polyline clip-path="url(#clip7501)" style="stroke:#000000; stroke-width:4; stroke-opacity:1; fill:none" points="
  184.243,313.092 214.858,313.092 
  "/>
<polyline clip-path="url(#clip7501)" style="stroke:#000000; stroke-width:4; stroke-opacity:1; fill:none" points="
  184.243,47.2441 214.858,47.2441 
  "/>
<g clip-path="url(#clip7501)">
<text style="fill:#000000; fill-opacity:1; font-family:Arial,Helvetica Neue,Helvetica,sans-serif; font-size:48px; text-anchor:middle;" transform="rotate(0, 864.582, 1430)" x="864.582" y="1430">10</text>
</g>
<g clip-path="url(#clip7501)">
<text style="fill:#000000; fill-opacity:1; font-family:Arial,Helvetica Neue,Helvetica,sans-serif; font-size:48px; text-anchor:middle;" transform="rotate(0, 1544.92, 1430)" x="1544.92" y="1430">20</text>
</g>
<g clip-path="url(#clip7501)">
<text style="fill:#000000; fill-opacity:1; font-family:Arial,Helvetica Neue,Helvetica,sans-serif; font-size:48px; text-anchor:middle;" transform="rotate(0, 2225.26, 1430)" x="2225.26" y="1430">30</text>
</g>
<g clip-path="url(#clip7501)">
<text style="fill:#000000; fill-opacity:1; font-family:Arial,Helvetica Neue,Helvetica,sans-serif; font-size:48px; text-anchor:end;" transform="rotate(0, 161.203, 1128.13)" x="161.203" y="1128.13">1</text>
</g>
<g clip-path="url(#clip7501)">
<text style="fill:#000000; fill-opacity:1; font-family:Arial,Helvetica Neue,Helvetica,sans-serif; font-size:48px; text-anchor:end;" transform="rotate(0, 161.203, 862.287)" x="161.203" y="862.287">2</text>
</g>
<g clip-path="url(#clip7501)">
<text style="fill:#000000; fill-opacity:1; font-family:Arial,Helvetica Neue,Helvetica,sans-serif; font-size:48px; text-anchor:end;" transform="rotate(0, 161.203, 596.439)" x="161.203" y="596.439">3</text>
</g>
<g clip-path="url(#clip7501)">
<text style="fill:#000000; fill-opacity:1; font-family:Arial,Helvetica Neue,Helvetica,sans-serif; font-size:48px; text-anchor:end;" transform="rotate(0, 161.203, 330.592)" x="161.203" y="330.592">4</text>
</g>
<g clip-path="url(#clip7501)">
<text style="fill:#000000; fill-opacity:1; font-family:Arial,Helvetica Neue,Helvetica,sans-serif; font-size:48px; text-anchor:end;" transform="rotate(0, 161.203, 64.7441)" x="161.203" y="64.7441">5</text>
</g>
<g clip-path="url(#clip7501)">
<text style="fill:#000000; fill-opacity:1; font-family:Arial,Helvetica Neue,Helvetica,sans-serif; font-size:66px; text-anchor:middle;" transform="rotate(0, 1204.75, 1526.4)" x="1204.75" y="1526.4">Time</text>
</g>
<g clip-path="url(#clip7501)">
<text style="fill:#000000; fill-opacity:1; font-family:Arial,Helvetica Neue,Helvetica,sans-serif; font-size:66px; text-anchor:middle;" transform="rotate(-90, 57.6, 711.863)" x="57.6" y="711.863">Abundance</text>
</g>
<polyline clip-path="url(#clip7503)" style="stroke:#008080; stroke-width:4; stroke-opacity:1; fill:none" points="
  252.277,1349.9 255.678,1348.94 259.08,1347.95 262.482,1346.9 265.883,1345.8 269.285,1344.65 272.687,1343.44 276.088,1342.18 279.49,1340.86 282.892,1339.48 
  286.294,1338.03 289.695,1336.51 293.097,1334.92 296.499,1333.26 299.9,1331.52 303.302,1329.71 306.704,1327.8 310.105,1325.81 313.507,1323.73 316.909,1321.55 
  320.31,1319.27 323.712,1316.89 327.114,1314.4 330.516,1311.79 333.917,1309.07 337.319,1306.22 340.721,1303.24 344.122,1300.13 347.524,1296.87 350.926,1293.47 
  354.327,1289.91 357.729,1286.19 361.131,1282.3 364.533,1278.23 367.934,1273.98 371.336,1269.54 374.738,1264.9 378.139,1260.05 381.541,1254.97 384.943,1249.67 
  388.344,1244.13 391.746,1238.34 395.148,1232.29 398.549,1225.97 401.951,1219.36 405.353,1212.46 408.755,1205.25 412.156,1197.71 415.558,1189.83 418.96,1181.61 
  422.361,1173.01 425.763,1164.04 429.165,1154.66 432.566,1144.86 435.968,1134.63 439.37,1123.95 442.771,1112.79 446.173,1101.14 449.575,1088.97 452.977,1076.27 
  456.378,1063.02 459.78,1049.18 463.182,1034.74 466.583,1019.67 469.985,1003.94 473.387,987.544 476.788,970.44 480.19,952.605 483.592,934.013 486.994,914.638 
  490.395,894.453 493.797,873.432 497.199,851.549 500.6,828.779 504.002,805.1 507.404,780.49 510.805,754.933 514.207,728.413 517.609,700.922 521.01,672.459 
  524.412,643.029 527.814,612.651 531.216,581.357 534.617,549.197 538.019,516.245 541.421,482.603 544.822,448.414 548.224,413.862 551.626,379.196 555.027,344.736 
  558.429,310.895 561.831,278.198 565.233,247.312 568.634,219.063 572.036,194.468 575.438,174.754 578.839,161.357 582.241,155.905 585.643,160.148 589.044,175.826 
  592.446,204.464 595.848,247.081 599.249,303.875 602.651,373.925 606.053,455.068 609.455,544.005 612.856,636.71 616.258,729.016 619.66,817.23 623.061,898.569 
  626.463,971.337 629.865,1034.85 633.266,1089.23 636.668,1135.12 640.07,1173.44 643.472,1205.21 646.873,1231.45 650.275,1253.08 653.677,1270.91 657.078,1285.62 
  660.48,1297.78 663.882,1307.88 667.283,1316.28 670.685,1323.3 674.087,1329.19 677.488,1334.16 680.89,1338.36 684.292,1341.93 687.694,1344.97 691.095,1347.58 
  694.497,1349.82 697.899,1351.75 701.3,1353.41 704.702,1354.86 708.104,1356.11 711.505,1357.21 714.907,1358.16 718.309,1358.98 721.711,1359.7 725.112,1360.33 
  728.514,1360.88 731.916,1361.35 735.317,1361.75 738.719,1362.1 742.121,1362.39 745.522,1362.64 748.924,1362.84 752.326,1363 755.727,1363.13 759.129,1363.22 
  762.531,1363.28 765.933,1363.31 769.334,1363.31 772.736,1363.28 776.138,1363.22 779.539,1363.14 782.941,1363.04 786.343,1362.91 789.744,1362.76 793.146,1362.58 
  796.548,1362.38 799.95,1362.16 803.351,1361.91 806.753,1361.64 810.155,1361.35 813.556,1361.03 816.958,1360.69 820.36,1360.33 823.761,1359.93 827.163,1359.52 
  830.565,1359.07 833.966,1358.6 837.368,1358.11 840.77,1357.58 844.172,1357.02 847.573,1356.43 850.975,1355.81 854.377,1355.16 857.778,1354.47 861.18,1353.75 
  864.582,1352.99 867.983,1352.19 871.385,1351.35 874.787,1350.47 878.188,1349.54 881.59,1348.58 884.992,1347.56 888.394,1346.49 891.795,1345.38 895.197,1344.21 
  898.599,1342.98 902,1341.7 905.402,1340.36 908.804,1338.95 912.205,1337.48 915.607,1335.93 919.009,1334.32 922.411,1332.63 925.812,1330.86 929.214,1329.02 
  932.616,1327.08 936.017,1325.06 939.419,1322.94 942.821,1320.73 946.222,1318.41 949.624,1315.99 953.026,1313.46 956.427,1310.81 959.829,1308.05 963.231,1305.15 
  966.633,1302.12 970.034,1298.96 973.436,1295.65 976.838,1292.19 980.239,1288.57 983.641,1284.79 987.043,1280.84 990.444,1276.71 993.846,1272.39 997.248,1267.88 
  1000.65,1263.16 1004.05,1258.23 1007.45,1253.08 1010.85,1247.69 1014.26,1242.07 1017.66,1236.18 1021.06,1230.04 1024.46,1223.61 1027.86,1216.9 1031.26,1209.89 
  1034.67,1202.56 1038.07,1194.9 1041.47,1186.9 1044.87,1178.55 1048.27,1169.82 1051.67,1160.7 1055.08,1151.17 1058.48,1141.22 1061.88,1130.83 1065.28,1119.98 
  1068.68,1108.65 1072.09,1096.82 1075.49,1084.46 1078.89,1071.57 1082.29,1058.11 1085.69,1044.05 1089.09,1029.39 1092.5,1014.09 1095.9,998.13 1099.3,981.481 
  1102.7,964.12 1106.1,946.018 1109.5,927.151 1112.91,907.491 1116.31,887.012 1119.71,865.687 1123.11,843.492 1126.51,820.403 1129.91,796.397 1133.32,771.455 
  1136.72,745.559 1140.12,718.699 1143.52,690.866 1146.92,662.064 1150.32,632.301 1153.73,601.601 1157.13,570.003 1160.53,537.564 1163.93,504.369 1167.33,470.533 
  1170.73,436.212 1174.14,401.614 1177.54,367.012 1180.94,332.757 1184.34,299.3 1187.74,267.216 1191.14,237.226 1194.55,210.223 1197.95,187.298 1201.35,169.752 
  1204.75,159.095 1208.15,157.006 1211.55,165.248 1214.96,185.506 1218.36,219.152 1221.76,266.94 1225.16,328.684 1228.56,403.015 1231.96,487.332 1235.37,578.018 
  1238.77,670.932 1242.17,762.024 1245.57,847.903 1248.97,926.179 1252.37,995.546 1255.78,1055.64 1259.18,1106.81 1262.58,1149.8 1265.98,1185.6 1269.38,1215.25 
  1272.79,1239.71 1276.19,1259.87 1279.59,1276.49 1282.99,1290.22 1286.39,1301.59 1289.79,1311.03 1293.2,1318.9 1296.6,1325.49 1300,1331.03 1303.4,1335.7 
  1306.8,1339.66 1310.2,1343.03 1313.61,1345.91 1317.01,1348.38 1320.41,1350.5 1323.81,1352.34 1327.21,1353.92 1330.61,1355.3 1334.02,1356.49 1337.42,1357.53 
  1340.82,1358.43 1344.22,1359.22 1347.62,1359.91 1351.02,1360.5 1354.43,1361.02 1357.83,1361.47 1361.23,1361.85 1364.63,1362.18 1368.03,1362.46 1371.43,1362.69 
  1374.84,1362.88 1378.24,1363.02 1381.64,1363.14 1385.04,1363.21 1388.44,1363.26 1391.84,1363.28 1395.25,1363.27 1398.65,1363.23 1402.05,1363.17 1405.45,1363.08 
  1408.85,1362.96 1412.25,1362.82 1415.66,1362.66 1419.06,1362.48 1422.46,1362.27 1425.86,1362.04 1429.26,1361.78 1432.66,1361.5 1436.07,1361.2 1439.47,1360.87 
  1442.87,1360.52 1446.27,1360.15 1449.67,1359.75 1453.08,1359.32 1456.48,1358.86 1459.88,1358.38 1463.28,1357.87 1466.68,1357.33 1470.08,1356.76 1473.49,1356.16 
  1476.89,1355.53 1480.29,1354.86 1483.69,1354.16 1487.09,1353.42 1490.49,1352.64 1493.9,1351.83 1497.3,1350.97 1500.7,1350.07 1504.1,1349.13 1507.5,1348.14 
  1510.9,1347.11 1514.31,1346.02 1517.71,1344.88 1521.11,1343.69 1524.51,1342.44 1527.91,1341.13 1531.31,1339.76 1534.72,1338.33 1538.12,1336.83 1541.52,1335.25 
  1544.92,1333.61 1548.32,1331.89 1551.72,1330.09 1555.13,1328.21 1558.53,1326.23 1561.93,1324.17 1565.33,1322.02 1568.73,1319.76 1572.13,1317.4 1575.54,1314.94 
  1578.94,1312.36 1582.34,1309.66 1585.74,1306.84 1589.14,1303.89 1592.54,1300.81 1595.95,1297.58 1599.35,1294.21 1602.75,1290.69 1606.15,1287 1609.55,1283.15 
  1612.95,1279.13 1616.36,1274.92 1619.76,1270.52 1623.16,1265.92 1626.56,1261.12 1629.96,1256.1 1633.36,1250.85 1636.77,1245.36 1640.17,1239.63 1643.57,1233.64 
  1646.97,1227.38 1650.37,1220.84 1653.78,1214 1657.18,1206.86 1660.58,1199.39 1663.98,1191.6 1667.38,1183.45 1670.78,1174.94 1674.19,1166.05 1677.59,1156.77 
  1680.99,1147.07 1684.39,1136.94 1687.79,1126.36 1691.19,1115.31 1694.6,1103.77 1698,1091.72 1701.4,1079.15 1704.8,1066.02 1708.2,1052.31 1711.6,1038.01 
  1715.01,1023.09 1718.41,1007.52 1721.81,991.275 1725.21,974.334 1728.61,956.669 1732.01,938.254 1735.42,919.062 1738.82,899.067 1742.22,878.242 1745.62,856.562 
  1749.02,834.001 1752.42,810.537 1755.83,786.149 1759.23,760.817 1762.63,734.527 1766.03,707.27 1769.43,679.041 1772.83,649.846 1776.24,619.7 1779.64,588.633 
  1783.04,556.69 1786.44,523.941 1789.84,490.481 1793.24,456.443 1796.65,422.003 1800.05,387.395 1803.45,352.922 1806.85,318.976 1810.25,286.057 1813.65,254.798 
  1817.06,225.99 1820.46,200.605 1823.86,179.822 1827.26,165.03 1830.66,157.816 1834.06,159.904 1837.47,173.044 1840.87,198.819 1844.27,238.374 1847.67,292.1 
  1851.07,359.332 1854.48,438.175 1857.88,525.559 1861.28,617.586 1864.68,710.085 1868.08,799.234 1871.48,882.044 1874.89,956.59 1878.29,1021.99 1881.69,1078.21 
  1885.09,1125.79 1888.49,1165.62 1891.89,1198.69 1895.3,1226.03 1898.7,1248.58 1902.1,1267.17 1905.5,1282.5 1908.9,1295.18 1912.3,1305.7 1915.71,1314.44 
  1919.11,1321.75 1922.51,1327.87 1925.91,1333.03 1929.31,1337.39 1932.71,1341.09 1936.12,1344.25 1939.52,1346.95 1942.92,1349.27 1946.32,1351.26 1949.72,1352.99 
  1953.12,1354.48 1956.53,1355.78 1959.93,1356.91 1963.33,1357.89 1966.73,1358.74 1970.13,1359.49 1973.53,1360.14 1976.94,1360.7 1980.34,1361.19 1983.74,1361.61 
  1987.14,1361.97 1990.54,1362.27 1993.94,1362.53 1997.35,1362.74 2000.75,1362.91 2004.15,1363.04 2007.55,1363.14 2010.95,1363.21 2014.35,1363.24 2017.76,1363.25 
  2021.16,1363.22 2024.56,1363.17 2027.96,1363.1 2031.36,1363 2034.76,1362.87 2038.17,1362.73 2041.57,1362.55 2044.97,1362.36 2048.37,1362.14 2051.77,1361.9 
  2055.18,1361.63 2058.58,1361.34 2061.98,1361.03 2065.38,1360.69 2068.78,1360.33 2072.18,1359.94 2075.59,1359.53 2078.99,1359.09 2082.39,1358.62 2085.79,1358.13 
  2089.19,1357.6 2092.59,1357.05 2096,1356.46 2099.4,1355.85 2102.8,1355.2 2106.2,1354.51 2109.6,1353.8 2113,1353.04 2116.41,1352.25 2119.81,1351.41 
  2123.21,1350.54 2126.61,1349.62 2130.01,1348.65 2133.41,1347.64 2136.82,1346.58 2140.22,1345.47 2143.62,1344.31 2147.02,1343.09 2150.42,1341.81 2153.82,1340.47 
  2157.23,1339.07 2160.63,1337.61 2164.03,1336.07 2167.43,1334.47 2170.83,1332.79 2174.23,1331.03 2177.64,1329.19 2181.04,1327.27 2184.44,1325.25 2187.84,1323.15 
  2191.24,1320.94 2194.64,1318.64 2198.05,1316.23 2201.45,1313.71 2204.85,1311.08 2208.25,1308.32 2211.65,1305.44 2215.05,1302.43 2218.46,1299.28 2221.86,1295.99 
  2225.26,1292.54 
  "/>
<polyline clip-path="url(#clip7503)" style="stroke:#800080; stroke-width:4; stroke-opacity:1; fill:none" points="
  252.277,1323.31 255.678,1325.65 259.08,1327.87 262.482,1329.99 265.883,1332 269.285,1333.92 272.687,1335.75 276.088,1337.49 279.49,1339.15 282.892,1340.72 
  286.294,1342.22 289.695,1343.65 293.097,1345.01 296.499,1346.31 299.9,1347.54 303.302,1348.71 306.704,1349.83 310.105,1350.89 313.507,1351.9 316.909,1352.86 
  320.31,1353.77 323.712,1354.64 327.114,1355.47 330.516,1356.25 333.917,1357 337.319,1357.71 340.721,1358.38 344.122,1359.02 347.524,1359.63 350.926,1360.2 
  354.327,1360.75 357.729,1361.26 361.131,1361.75 364.533,1362.21 367.934,1362.65 371.336,1363.06 374.738,1363.45 378.139,1363.82 381.541,1364.17 384.943,1364.49 
  388.344,1364.79 391.746,1365.08 395.148,1365.34 398.549,1365.59 401.951,1365.81 405.353,1366.02 408.755,1366.21 412.156,1366.39 415.558,1366.55 418.96,1366.68 
  422.361,1366.81 425.763,1366.91 429.165,1367 432.566,1367.07 435.968,1367.12 439.37,1367.15 442.771,1367.17 446.173,1367.16 449.575,1367.13 452.977,1367.08 
  456.378,1367.01 459.78,1366.91 463.182,1366.79 466.583,1366.64 469.985,1366.45 473.387,1366.24 476.788,1365.98 480.19,1365.68 483.592,1365.34 486.994,1364.94 
  490.395,1364.48 493.797,1363.96 497.199,1363.37 500.6,1362.68 504.002,1361.9 507.404,1361.01 510.805,1359.98 514.207,1358.79 517.609,1357.43 521.01,1355.85 
  524.412,1354.02 527.814,1351.9 531.216,1349.41 534.617,1346.5 538.019,1343.07 541.421,1339.01 544.822,1334.2 548.224,1328.46 551.626,1321.59 555.027,1313.32 
  558.429,1303.35 561.831,1291.28 565.233,1276.62 568.634,1258.79 572.036,1237.08 575.438,1210.68 578.839,1178.64 582.241,1139.98 585.643,1093.68 589.044,1038.9 
  592.446,975.092 595.848,902.317 599.249,821.457 602.651,734.429 606.053,644.207 609.455,554.599 612.856,469.769 616.258,393.619 619.66,329.213 623.061,278.428 
  626.463,241.889 629.865,219.149 633.266,209.002 636.668,209.81 640.07,219.778 643.472,237.148 646.873,260.313 650.275,287.869 653.677,318.634 657.078,351.634 
  660.48,386.08 663.882,421.344 667.283,456.934 670.685,492.465 674.087,527.642 677.488,562.241 680.89,596.095 684.292,629.082 687.694,661.114 691.095,692.134 
  694.497,722.103 697.899,751.004 701.3,778.828 704.702,805.58 708.104,831.272 711.505,855.921 714.907,879.551 718.309,902.187 721.711,923.857 725.112,944.591 
  728.514,964.421 731.916,983.377 735.317,1001.49 738.719,1018.8 742.121,1035.32 745.522,1051.1 748.924,1066.17 752.326,1080.54 755.727,1094.26 759.129,1107.35 
  762.531,1119.83 765.933,1131.74 769.334,1143.09 772.736,1153.92 776.138,1164.24 779.539,1174.08 782.941,1183.47 786.343,1192.41 789.744,1200.93 793.146,1209.06 
  796.548,1216.8 799.95,1224.18 803.351,1231.21 806.753,1237.91 810.155,1244.29 813.556,1250.38 816.958,1256.17 820.36,1261.69 823.761,1266.95 827.163,1271.96 
  830.565,1276.74 833.966,1281.29 837.368,1285.62 840.77,1289.74 844.172,1293.67 847.573,1297.42 850.975,1300.99 854.377,1304.38 857.778,1307.62 861.18,1310.7 
  864.582,1313.63 867.983,1316.43 871.385,1319.09 874.787,1321.62 878.188,1324.04 881.59,1326.34 884.992,1328.53 888.394,1330.61 891.795,1332.6 895.197,1334.49 
  898.599,1336.29 902,1338 905.402,1339.63 908.804,1341.18 912.205,1342.66 915.607,1344.07 919.009,1345.41 922.411,1346.69 925.812,1347.9 929.214,1349.05 
  932.616,1350.15 936.017,1351.2 939.419,1352.19 942.821,1353.14 946.222,1354.04 949.624,1354.89 953.026,1355.7 956.427,1356.48 959.829,1357.21 963.231,1357.91 
  966.633,1358.57 970.034,1359.2 973.436,1359.79 976.838,1360.36 980.239,1360.9 983.641,1361.4 987.043,1361.88 990.444,1362.34 993.846,1362.77 997.248,1363.17 
  1000.65,1363.56 1004.05,1363.92 1007.45,1364.25 1010.85,1364.57 1014.26,1364.87 1017.66,1365.14 1021.06,1365.4 1024.46,1365.64 1027.86,1365.86 1031.26,1366.07 
  1034.67,1366.25 1038.07,1366.42 1041.47,1366.57 1044.87,1366.71 1048.27,1366.82 1051.67,1366.92 1055.08,1367 1058.48,1367.07 1061.88,1367.11 1065.28,1367.14 
  1068.68,1367.14 1072.09,1367.13 1075.49,1367.09 1078.89,1367.04 1082.29,1366.96 1085.69,1366.85 1089.09,1366.71 1092.5,1366.55 1095.9,1366.35 1099.3,1366.12 
  1102.7,1365.85 1106.1,1365.53 1109.5,1365.17 1112.91,1364.75 1116.31,1364.27 1119.71,1363.72 1123.11,1363.1 1126.51,1362.38 1129.91,1361.56 1133.32,1360.61 
  1136.72,1359.53 1140.12,1358.28 1143.52,1356.84 1146.92,1355.17 1150.32,1353.24 1153.73,1350.98 1157.13,1348.35 1160.53,1345.25 1163.93,1341.6 1167.33,1337.28 
  1170.73,1332.15 1174.14,1326.02 1177.54,1318.66 1180.94,1309.81 1184.34,1299.11 1187.74,1286.15 1191.14,1270.4 1194.55,1251.23 1197.95,1227.91 1201.35,1199.56 
  1204.75,1165.22 1208.15,1123.89 1211.55,1074.6 1214.96,1016.6 1218.36,949.525 1221.76,873.714 1225.16,790.411 1228.56,701.925 1231.96,611.567 1235.37,523.335 
  1238.77,441.358 1242.17,369.283 1245.57,309.762 1248.97,264.204 1252.37,232.815 1255.78,214.836 1259.18,208.871 1262.58,213.202 1265.98,226.033 1269.38,245.654 
  1272.79,270.532 1276.19,299.344 1279.59,330.988 1282.99,364.56 1286.39,399.334 1289.79,434.735 1293.2,470.312 1296.6,505.716 1300,540.678 1303.4,574.998 
  1306.8,608.525 1310.2,641.151 1313.61,672.801 1317.01,703.423 1320.41,732.988 1323.81,761.48 1327.21,788.899 1330.61,815.249 1334.02,840.546 1337.42,864.81 
  1340.82,888.064 1344.22,910.334 1347.62,931.65 1351.02,952.043 1354.43,971.542 1357.83,990.18 1361.23,1007.99 1364.63,1025 1368.03,1041.25 1371.43,1056.76 
  1374.84,1071.56 1378.24,1085.69 1381.64,1099.17 1385.04,1112.03 1388.44,1124.29 1391.84,1135.99 1395.25,1147.15 1398.65,1157.78 1402.05,1167.93 1405.45,1177.59 
  1408.85,1186.81 1412.25,1195.6 1415.66,1203.97 1419.06,1211.95 1422.46,1219.56 1425.86,1226.8 1429.26,1233.71 1432.66,1240.29 1436.07,1246.56 1439.47,1252.54 
  1442.87,1258.23 1446.27,1263.65 1449.67,1268.82 1453.08,1273.74 1456.48,1278.43 1459.88,1282.9 1463.28,1287.15 1466.68,1291.2 1470.08,1295.07 1473.49,1298.74 
  1476.89,1302.24 1480.29,1305.58 1483.69,1308.76 1487.09,1311.78 1490.49,1314.67 1493.9,1317.41 1497.3,1320.03 1500.7,1322.52 1504.1,1324.89 1507.5,1327.15 
  1510.9,1329.3 1514.31,1331.34 1517.71,1333.29 1521.11,1335.15 1524.51,1336.92 1527.91,1338.6 1531.31,1340.2 1534.72,1341.73 1538.12,1343.18 1541.52,1344.56 
  1544.92,1345.87 1548.32,1347.13 1551.72,1348.32 1555.13,1349.45 1558.53,1350.53 1561.93,1351.56 1565.33,1352.53 1568.73,1353.46 1572.13,1354.34 1575.54,1355.18 
  1578.94,1355.98 1582.34,1356.74 1585.74,1357.46 1589.14,1358.14 1592.54,1358.79 1595.95,1359.41 1599.35,1359.99 1602.75,1360.55 1606.15,1361.07 1609.55,1361.57 
  1612.95,1362.04 1616.36,1362.49 1619.76,1362.91 1623.16,1363.3 1626.56,1363.68 1629.96,1364.03 1633.36,1364.36 1636.77,1364.67 1640.17,1364.96 1643.57,1365.23 
  1646.97,1365.48 1650.37,1365.71 1653.78,1365.92 1657.18,1366.12 1660.58,1366.3 1663.98,1366.46 1667.38,1366.6 1670.78,1366.73 1674.19,1366.84 1677.59,1366.93 
  1680.99,1367.01 1684.39,1367.06 1687.79,1367.1 1691.19,1367.12 1694.6,1367.12 1698,1367.09 1701.4,1367.05 1704.8,1366.98 1708.2,1366.89 1711.6,1366.77 
  1715.01,1366.62 1718.41,1366.45 1721.81,1366.23 1725.21,1365.99 1728.61,1365.7 1732.01,1365.36 1735.42,1364.97 1738.82,1364.53 1742.22,1364.02 1745.62,1363.44 
  1749.02,1362.77 1752.42,1362.01 1755.83,1361.14 1759.23,1360.14 1762.63,1358.98 1766.03,1357.66 1769.43,1356.12 1772.83,1354.35 1776.24,1352.28 1779.64,1349.87 
  1783.04,1347.05 1786.44,1343.73 1789.84,1339.81 1793.24,1335.15 1796.65,1329.62 1800.05,1322.99 1803.45,1315.03 1806.85,1305.44 1810.25,1293.84 1813.65,1279.75 
  1817.06,1262.64 1820.46,1241.8 1823.86,1216.46 1827.26,1185.7 1830.66,1148.54 1834.06,1103.97 1837.47,1051.1 1840.87,989.315 1844.27,918.52 1847.67,839.409 
  1851.07,753.667 1854.48,664.045 1857.88,574.19 1861.28,488.22 1864.68,410.128 1868.08,343.179 1871.48,289.511 1874.89,250.006 1878.29,224.426 1881.69,211.707 
  1885.09,210.286 1888.49,218.392 1891.89,234.254 1895.3,256.23 1898.7,282.877 1902.1,312.968 1905.5,345.487 1908.9,379.61 1912.3,414.677 1915.71,450.169 
  1919.11,485.681 1922.51,520.899 1925.91,555.586 1929.31,589.563 1932.71,622.7 1936.12,654.901 1939.52,686.103 1942.92,716.265 1946.32,745.362 1949.72,773.386 
  1953.12,800.338 1956.53,826.229 1959.93,851.076 1963.33,874.899 1966.73,897.724 1970.13,919.578 1973.53,940.492 1976.94,960.495 1980.34,979.619 1983.74,997.897 
  1987.14,1015.36 1990.54,1032.04 1993.94,1047.96 1997.35,1063.16 2000.75,1077.67 2004.15,1091.52 2007.55,1104.73 2010.95,1117.33 2014.35,1129.35 2017.76,1140.81 
  2021.16,1151.74 2024.56,1162.17 2027.96,1172.1 2031.36,1181.57 2034.76,1190.6 2038.17,1199.21 2041.57,1207.41 2044.97,1215.23 2048.37,1222.68 2051.77,1229.78 
  2055.18,1236.55 2058.58,1242.99 2061.98,1249.14 2065.38,1254.99 2068.78,1260.56 2072.18,1265.88 2075.59,1270.94 2078.99,1275.76 2082.39,1280.35 2085.79,1284.72 
  2089.19,1288.89 2092.59,1292.86 2096,1296.64 2099.4,1300.24 2102.8,1303.67 2106.2,1306.94 2109.6,1310.05 2113,1313.02 2116.41,1315.84 2119.81,1318.53 
  2123.21,1321.09 2126.61,1323.53 2130.01,1325.85 2133.41,1328.06 2136.82,1330.17 2140.22,1332.17 2143.62,1334.08 2147.02,1335.9 2150.42,1337.63 2153.82,1339.28 
  2157.23,1340.85 2160.63,1342.34 2164.03,1343.76 2167.43,1345.12 2170.83,1346.4 2174.23,1347.63 2177.64,1348.8 2181.04,1349.91 2184.44,1350.96 2187.84,1351.97 
  2191.24,1352.92 2194.64,1353.83 2198.05,1354.69 2201.45,1355.52 2204.85,1356.3 2208.25,1357.04 2211.65,1357.74 2215.05,1358.41 2218.46,1359.05 2221.86,1359.65 
  2225.26,1360.22 
  "/>
<polygon clip-path="url(#clip7501)" points="
1741.15,306.444 2156.14,306.444 2156.14,125.004 1741.15,125.004 
  " fill="#ffffff" fill-rule="evenodd" fill-opacity="1"/>
<polyline clip-path="url(#clip7501)" style="stroke:#000000; stroke-width:4; stroke-opacity:1; fill:none" points="
  1741.15,306.444 2156.14,306.444 2156.14,125.004 1741.15,125.004 1741.15,306.444 
  "/>
<polyline clip-path="url(#clip7501)" style="stroke:#008080; stroke-width:4; stroke-opacity:1; fill:none" points="
  1764.19,185.484 1902.43,185.484 
  "/>
<g clip-path="url(#clip7501)">
<text style="fill:#000000; fill-opacity:1; font-family:Arial,Helvetica Neue,Helvetica,sans-serif; font-size:48px; text-anchor:start;" transform="rotate(0, 1925.47, 202.984)" x="1925.47" y="202.984">Prey</text>
</g>
<polyline clip-path="url(#clip7501)" style="stroke:#800080; stroke-width:4; stroke-opacity:1; fill:none" points="
  1764.19,245.964 1902.43,245.964 
  "/>
<g clip-path="url(#clip7501)">
<text style="fill:#000000; fill-opacity:1; font-family:Arial,Helvetica Neue,Helvetica,sans-serif; font-size:48px; text-anchor:start;" transform="rotate(0, 1925.47, 263.464)" x="1925.47" y="263.464">Predator</text>
</g>
</svg>
