<?xml version="1.0" encoding="UTF-8"?>
<!DOCTYPE svg PUBLIC "-//W3C//DTD SVG 1.1//EN"
 "http://www.w3.org/Graphics/SVG/1.1/DTD/svg11.dtd">
<svg xmlns="http://www.w3.org/2000/svg" version="1.1"
     width="180mm" height="25mm" viewBox="0 0 100 1" stroke="none"
     preserveAspectRatio="none" shape-rendering="crispEdges">
<defs>
    <pattern id="pat_19sH9C" width=".2" height=".2"
             patternUnits="userSpaceOnUse" patternTransform="scale(13.889,1)" >
        <path d="M.1,0h.1v.1h-.2v.1h.1z" fill="#999" opacity=".5" />
    </pattern>
</defs>
<rect width="100" height="1" fill="url(#pat_19sH9C)" />
<path d="M1,.46V1h-1V.54z" fill="#FFFFFF" />
<path d="M0,0h1v1h-1z" fill="#FFFFFF" fill-opacity="1" />
<path d="M2,.46V1h-1V.54z" fill="#FFFFFF" />
<path d="M1,0h1v1h-1z" fill="#FFFFFF" fill-opacity="1" />
<path d="M3,.46V1h-1V.54z" fill="#FFFFFF" />
<path d="M2,0h1v1h-1z" fill="#FFFFFF" fill-opacity="1" />
<path d="M4,.46V1h-1V.54z" fill="#FFFFFF" />
<path d="M3,0h1v1h-1z" fill="#FFFFFF" fill-opacity="1" />
<path d="M5,.46V1h-1V.54z" fill="#FFFFFF" />
<path d="M4,0h1v1h-1z" fill="#FFFFFF" fill-opacity="1" />
<path d="M6,.46V1h-1V.54z" fill="#FFFFFF" />
<path d="M5,0h1v1h-1z" fill="#FFFFFF" fill-opacity="1" />
<path d="M7,.46V1h-1V.54z" fill="#FFFFFF" />
<path d="M6,0h1v1h-1z" fill="#FFFFFF" fill-opacity="1" />
<path d="M8,.46V1h-1V.54z" fill="#FFFFFF" />
<path d="M7,0h1v1h-1z" fill="#FFFFFF" fill-opacity="1" />
<path d="M9,.46V1h-1V.54z" fill="#FFFFFF" />
<path d="M8,0h1v1h-1z" fill="#FFFFFF" fill-opacity="1" />
<path d="M10,.46V1h-1V.54z" fill="#FFFFFF" />
<path d="M9,0h1v1h-1z" fill="#FFFFFF" fill-opacity="1" />
<path d="M11,.46V1h-1V.54z" fill="#FFFFFF" />
<path d="M10,0h1v1h-1z" fill="#FFFFFF" fill-opacity="1" />
<path d="M12,.46V1h-1V.54z" fill="#FFFFFF" />
<path d="M11,0h1v1h-1z" fill="#FFFFFF" fill-opacity="1" />
<path d="M13,.46V1h-1V.54z" fill="#FFFFFF" />
<path d="M12,0h1v1h-1z" fill="#FFFFFF" fill-opacity="1" />
<path d="M14,.46V1h-1V.54z" fill="#FFFFFF" />
<path d="M13,0h1v1h-1z" fill="#FFFFFF" fill-opacity="1" />
<path d="M15,.46V1h-1V.54z" fill="#FFFFFF" />
<path d="M14,0h1v1h-1z" fill="#FFFFFF" fill-opacity="1" />
<path d="M16,.46V1h-1V.54z" fill="#FFFFFF" />
<path d="M15,0h1v1h-1z" fill="#FFFFFF" fill-opacity="1" />
<path d="M17,.46V1h-1V.54z" fill="#FFFFFF" />
<path d="M16,0h1v1h-1z" fill="#FFFFFF" fill-opacity="1" />
<path d="M18,.46V1h-1V.54z" fill="#FFFFFF" />
<path d="M17,0h1v1h-1z" fill="#FFFFFF" fill-opacity="1" />
<path d="M19,.46V1h-1V.54z" fill="#FFFFFF" />
<path d="M18,0h1v1h-1z" fill="#FFFFFF" fill-opacity="1" />
<path d="M20,.46V1h-1V.54z" fill="#FFFFFF" />
<path d="M19,0h1v1h-1z" fill="#FFFFFF" fill-opacity="1" />
<path d="M21,.46V1h-1V.54z" fill="#FFFFFF" />
<path d="M20,0h1v1h-1z" fill="#FFFFFF" fill-opacity="1" />
<path d="M22,.46V1h-1V.54z" fill="#FFFFFF" />
<path d="M21,0h1v1h-1z" fill="#FFFFFF" fill-opacity="1" />
<path d="M23,.46V1h-1V.54z" fill="#FFFFFF" />
<path d="M22,0h1v1h-1z" fill="#FFFFFF" fill-opacity="1" />
<path d="M24,.46V1h-1V.54z" fill="#FFFFFF" />
<path d="M23,0h1v1h-1z" fill="#FFFFFF" fill-opacity="1" />
<path d="M25,.46V1h-1V.54z" fill="#FFFFFF" />
<path d="M24,0h1v1h-1z" fill="#FFFFFF" fill-opacity="1" />
<path d="M26,.46V1h-1V.54z" fill="#FFFFFF" />
<path d="M25,0h1v1h-1z" fill="#FFFFFF" fill-opacity="1" />
<path d="M27,.46V1h-1V.54z" fill="#FFFFFF" />
<path d="M26,0h1v1h-1z" fill="#FFFFFF" fill-opacity="1" />
<path d="M28,.46V1h-1V.54z" fill="#FFFFFF" />
<path d="M27,0h1v1h-1z" fill="#FFFFFF" fill-opacity="1" />
<path d="M29,.46V1h-1V.54z" fill="#FFFFFF" />
<path d="M28,0h1v1h-1z" fill="#FFFFFF" fill-opacity="1" />
<path d="M30,.46V1h-1V.54z" fill="#FFFFFF" />
<path d="M29,0h1v1h-1z" fill="#FFFFFF" fill-opacity="1" />
<path d="M31,.46V1h-1V.54z" fill="#FFFFFF" />
<path d="M30,0h1v1h-1z" fill="#FFFFFF" fill-opacity="1" />
<path d="M32,.46V1h-1V.54z" fill="#FFFFFF" />
<path d="M31,0h1v1h-1z" fill="#FFFFFF" fill-opacity="1" />
<path d="M33,.46V1h-1V.54z" fill="#FFFFFF" />
<path d="M32,0h1v1h-1z" fill="#FFFFFF" fill-opacity="1" />
<path d="M34,.46V1h-1V.54z" fill="#FFFFFF" />
<path d="M33,0h1v1h-1z" fill="#FFFFFF" fill-opacity="1" />
<path d="M35,.46V1h-1V.54z" fill="#FFA500" />
<path d="M34,0h1v1h-1z" fill="#FFA500" fill-opacity="1" />
<path d="M36,.46V1h-1V.54z" fill="#FFA500" />
<path d="M35,0h1v1h-1z" fill="#FFA500" fill-opacity="1" />
<path d="M37,.46V1h-1V.54z" fill="#FFA500" />
<path d="M36,0h1v1h-1z" fill="#FFA500" fill-opacity="1" />
<path d="M38,.46V1h-1V.54z" fill="#FFA500" />
<path d="M37,0h1v1h-1z" fill="#FFA500" fill-opacity="1" />
<path d="M39,.46V1h-1V.54z" fill="#FFA500" />
<path d="M38,0h1v1h-1z" fill="#FFA500" fill-opacity="1" />
<path d="M40,.46V1h-1V.54z" fill="#FFA500" />
<path d="M39,0h1v1h-1z" fill="#FFA500" fill-opacity="1" />
<path d="M41,.46V1h-1V.54z" fill="#FFA500" />
<path d="M40,0h1v1h-1z" fill="#FFA500" fill-opacity="1" />
<path d="M42,.46V1h-1V.54z" fill="#FFA500" />
<path d="M41,0h1v1h-1z" fill="#FFA500" fill-opacity="1" />
<path d="M43,.46V1h-1V.54z" fill="#FFA500" />
<path d="M42,0h1v1h-1z" fill="#FFA500" fill-opacity="1" />
<path d="M44,.46V1h-1V.54z" fill="#FFA500" />
<path d="M43,0h1v1h-1z" fill="#FFA500" fill-opacity="1" />
<path d="M45,.46V1h-1V.54z" fill="#FFA500" />
<path d="M44,0h1v1h-1z" fill="#FFA500" fill-opacity="1" />
<path d="M46,.46V1h-1V.54z" fill="#FFA500" />
<path d="M45,0h1v1h-1z" fill="#FFA500" fill-opacity="1" />
<path d="M47,.46V1h-1V.54z" fill="#FFA500" />
<path d="M46,0h1v1h-1z" fill="#FFA500" fill-opacity="1" />
<path d="M48,.46V1h-1V.54z" fill="#FFA500" />
<path d="M47,0h1v1h-1z" fill="#FFA500" fill-opacity="1" />
<path d="M49,.46V1h-1V.54z" fill="#FFA500" />
<path d="M48,0h1v1h-1z" fill="#FFA500" fill-opacity="1" />
<path d="M50,.46V1h-1V.54z" fill="#FFA500" />
<path d="M49,0h1v1h-1z" fill="#FFA500" fill-opacity="1" />
<path d="M51,.46V1h-1V.54z" fill="#FFA500" />
<path d="M50,0h1v1h-1z" fill="#FFA500" fill-opacity="1" />
<path d="M52,.46V1h-1V.54z" fill="#FFA500" />
<path d="M51,0h1v1h-1z" fill="#FFA500" fill-opacity="1" />
<path d="M53,.46V1h-1V.54z" fill="#FFA500" />
<path d="M52,0h1v1h-1z" fill="#FFA500" fill-opacity="1" />
<path d="M54,.46V1h-1V.54z" fill="#FFA500" />
<path d="M53,0h1v1h-1z" fill="#FFA500" fill-opacity="1" />
<path d="M55,.46V1h-1V.54z" fill="#FFA500" />
<path d="M54,0h1v1h-1z" fill="#FFA500" fill-opacity="1" />
<path d="M56,.46V1h-1V.54z" fill="#FFA500" />
<path d="M55,0h1v1h-1z" fill="#FFA500" fill-opacity="1" />
<path d="M57,.46V1h-1V.54z" fill="#FFA500" />
<path d="M56,0h1v1h-1z" fill="#FFA500" fill-opacity="1" />
<path d="M58,.46V1h-1V.54z" fill="#FFA500" />
<path d="M57,0h1v1h-1z" fill="#FFA500" fill-opacity="1" />
<path d="M59,.46V1h-1V.54z" fill="#FFA500" />
<path d="M58,0h1v1h-1z" fill="#FFA500" fill-opacity="1" />
<path d="M60,.46V1h-1V.54z" fill="#FFA500" />
<path d="M59,0h1v1h-1z" fill="#FFA500" fill-opacity="1" />
<path d="M61,.46V1h-1V.54z" fill="#FFA500" />
<path d="M60,0h1v1h-1z" fill="#FFA500" fill-opacity="1" />
<path d="M62,.46V1h-1V.54z" fill="#FFA500" />
<path d="M61,0h1v1h-1z" fill="#FFA500" fill-opacity="1" />
<path d="M63,.46V1h-1V.54z" fill="#FFA500" />
<path d="M62,0h1v1h-1z" fill="#FFA500" fill-opacity="1" />
<path d="M64,.46V1h-1V.54z" fill="#FFA500" />
<path d="M63,0h1v1h-1z" fill="#FFA500" fill-opacity="1" />
<path d="M65,.46V1h-1V.54z" fill="#FFA500" />
<path d="M64,0h1v1h-1z" fill="#FFA500" fill-opacity="1" />
<path d="M66,.46V1h-1V.54z" fill="#FFA500" />
<path d="M65,0h1v1h-1z" fill="#FFA500" fill-opacity="1" />
<path d="M67,.46V1h-1V.54z" fill="#FFA500" />
<path d="M66,0h1v1h-1z" fill="#FFA500" fill-opacity="1" />
<path d="M68,.46V1h-1V.54z" fill="#008000" />
<path d="M67,0h1v1h-1z" fill="#008000" fill-opacity="1" />
<path d="M69,.46V1h-1V.54z" fill="#008000" />
<path d="M68,0h1v1h-1z" fill="#008000" fill-opacity="1" />
<path d="M70,.46V1h-1V.54z" fill="#008000" />
<path d="M69,0h1v1h-1z" fill="#008000" fill-opacity="1" />
<path d="M71,.46V1h-1V.54z" fill="#008000" />
<path d="M70,0h1v1h-1z" fill="#008000" fill-opacity="1" />
<path d="M72,.46V1h-1V.54z" fill="#008000" />
<path d="M71,0h1v1h-1z" fill="#008000" fill-opacity="1" />
<path d="M73,.46V1h-1V.54z" fill="#008000" />
<path d="M72,0h1v1h-1z" fill="#008000" fill-opacity="1" />
<path d="M74,.46V1h-1V.54z" fill="#008000" />
<path d="M73,0h1v1h-1z" fill="#008000" fill-opacity="1" />
<path d="M75,.46V1h-1V.54z" fill="#008000" />
<path d="M74,0h1v1h-1z" fill="#008000" fill-opacity="1" />
<path d="M76,.46V1h-1V.54z" fill="#008000" />
<path d="M75,0h1v1h-1z" fill="#008000" fill-opacity="1" />
<path d="M77,.46V1h-1V.54z" fill="#008000" />
<path d="M76,0h1v1h-1z" fill="#008000" fill-opacity="1" />
<path d="M78,.46V1h-1V.54z" fill="#008000" />
<path d="M77,0h1v1h-1z" fill="#008000" fill-opacity="1" />
<path d="M79,.46V1h-1V.54z" fill="#008000" />
<path d="M78,0h1v1h-1z" fill="#008000" fill-opacity="1" />
<path d="M80,.46V1h-1V.54z" fill="#008000" />
<path d="M79,0h1v1h-1z" fill="#008000" fill-opacity="1" />
<path d="M81,.46V1h-1V.54z" fill="#008000" />
<path d="M80,0h1v1h-1z" fill="#008000" fill-opacity="1" />
<path d="M82,.46V1h-1V.54z" fill="#008000" />
<path d="M81,0h1v1h-1z" fill="#008000" fill-opacity="1" />
<path d="M83,.46V1h-1V.54z" fill="#008000" />
<path d="M82,0h1v1h-1z" fill="#008000" fill-opacity="1" />
<path d="M84,.46V1h-1V.54z" fill="#008000" />
<path d="M83,0h1v1h-1z" fill="#008000" fill-opacity="1" />
<path d="M85,.46V1h-1V.54z" fill="#008000" />
<path d="M84,0h1v1h-1z" fill="#008000" fill-opacity="1" />
<path d="M86,.46V1h-1V.54z" fill="#008000" />
<path d="M85,0h1v1h-1z" fill="#008000" fill-opacity="1" />
<path d="M87,.46V1h-1V.54z" fill="#008000" />
<path d="M86,0h1v1h-1z" fill="#008000" fill-opacity="1" />
<path d="M88,.46V1h-1V.54z" fill="#008000" />
<path d="M87,0h1v1h-1z" fill="#008000" fill-opacity="1" />
<path d="M89,.46V1h-1V.54z" fill="#008000" />
<path d="M88,0h1v1h-1z" fill="#008000" fill-opacity="1" />
<path d="M90,.46V1h-1V.54z" fill="#008000" />
<path d="M89,0h1v1h-1z" fill="#008000" fill-opacity="1" />
<path d="M91,.46V1h-1V.54z" fill="#008000" />
<path d="M90,0h1v1h-1z" fill="#008000" fill-opacity="1" />
<path d="M92,.46V1h-1V.54z" fill="#008000" />
<path d="M91,0h1v1h-1z" fill="#008000" fill-opacity="1" />
<path d="M93,.46V1h-1V.54z" fill="#008000" />
<path d="M92,0h1v1h-1z" fill="#008000" fill-opacity="1" />
<path d="M94,.46V1h-1V.54z" fill="#008000" />
<path d="M93,0h1v1h-1z" fill="#008000" fill-opacity="1" />
<path d="M95,.46V1h-1V.54z" fill="#008000" />
<path d="M94,0h1v1h-1z" fill="#008000" fill-opacity="1" />
<path d="M96,.46V1h-1V.54z" fill="#008000" />
<path d="M95,0h1v1h-1z" fill="#008000" fill-opacity="1" />
<path d="M97,.46V1h-1V.54z" fill="#008000" />
<path d="M96,0h1v1h-1z" fill="#008000" fill-opacity="1" />
<path d="M98,.46V1h-1V.54z" fill="#008000" />
<path d="M97,0h1v1h-1z" fill="#008000" fill-opacity="1" />
<path d="M99,.46V1h-1V.54z" fill="#008000" />
<path d="M98,0h1v1h-1z" fill="#008000" fill-opacity="1" />
<path d="M100,.46V1h-1V.54z" fill="#008000" />
<path d="M99,0h1v1h-1z" fill="#008000" fill-opacity="1" />
</svg>