<?xml version="1.0" encoding="UTF-8"?>
<svg xmlns="http://www.w3.org/2000/svg" xmlns:xlink="http://www.w3.org/1999/xlink" width="500pt" height="500pt" viewBox="0 0 500 500" version="1.1">
<g id="surface421">
<path style=" stroke:none;fill-rule:nonzero;fill:rgb(25.882353%,58.039216%,58.823529%);fill-opacity:1;" d="M 232.570312 449.238281 L 176.789062 444.050781 L 153.875 441.113281 L 136.546875 438.046875 L 122.246094 434.613281 L 109.992188 430.722656 L 99.300781 426.324219 L 89.886719 421.375 L 81.570312 415.84375 L 74.238281 409.691406 L 67.804688 402.882812 L 62.214844 395.363281 L 57.429688 387.074219 L 53.425781 377.921875 L 50.1875 367.792969 L 47.710938 356.496094 L 46.007812 343.757812 L 45.109375 329.074219 L 45.097656 311.480469 L 46.1875 288.402344 L 50.761719 232.570312 L 55.949219 176.789062 L 58.886719 153.875 L 61.953125 136.546875 L 65.386719 122.246094 L 69.277344 109.992188 L 73.675781 99.300781 L 78.625 89.886719 L 84.15625 81.570312 L 90.308594 74.238281 L 97.117188 67.804688 L 104.636719 62.214844 L 112.925781 57.429688 L 122.078125 53.425781 L 132.207031 50.1875 L 143.503906 47.710938 L 156.242188 46.007812 L 170.925781 45.109375 L 188.519531 45.097656 L 211.597656 46.1875 L 267.429688 50.761719 L 323.210938 55.949219 L 346.125 58.886719 L 363.453125 61.953125 L 377.753906 65.386719 L 390.007812 69.277344 L 400.699219 73.675781 L 410.113281 78.625 L 418.429688 84.15625 L 425.761719 90.308594 L 432.195312 97.117188 L 437.785156 104.636719 L 442.570312 112.925781 L 446.574219 122.078125 L 449.8125 132.207031 L 452.289062 143.503906 L 453.992188 156.242188 L 454.890625 170.925781 L 454.902344 188.519531 L 453.8125 211.597656 L 449.238281 267.429688 L 444.050781 323.210938 L 441.113281 346.125 L 438.046875 363.453125 L 434.613281 377.753906 L 430.722656 390.007812 L 426.324219 400.699219 L 421.375 410.113281 L 415.84375 418.429688 L 409.691406 425.761719 L 402.882812 432.195312 L 395.363281 437.785156 L 387.074219 442.570312 L 377.921875 446.574219 L 367.792969 449.8125 L 356.496094 452.289062 L 343.757812 453.992188 L 329.074219 454.890625 L 311.480469 454.902344 L 288.402344 453.8125 Z M 232.570312 449.238281 "/>
<path style=" stroke:none;fill-rule:nonzero;fill:rgb(25.882353%,58.039216%,58.823529%);fill-opacity:1;" d="M 68.738281 334.523438 L 45.34375 283.621094 L 36.425781 262.308594 L 30.421875 245.769531 L 26.242188 231.667969 L 23.484375 219.113281 L 21.949219 207.652344 L 21.527344 197.023438 L 22.160156 187.058594 L 23.820312 177.628906 L 26.503906 168.652344 L 30.21875 160.054688 L 35.007812 151.765625 L 40.929688 143.722656 L 48.082031 135.851562 L 56.625 128.0625 L 66.808594 120.214844 L 79.074219 112.097656 L 94.304688 103.289062 L 114.835938 92.695312 L 165.476562 68.738281 L 216.378906 45.34375 L 237.691406 36.425781 L 254.230469 30.421875 L 268.332031 26.242188 L 280.886719 23.484375 L 292.347656 21.949219 L 302.976562 21.527344 L 312.941406 22.160156 L 322.371094 23.820312 L 331.347656 26.503906 L 339.945312 30.21875 L 348.234375 35.007812 L 356.277344 40.929688 L 364.148438 48.082031 L 371.9375 56.625 L 379.785156 66.808594 L 387.902344 79.074219 L 396.710938 94.304688 L 407.304688 114.835938 L 431.261719 165.476562 L 454.65625 216.378906 L 463.574219 237.691406 L 469.578125 254.230469 L 473.757812 268.332031 L 476.515625 280.886719 L 478.050781 292.347656 L 478.472656 302.976562 L 477.839844 312.941406 L 476.179688 322.371094 L 473.496094 331.347656 L 469.78125 339.945312 L 464.992188 348.234375 L 459.070312 356.277344 L 451.917969 364.148438 L 443.375 371.9375 L 433.191406 379.785156 L 420.925781 387.902344 L 405.695312 396.710938 L 385.164062 407.304688 L 334.523438 431.261719 L 283.621094 454.65625 L 262.308594 463.574219 L 245.769531 469.578125 L 231.667969 473.757812 L 219.113281 476.515625 L 207.652344 478.050781 L 197.023438 478.472656 L 187.058594 477.839844 L 177.628906 476.179688 L 168.652344 473.496094 L 160.054688 469.78125 L 151.765625 464.992188 L 143.722656 459.070312 L 135.851562 451.917969 L 128.0625 443.375 L 120.214844 433.191406 L 112.097656 420.925781 L 103.289062 405.695312 L 92.695312 385.164062 Z M 68.738281 334.523438 "/>
<path style="fill:none;stroke-width:2;stroke-linecap:butt;stroke-linejoin:miter;stroke:rgb(100%,100%,100%);stroke-opacity:1;stroke-miterlimit:10;" d="M 199.199219 218.246094 C 197.152344 211.941406 200.601562 205.171875 206.90625 203.125 C 213.207031 201.074219 219.976562 204.523438 222.027344 210.828125 C 224.074219 217.132812 220.625 223.902344 214.320312 225.949219 C 208.019531 227.996094 201.25 224.546875 199.199219 218.246094 "/>
<path style="fill:none;stroke-width:2;stroke-linecap:butt;stroke-linejoin:miter;stroke:rgb(100%,100%,100%);stroke-opacity:1;stroke-miterlimit:10;" d="M 249.605469 201.867188 C 247.558594 195.5625 251.007812 188.792969 257.3125 186.746094 C 263.613281 184.699219 270.382812 188.148438 272.433594 194.449219 C 274.480469 200.753906 271.03125 207.523438 264.726562 209.570312 C 258.425781 211.617188 251.65625 208.167969 249.605469 201.867188 "/>
<path style="fill:none;stroke-width:2;stroke-linecap:butt;stroke-linejoin:miter;stroke:rgb(100%,100%,100%);stroke-opacity:1;stroke-miterlimit:10;" d="M 288.992188 237.332031 C 286.945312 231.027344 290.394531 224.257812 296.699219 222.210938 C 303 220.160156 309.769531 223.609375 311.820312 229.914062 C 313.867188 236.21875 310.417969 242.988281 304.113281 245.035156 C 297.8125 247.082031 291.042969 243.632812 288.992188 237.332031 "/>
<path style="fill:none;stroke-width:2;stroke-linecap:butt;stroke-linejoin:miter;stroke:rgb(100%,100%,100%);stroke-opacity:1;stroke-miterlimit:10;" d="M 277.972656 289.171875 C 275.925781 282.867188 279.375 276.097656 285.679688 274.050781 C 291.980469 272.003906 298.75 275.453125 300.800781 281.753906 C 302.847656 288.058594 299.398438 294.828125 293.09375 296.875 C 286.792969 298.925781 280.023438 295.476562 277.972656 289.171875 "/>
<path style="fill:none;stroke-width:2;stroke-linecap:butt;stroke-linejoin:miter;stroke:rgb(100%,100%,100%);stroke-opacity:1;stroke-miterlimit:10;" d="M 227.566406 305.550781 C 225.519531 299.246094 228.96875 292.476562 235.273438 290.429688 C 241.574219 288.382812 248.34375 291.832031 250.394531 298.132812 C 252.441406 304.4375 248.992188 311.207031 242.6875 313.253906 C 236.386719 315.300781 229.617188 311.851562 227.566406 305.550781 "/>
<path style="fill:none;stroke-width:2;stroke-linecap:butt;stroke-linejoin:miter;stroke:rgb(100%,100%,100%);stroke-opacity:1;stroke-miterlimit:10;" d="M 188.179688 270.085938 C 186.132812 263.78125 189.582031 257.011719 195.886719 254.964844 C 202.1875 252.917969 208.957031 256.367188 211.007812 262.667969 C 213.054688 268.972656 209.605469 275.742188 203.300781 277.789062 C 197 279.839844 190.230469 276.390625 188.179688 270.085938 "/>
<path style="fill:none;stroke-width:2;stroke-linecap:butt;stroke-linejoin:miter;stroke:rgb(100%,100%,100%);stroke-opacity:1;stroke-miterlimit:10;" d="M 208.023438 191.339844 C 208.234375 185.269531 213.328125 180.519531 219.398438 180.730469 C 225.46875 180.945312 230.21875 186.039062 230.007812 192.109375 C 229.796875 198.179688 224.703125 202.929688 218.632812 202.71875 C 212.558594 202.507812 207.808594 197.414062 208.023438 191.339844 "/>
<path style="fill:none;stroke-width:2;stroke-linecap:butt;stroke-linejoin:miter;stroke:rgb(100%,100%,100%);stroke-opacity:1;stroke-miterlimit:10;" d="M 273.980469 193.644531 C 274.195312 187.574219 279.289062 182.824219 285.359375 183.035156 C 291.429688 183.246094 296.179688 188.339844 295.96875 194.414062 C 295.757812 200.484375 290.664062 205.234375 284.589844 205.023438 C 278.519531 204.808594 273.769531 199.714844 273.980469 193.644531 "/>
<path style="fill:none;stroke-width:2;stroke-linecap:butt;stroke-linejoin:miter;stroke:rgb(100%,100%,100%);stroke-opacity:1;stroke-miterlimit:10;" d="M 304.964844 251.917969 C 305.179688 245.847656 310.273438 241.097656 316.34375 241.308594 C 322.414062 241.523438 327.164062 246.617188 326.953125 252.6875 C 326.742188 258.757812 321.648438 263.507812 315.574219 263.296875 C 309.503906 263.085938 304.753906 257.992188 304.964844 251.917969 "/>
<path style="fill:none;stroke-width:2;stroke-linecap:butt;stroke-linejoin:miter;stroke:rgb(100%,100%,100%);stroke-opacity:1;stroke-miterlimit:10;" d="M 269.992188 307.890625 C 270.203125 301.820312 275.296875 297.070312 281.367188 297.28125 C 287.441406 297.492188 292.191406 302.585938 291.976562 308.660156 C 291.765625 314.730469 286.671875 319.480469 280.601562 319.269531 C 274.53125 319.054688 269.78125 313.960938 269.992188 307.890625 "/>
<path style="fill:none;stroke-width:2;stroke-linecap:butt;stroke-linejoin:miter;stroke:rgb(100%,100%,100%);stroke-opacity:1;stroke-miterlimit:10;" d="M 204.03125 305.585938 C 204.242188 299.515625 209.335938 294.765625 215.410156 294.976562 C 221.480469 295.191406 226.230469 300.285156 226.019531 306.355469 C 225.804688 312.425781 220.710938 317.175781 214.640625 316.964844 C 208.570312 316.753906 203.820312 311.660156 204.03125 305.585938 "/>
<path style="fill:none;stroke-width:2;stroke-linecap:butt;stroke-linejoin:miter;stroke:rgb(100%,100%,100%);stroke-opacity:1;stroke-miterlimit:10;" d="M 173.046875 247.3125 C 173.257812 241.242188 178.351562 236.492188 184.425781 236.703125 C 190.496094 236.914062 195.246094 242.007812 195.035156 248.082031 C 194.820312 254.152344 189.726562 258.902344 183.65625 258.691406 C 177.585938 258.476562 172.835938 253.382812 173.046875 247.3125 "/>
<path style="fill:none;stroke-width:2;stroke-linecap:butt;stroke-linejoin:miter;stroke:rgb(100%,100%,100%);stroke-opacity:1;stroke-miterlimit:10;" d="M 244.277344 165.75 C 247.203125 161.066406 253.371094 159.640625 258.054688 162.566406 C 262.738281 165.496094 264.164062 171.664062 261.238281 176.347656 C 258.3125 181.03125 252.140625 182.457031 247.457031 179.527344 C 242.773438 176.601562 241.351562 170.433594 244.277344 165.75 "/>
<path style="fill:none;stroke-width:2;stroke-linecap:butt;stroke-linejoin:miter;stroke:rgb(100%,100%,100%);stroke-opacity:1;stroke-miterlimit:10;" d="M 311.273438 207.613281 C 314.199219 202.929688 320.367188 201.503906 325.050781 204.429688 C 329.734375 207.359375 331.160156 213.527344 328.234375 218.210938 C 325.308594 222.894531 319.136719 224.320312 314.453125 221.390625 C 309.769531 218.464844 308.347656 212.296875 311.273438 207.613281 "/>
<path style="fill:none;stroke-width:2;stroke-linecap:butt;stroke-linejoin:miter;stroke:rgb(100%,100%,100%);stroke-opacity:1;stroke-miterlimit:10;" d="M 308.515625 286.5625 C 311.441406 281.878906 317.613281 280.457031 322.296875 283.382812 C 326.980469 286.308594 328.402344 292.480469 325.476562 297.164062 C 322.550781 301.847656 316.378906 303.269531 311.695312 300.34375 C 307.011719 297.417969 305.589844 291.25 308.515625 286.5625 "/>
<path style="fill:none;stroke-width:2;stroke-linecap:butt;stroke-linejoin:miter;stroke:rgb(100%,100%,100%);stroke-opacity:1;stroke-miterlimit:10;" d="M 238.761719 323.652344 C 241.6875 318.96875 247.859375 317.542969 252.542969 320.472656 C 257.226562 323.398438 258.648438 329.566406 255.722656 334.25 C 252.796875 338.933594 246.628906 340.359375 241.945312 337.433594 C 237.261719 334.503906 235.835938 328.335938 238.761719 323.652344 "/>
<path style="fill:none;stroke-width:2;stroke-linecap:butt;stroke-linejoin:miter;stroke:rgb(100%,100%,100%);stroke-opacity:1;stroke-miterlimit:10;" d="M 171.765625 281.789062 C 174.691406 277.105469 180.863281 275.679688 185.546875 278.609375 C 190.230469 281.535156 191.652344 287.703125 188.726562 292.386719 C 185.800781 297.070312 179.632812 298.496094 174.949219 295.570312 C 170.265625 292.640625 168.839844 286.472656 171.765625 281.789062 "/>
<path style="fill:none;stroke-width:2;stroke-linecap:butt;stroke-linejoin:miter;stroke:rgb(100%,100%,100%);stroke-opacity:1;stroke-miterlimit:10;" d="M 174.523438 202.835938 C 177.449219 198.152344 183.621094 196.730469 188.304688 199.65625 C 192.988281 202.582031 194.410156 208.75 191.484375 213.4375 C 188.558594 218.121094 182.386719 219.542969 177.703125 216.617188 C 173.019531 213.691406 171.597656 207.519531 174.523438 202.835938 "/>
<path style="fill:none;stroke-width:2;stroke-linecap:butt;stroke-linejoin:miter;stroke:rgb(100%,100%,100%);stroke-opacity:1;stroke-miterlimit:10;" d="M 308.777344 173.070312 C 313.507812 171.535156 318.582031 174.121094 320.121094 178.847656 C 321.65625 183.578125 319.070312 188.652344 314.339844 190.191406 C 309.613281 191.726562 304.535156 189.140625 303 184.410156 C 301.464844 179.683594 304.050781 174.605469 308.777344 173.070312 "/>
<path style="fill:none;stroke-width:2;stroke-linecap:butt;stroke-linejoin:miter;stroke:rgb(100%,100%,100%);stroke-opacity:1;stroke-miterlimit:10;" d="M 337.207031 260.570312 C 341.9375 259.03125 347.011719 261.621094 348.550781 266.347656 C 350.085938 271.074219 347.496094 276.152344 342.769531 277.6875 C 338.042969 279.222656 332.964844 276.636719 331.429688 271.910156 C 329.894531 267.183594 332.480469 262.105469 337.207031 260.570312 "/>
<path style="fill:none;stroke-width:2;stroke-linecap:butt;stroke-linejoin:miter;stroke:rgb(100%,100%,100%);stroke-opacity:1;stroke-miterlimit:10;" d="M 275.648438 328.9375 C 280.375 327.402344 285.453125 329.988281 286.988281 334.714844 C 288.523438 339.441406 285.9375 344.519531 281.210938 346.058594 C 276.484375 347.59375 271.40625 345.003906 269.871094 340.277344 C 268.335938 335.550781 270.921875 330.472656 275.648438 328.9375 "/>
<path style="fill:none;stroke-width:2;stroke-linecap:butt;stroke-linejoin:miter;stroke:rgb(100%,100%,100%);stroke-opacity:1;stroke-miterlimit:10;" d="M 185.660156 309.808594 C 190.386719 308.273438 195.464844 310.859375 197 315.589844 C 198.535156 320.316406 195.949219 325.394531 191.222656 326.929688 C 186.492188 328.464844 181.417969 325.878906 179.878906 321.152344 C 178.34375 316.421875 180.929688 311.347656 185.660156 309.808594 "/>
<path style="fill:none;stroke-width:2;stroke-linecap:butt;stroke-linejoin:miter;stroke:rgb(100%,100%,100%);stroke-opacity:1;stroke-miterlimit:10;" d="M 157.230469 222.3125 C 161.957031 220.777344 167.035156 223.363281 168.570312 228.089844 C 170.105469 232.816406 167.519531 237.894531 162.792969 239.429688 C 158.0625 240.96875 152.988281 238.378906 151.449219 233.652344 C 149.914062 228.925781 152.503906 223.847656 157.230469 222.3125 "/>
<path style="fill:none;stroke-width:2;stroke-linecap:butt;stroke-linejoin:miter;stroke:rgb(100%,100%,100%);stroke-opacity:1;stroke-miterlimit:10;" d="M 218.789062 153.941406 C 223.515625 152.40625 228.59375 154.996094 230.128906 159.722656 C 231.664062 164.449219 229.078125 169.527344 224.351562 171.0625 C 219.625 172.597656 214.546875 170.011719 213.011719 165.285156 C 211.476562 160.558594 214.0625 155.480469 218.789062 153.941406 "/>
<path style="fill:none;stroke-width:2;stroke-linecap:butt;stroke-linejoin:miter;stroke:rgb(100%,100%,100%);stroke-opacity:1;stroke-miterlimit:10;" d="M 359.175781 246.878906 C 362.921875 249.222656 364.0625 254.15625 361.71875 257.902344 C 359.378906 261.652344 354.445312 262.789062 350.695312 260.449219 C 346.949219 258.109375 345.808594 253.171875 348.152344 249.425781 C 350.492188 245.679688 355.429688 244.539062 359.175781 246.878906 "/>
<path style="fill:none;stroke-width:2;stroke-linecap:butt;stroke-linejoin:miter;stroke:rgb(100%,100%,100%);stroke-opacity:1;stroke-miterlimit:10;" d="M 303.535156 335.925781 C 307.28125 338.265625 308.421875 343.203125 306.078125 346.949219 C 303.738281 350.695312 298.800781 351.835938 295.054688 349.492188 C 291.308594 347.152344 290.167969 342.21875 292.511719 338.46875 C 294.851562 334.722656 299.785156 333.582031 303.535156 335.925781 "/>
<path style="fill:none;stroke-width:2;stroke-linecap:butt;stroke-linejoin:miter;stroke:rgb(100%,100%,100%);stroke-opacity:1;stroke-miterlimit:10;" d="M 198.597656 332.261719 C 202.34375 334.601562 203.484375 339.539062 201.144531 343.285156 C 198.800781 347.03125 193.867188 348.171875 190.117188 345.828125 C 186.371094 343.488281 185.234375 338.550781 187.574219 334.804688 C 189.914062 331.058594 194.851562 329.917969 198.597656 332.261719 "/>
<path style="fill:none;stroke-width:2;stroke-linecap:butt;stroke-linejoin:miter;stroke:rgb(100%,100%,100%);stroke-opacity:1;stroke-miterlimit:10;" d="M 149.304688 239.550781 C 153.050781 241.890625 154.191406 246.828125 151.847656 250.574219 C 149.507812 254.320312 144.570312 255.460938 140.824219 253.121094 C 137.078125 250.777344 135.9375 245.84375 138.28125 242.097656 C 140.621094 238.347656 145.554688 237.210938 149.304688 239.550781 "/>
<path style="fill:none;stroke-width:2;stroke-linecap:butt;stroke-linejoin:miter;stroke:rgb(100%,100%,100%);stroke-opacity:1;stroke-miterlimit:10;" d="M 204.945312 150.507812 C 208.691406 152.847656 209.832031 157.78125 207.488281 161.53125 C 205.148438 165.277344 200.214844 166.417969 196.464844 164.074219 C 192.71875 161.734375 191.578125 156.796875 193.921875 153.050781 C 196.261719 149.304688 201.199219 148.164062 204.945312 150.507812 "/>
<path style="fill:none;stroke-width:2;stroke-linecap:butt;stroke-linejoin:miter;stroke:rgb(100%,100%,100%);stroke-opacity:1;stroke-miterlimit:10;" d="M 309.882812 154.171875 C 313.628906 156.511719 314.765625 161.449219 312.425781 165.195312 C 310.085938 168.941406 305.148438 170.082031 301.402344 167.738281 C 297.65625 165.398438 296.515625 160.460938 298.855469 156.714844 C 301.199219 152.96875 306.132812 151.828125 309.882812 154.171875 "/>
<path style="fill:none;stroke-width:2;stroke-linecap:butt;stroke-linejoin:miter;stroke:rgb(100%,100%,100%);stroke-opacity:1;stroke-miterlimit:10;" d="M 312.394531 354.433594 C 312.257812 358.296875 309.015625 361.320312 305.152344 361.183594 C 301.289062 361.046875 298.265625 357.808594 298.402344 353.945312 C 298.535156 350.078125 301.777344 347.058594 305.640625 347.191406 C 309.503906 347.328125 312.527344 350.570312 312.394531 354.433594 "/>
<path style="fill:none;stroke-width:2;stroke-linecap:butt;stroke-linejoin:miter;stroke:rgb(100%,100%,100%);stroke-opacity:1;stroke-miterlimit:10;" d="M 194.464844 350.3125 C 194.332031 354.175781 191.089844 357.199219 187.226562 357.066406 C 183.363281 356.929688 180.339844 353.6875 180.472656 349.824219 C 180.609375 345.960938 183.851562 342.9375 187.714844 343.074219 C 191.578125 343.207031 194.601562 346.449219 194.464844 350.3125 "/>
<path style="fill:none;stroke-width:2;stroke-linecap:butt;stroke-linejoin:miter;stroke:rgb(100%,100%,100%);stroke-opacity:1;stroke-miterlimit:10;" d="M 139.066406 246.125 C 138.933594 249.988281 135.691406 253.011719 131.828125 252.878906 C 127.964844 252.742188 124.941406 249.5 125.074219 245.636719 C 125.210938 241.773438 128.453125 238.75 132.316406 238.886719 C 136.179688 239.019531 139.203125 242.261719 139.066406 246.125 "/>
<path style="fill:none;stroke-width:2;stroke-linecap:butt;stroke-linejoin:miter;stroke:rgb(100%,100%,100%);stroke-opacity:1;stroke-miterlimit:10;" d="M 201.597656 146.054688 C 201.464844 149.921875 198.222656 152.941406 194.359375 152.808594 C 190.496094 152.671875 187.472656 149.429688 187.605469 145.566406 C 187.742188 141.703125 190.984375 138.679688 194.847656 138.816406 C 198.710938 138.953125 201.734375 142.191406 201.597656 146.054688 "/>
<path style="fill:none;stroke-width:2;stroke-linecap:butt;stroke-linejoin:miter;stroke:rgb(100%,100%,100%);stroke-opacity:1;stroke-miterlimit:10;" d="M 319.527344 150.175781 C 319.390625 154.039062 316.148438 157.0625 312.285156 156.925781 C 308.421875 156.792969 305.398438 153.550781 305.535156 149.6875 C 305.667969 145.824219 308.910156 142.800781 312.773438 142.933594 C 316.636719 143.070312 319.660156 146.3125 319.527344 150.175781 "/>
<path style="fill:none;stroke-width:2;stroke-linecap:butt;stroke-linejoin:miter;stroke:rgb(100%,100%,100%);stroke-opacity:1;stroke-miterlimit:10;" d="M 374.925781 254.363281 C 374.789062 258.226562 371.546875 261.25 367.683594 261.113281 C 363.820312 260.980469 360.796875 257.738281 360.933594 253.875 C 361.066406 250.011719 364.308594 246.988281 368.171875 247.121094 C 372.035156 247.257812 375.058594 250.5 374.925781 254.363281 "/>
<path style="fill:none;stroke-width:2;stroke-linecap:butt;stroke-linejoin:miter;stroke:rgb(100%,100%,100%);stroke-opacity:1;stroke-miterlimit:10;" d="M 164.199219 353.058594 C 161.046875 354.082031 157.660156 352.359375 156.636719 349.207031 C 155.613281 346.054688 157.339844 342.667969 160.488281 341.644531 C 163.640625 340.621094 167.027344 342.347656 168.050781 345.496094 C 169.074219 348.648438 167.347656 352.035156 164.199219 353.058594 "/>
<path style="fill:none;stroke-width:2;stroke-linecap:butt;stroke-linejoin:miter;stroke:rgb(100%,100%,100%);stroke-opacity:1;stroke-miterlimit:10;" d="M 123.714844 228.46875 C 120.566406 229.492188 117.179688 227.769531 116.15625 224.617188 C 115.132812 221.464844 116.855469 218.082031 120.007812 217.058594 C 123.160156 216.035156 126.546875 217.757812 127.570312 220.910156 C 128.59375 224.0625 126.867188 227.445312 123.714844 228.46875 "/>
<path style="fill:none;stroke-width:2;stroke-linecap:butt;stroke-linejoin:miter;stroke:rgb(100%,100%,100%);stroke-opacity:1;stroke-miterlimit:10;" d="M 211.371094 131.117188 C 208.222656 132.140625 204.835938 130.417969 203.8125 127.265625 C 202.789062 124.113281 204.511719 120.730469 207.664062 119.707031 C 210.816406 118.679688 214.199219 120.40625 215.226562 123.558594 C 216.25 126.710938 214.523438 130.09375 211.371094 131.117188 "/>
<path style="fill:none;stroke-width:2;stroke-linecap:butt;stroke-linejoin:miter;stroke:rgb(100%,100%,100%);stroke-opacity:1;stroke-miterlimit:10;" d="M 339.511719 158.355469 C 336.359375 159.378906 332.972656 157.652344 331.949219 154.503906 C 330.925781 151.351562 332.652344 147.964844 335.800781 146.941406 C 338.953125 145.917969 342.339844 147.640625 343.363281 150.792969 C 344.386719 153.945312 342.660156 157.332031 339.511719 158.355469 "/>
<path style="fill:none;stroke-width:2;stroke-linecap:butt;stroke-linejoin:miter;stroke:rgb(100%,100%,100%);stroke-opacity:1;stroke-miterlimit:10;" d="M 379.992188 282.941406 C 376.839844 283.964844 373.453125 282.242188 372.429688 279.089844 C 371.40625 275.9375 373.132812 272.554688 376.285156 271.53125 C 379.433594 270.507812 382.820312 272.230469 383.84375 275.382812 C 384.867188 278.535156 383.144531 281.917969 379.992188 282.941406 "/>
<path style="fill:none;stroke-width:2;stroke-linecap:butt;stroke-linejoin:miter;stroke:rgb(100%,100%,100%);stroke-opacity:1;stroke-miterlimit:10;" d="M 292.335938 380.292969 C 289.183594 381.320312 285.800781 379.59375 284.773438 376.441406 C 283.75 373.289062 285.476562 369.90625 288.628906 368.882812 C 291.777344 367.859375 295.164062 369.582031 296.1875 372.734375 C 297.210938 375.886719 295.488281 379.269531 292.335938 380.292969 "/>
<path style="fill:none;stroke-width:2;stroke-linecap:butt;stroke-linejoin:miter;stroke:rgb(100%,100%,100%);stroke-opacity:1;stroke-miterlimit:10;" d="M 123.464844 176.039062 C 120.335938 170.152344 129.164062 165.457031 132.296875 171.34375 C 135.425781 177.230469 126.597656 181.925781 123.464844 176.039062 "/>
<path style="fill:none;stroke-width:2;stroke-linecap:butt;stroke-linejoin:miter;stroke:rgb(100%,100%,100%);stroke-opacity:1;stroke-miterlimit:10;" d="M 250.609375 108.433594 C 247.480469 102.546875 256.308594 97.855469 259.441406 103.742188 C 262.570312 109.625 253.742188 114.320312 250.609375 108.433594 "/>
<path style="fill:none;stroke-width:2;stroke-linecap:butt;stroke-linejoin:miter;stroke:rgb(100%,100%,100%);stroke-opacity:1;stroke-miterlimit:10;" d="M 372.730469 184.742188 C 369.601562 178.855469 378.429688 174.164062 381.558594 180.046875 C 384.6875 185.933594 375.859375 190.628906 372.730469 184.742188 "/>
<path style="fill:none;stroke-width:2;stroke-linecap:butt;stroke-linejoin:miter;stroke:rgb(100%,100%,100%);stroke-opacity:1;stroke-miterlimit:10;" d="M 367.703125 328.65625 C 364.574219 322.769531 373.402344 318.074219 376.535156 323.960938 C 379.664062 329.847656 370.835938 334.542969 367.703125 328.65625 "/>
<path style="fill:none;stroke-width:2;stroke-linecap:butt;stroke-linejoin:miter;stroke:rgb(100%,100%,100%);stroke-opacity:1;stroke-miterlimit:10;" d="M 240.558594 396.257812 C 237.429688 390.375 246.257812 385.679688 249.390625 391.566406 C 252.519531 397.453125 243.691406 402.144531 240.558594 396.257812 "/>
<path style="fill:none;stroke-width:2;stroke-linecap:butt;stroke-linejoin:miter;stroke:rgb(100%,100%,100%);stroke-opacity:1;stroke-miterlimit:10;" d="M 118.441406 319.953125 C 115.3125 314.066406 124.140625 309.371094 127.269531 315.257812 C 130.398438 321.144531 121.570312 325.835938 118.441406 319.953125 "/>
<path style="fill:none;stroke-width:2;stroke-linecap:butt;stroke-linejoin:miter;stroke:rgb(100%,100%,100%);stroke-opacity:1;stroke-miterlimit:10;" d="M 331.320312 113.324219 C 336.027344 110.820312 339.785156 117.882812 335.074219 120.386719 C 330.367188 122.890625 326.609375 115.828125 331.320312 113.324219 "/>
<path style="fill:none;stroke-width:2;stroke-linecap:butt;stroke-linejoin:miter;stroke:rgb(100%,100%,100%);stroke-opacity:1;stroke-miterlimit:10;" d="M 405.027344 251.949219 C 409.734375 249.445312 413.492188 256.507812 408.78125 259.011719 C 404.074219 261.515625 400.316406 254.453125 405.027344 251.949219 "/>
<path style="fill:none;stroke-width:2;stroke-linecap:butt;stroke-linejoin:miter;stroke:rgb(100%,100%,100%);stroke-opacity:1;stroke-miterlimit:10;" d="M 321.828125 385.089844 C 326.539062 382.585938 330.292969 389.652344 325.585938 392.15625 C 320.875 394.660156 317.121094 387.59375 321.828125 385.089844 "/>
<path style="fill:none;stroke-width:2;stroke-linecap:butt;stroke-linejoin:miter;stroke:rgb(100%,100%,100%);stroke-opacity:1;stroke-miterlimit:10;" d="M 164.925781 379.613281 C 169.632812 377.109375 173.390625 384.171875 168.679688 386.675781 C 163.972656 389.179688 160.214844 382.117188 164.925781 379.613281 "/>
<path style="fill:none;stroke-width:2;stroke-linecap:butt;stroke-linejoin:miter;stroke:rgb(100%,100%,100%);stroke-opacity:1;stroke-miterlimit:10;" d="M 91.21875 240.988281 C 95.925781 238.484375 99.683594 245.546875 94.972656 248.050781 C 90.265625 250.554688 86.507812 243.492188 91.21875 240.988281 "/>
<path style="fill:none;stroke-width:2;stroke-linecap:butt;stroke-linejoin:miter;stroke:rgb(100%,100%,100%);stroke-opacity:1;stroke-miterlimit:10;" d="M 174.414062 107.84375 C 179.125 105.339844 182.878906 112.40625 178.171875 114.910156 C 173.460938 117.414062 169.707031 110.347656 174.414062 107.84375 "/>
<path style="fill:none;stroke-width:2;stroke-linecap:butt;stroke-linejoin:miter;stroke:rgb(100%,100%,100%);stroke-opacity:1;stroke-miterlimit:10;" d="M 379.1875 362.824219 C 380.425781 366.628906 374.71875 368.484375 373.480469 364.679688 C 372.246094 360.875 377.953125 359.019531 379.1875 362.824219 "/>
<path style="fill:none;stroke-width:2;stroke-linecap:butt;stroke-linejoin:miter;stroke:rgb(100%,100%,100%);stroke-opacity:1;stroke-miterlimit:10;" d="M 217.507812 415.359375 C 218.746094 419.164062 213.039062 421.015625 211.800781 417.210938 C 210.566406 413.40625 216.273438 411.554688 217.507812 415.359375 "/>
<path style="fill:none;stroke-width:2;stroke-linecap:butt;stroke-linejoin:miter;stroke:rgb(100%,100%,100%);stroke-opacity:1;stroke-miterlimit:10;" d="M 91.171875 301.605469 C 92.410156 305.410156 86.703125 307.265625 85.46875 303.460938 C 84.230469 299.65625 89.9375 297.800781 91.171875 301.605469 "/>
<path style="fill:none;stroke-width:2;stroke-linecap:butt;stroke-linejoin:miter;stroke:rgb(100%,100%,100%);stroke-opacity:1;stroke-miterlimit:10;" d="M 126.519531 135.320312 C 127.753906 139.125 122.046875 140.980469 120.8125 137.175781 C 119.574219 133.371094 125.28125 131.515625 126.519531 135.320312 "/>
<path style="fill:none;stroke-width:2;stroke-linecap:butt;stroke-linejoin:miter;stroke:rgb(100%,100%,100%);stroke-opacity:1;stroke-miterlimit:10;" d="M 288.199219 82.789062 C 289.433594 86.59375 283.726562 88.445312 282.492188 84.640625 C 281.253906 80.835938 286.960938 78.984375 288.199219 82.789062 "/>
<path style="fill:none;stroke-width:2;stroke-linecap:butt;stroke-linejoin:miter;stroke:rgb(100%,100%,100%);stroke-opacity:1;stroke-miterlimit:10;" d="M 414.53125 196.539062 C 415.769531 200.34375 410.0625 202.199219 408.828125 198.394531 C 407.589844 194.589844 413.296875 192.734375 414.53125 196.539062 "/>
<path style="fill:none;stroke-width:2;stroke-linecap:butt;stroke-linejoin:miter;stroke:rgb(100%,100%,100%);stroke-opacity:1;stroke-miterlimit:10;" d="M 88.351562 337.910156 C 85.6875 337.820312 85.824219 333.820312 88.492188 333.914062 C 91.15625 334.007812 91.015625 338.003906 88.351562 337.910156 "/>
<path style="fill:none;stroke-width:2;stroke-linecap:butt;stroke-linejoin:miter;stroke:rgb(100%,100%,100%);stroke-opacity:1;stroke-miterlimit:10;" d="M 94.738281 155.023438 C 92.074219 154.929688 92.210938 150.933594 94.878906 151.027344 C 97.542969 151.117188 97.402344 155.117188 94.738281 155.023438 "/>
<path style="fill:none;stroke-width:2;stroke-linecap:butt;stroke-linejoin:miter;stroke:rgb(100%,100%,100%);stroke-opacity:1;stroke-miterlimit:10;" d="M 256.316406 69.109375 C 253.652344 69.015625 253.792969 65.019531 256.457031 65.113281 C 259.121094 65.207031 258.980469 69.203125 256.316406 69.109375 "/>
<path style="fill:none;stroke-width:2;stroke-linecap:butt;stroke-linejoin:miter;stroke:rgb(100%,100%,100%);stroke-opacity:1;stroke-miterlimit:10;" d="M 411.507812 166.085938 C 408.84375 165.992188 408.984375 161.996094 411.648438 162.089844 C 414.3125 162.179688 414.175781 166.179688 411.507812 166.085938 "/>
<path style="fill:none;stroke-width:2;stroke-linecap:butt;stroke-linejoin:miter;stroke:rgb(100%,100%,100%);stroke-opacity:1;stroke-miterlimit:10;" d="M 405.121094 348.972656 C 402.457031 348.882812 402.597656 344.882812 405.261719 344.976562 C 407.925781 345.070312 407.789062 349.066406 405.121094 348.972656 "/>
<path style="fill:none;stroke-width:2;stroke-linecap:butt;stroke-linejoin:miter;stroke:rgb(100%,100%,100%);stroke-opacity:1;stroke-miterlimit:10;" d="M 243.542969 434.886719 C 240.878906 434.792969 241.019531 430.796875 243.683594 430.890625 C 246.347656 430.984375 246.207031 434.980469 243.542969 434.886719 "/>
<path style="fill:none;stroke-width:2;stroke-linecap:butt;stroke-linejoin:miter;stroke:rgb(100%,100%,100%);stroke-opacity:1;stroke-miterlimit:10;" d="M 255.992188 53.589844 C 256.699219 52.457031 258.394531 53.519531 257.6875 54.648438 C 256.980469 55.78125 255.285156 54.71875 255.992188 53.589844 "/>
<path style="fill:none;stroke-width:2;stroke-linecap:butt;stroke-linejoin:miter;stroke:rgb(100%,100%,100%);stroke-opacity:1;stroke-miterlimit:10;" d="M 422.210938 157.453125 C 422.917969 156.324219 424.613281 157.382812 423.90625 158.511719 C 423.199219 159.644531 421.503906 158.585938 422.210938 157.453125 "/>
<path style="fill:none;stroke-width:2;stroke-linecap:butt;stroke-linejoin:miter;stroke:rgb(100%,100%,100%);stroke-opacity:1;stroke-miterlimit:10;" d="M 415.371094 353.335938 C 416.074219 352.203125 417.773438 353.261719 417.066406 354.394531 C 416.359375 355.523438 414.664062 354.464844 415.371094 353.335938 "/>
<path style="fill:none;stroke-width:2;stroke-linecap:butt;stroke-linejoin:miter;stroke:rgb(100%,100%,100%);stroke-opacity:1;stroke-miterlimit:10;" d="M 242.3125 445.351562 C 243.019531 444.21875 244.714844 445.28125 244.007812 446.410156 C 243.300781 447.542969 241.605469 446.480469 242.3125 445.351562 "/>
<path style="fill:none;stroke-width:2;stroke-linecap:butt;stroke-linejoin:miter;stroke:rgb(100%,100%,100%);stroke-opacity:1;stroke-miterlimit:10;" d="M 76.09375 341.488281 C 76.800781 340.355469 78.496094 341.414062 77.789062 342.546875 C 77.082031 343.675781 75.386719 342.617188 76.09375 341.488281 "/>
<path style="fill:none;stroke-width:2;stroke-linecap:butt;stroke-linejoin:miter;stroke:rgb(100%,100%,100%);stroke-opacity:1;stroke-miterlimit:10;" d="M 82.933594 145.605469 C 83.640625 144.476562 85.335938 145.535156 84.628906 146.664062 C 83.925781 147.796875 82.226562 146.738281 82.933594 145.605469 "/>
</g>
</svg>
