<?xml version="1.0" encoding="UTF-8"?>
<svg xmlns="http://www.w3.org/2000/svg" xmlns:xlink="http://www.w3.org/1999/xlink" width="500pt" height="500pt" viewBox="0 0 500 500" version="1.1">
<g id="surface6">
<path style=" stroke:none;fill-rule:nonzero;fill:rgb(5.882353%,42.352941%,38.039216%);fill-opacity:1;" d="M 405.882812 340 L 351.691406 433.644531 L 343.394531 447.34375 L 337.734375 456.027344 L 333.167969 462.355469 L 329.167969 467.226562 L 325.476562 471.058594 L 321.949219 474.082031 L 318.488281 476.433594 L 315.019531 478.195312 L 311.472656 479.417969 L 307.789062 480.132812 L 303.902344 480.339844 L 299.730469 480.035156 L 295.164062 479.179688 L 290.050781 477.707031 L 284.152344 475.488281 L 277.035156 472.292969 L 267.789062 467.601562 L 253.753906 459.886719 L 160.089844 405.9375 L 66.355469 351.691406 L 52.65625 343.394531 L 43.972656 337.734375 L 37.644531 333.167969 L 32.773438 329.167969 L 28.941406 325.476562 L 25.917969 321.949219 L 23.566406 318.488281 L 21.804688 315.019531 L 20.582031 311.472656 L 19.867188 307.789062 L 19.660156 303.902344 L 19.964844 299.730469 L 20.820312 295.164062 L 22.292969 290.050781 L 24.511719 284.152344 L 27.707031 277.035156 L 32.398438 267.789062 L 40.113281 253.753906 L 94.054688 160.101562 L 148.308594 66.355469 L 156.605469 52.65625 L 162.265625 43.972656 L 166.832031 37.644531 L 170.832031 32.773438 L 174.523438 28.941406 L 178.050781 25.917969 L 181.511719 23.566406 L 184.980469 21.804688 L 188.527344 20.582031 L 192.210938 19.867188 L 196.097656 19.660156 L 200.269531 19.964844 L 204.835938 20.820312 L 209.949219 22.292969 L 215.847656 24.511719 L 222.964844 27.707031 L 232.210938 32.398438 L 246.246094 40.113281 L 339.890625 94.050781 L 433.644531 148.308594 L 447.34375 156.605469 L 456.027344 162.265625 L 462.355469 166.832031 L 467.226562 170.832031 L 471.058594 174.523438 L 474.082031 178.050781 L 476.433594 181.511719 L 478.195312 184.980469 L 479.417969 188.527344 L 480.132812 192.210938 L 480.339844 196.097656 L 480.035156 200.269531 L 479.179688 204.835938 L 477.707031 209.949219 L 475.488281 215.847656 L 472.292969 222.964844 L 467.601562 232.210938 L 459.886719 246.246094 L 405.953125 339.882812 Z M 405.882812 340 "/>
<path style=" stroke:none;fill-rule:nonzero;fill:rgb(5.882353%,42.352941%,38.039216%);fill-opacity:1;" d="M 340 405.882812 L 246.246094 459.886719 L 232.210938 467.601562 L 222.964844 472.292969 L 215.847656 475.488281 L 209.949219 477.707031 L 204.835938 479.179688 L 200.269531 480.035156 L 196.097656 480.339844 L 192.210938 480.132812 L 188.527344 479.417969 L 184.980469 478.195312 L 181.511719 476.433594 L 178.050781 474.082031 L 174.523438 471.058594 L 170.832031 467.226562 L 166.832031 462.355469 L 162.265625 456.027344 L 156.605469 447.34375 L 148.308594 433.644531 L 94.167969 340.089844 L 40.113281 246.246094 L 32.398438 232.210938 L 27.707031 222.964844 L 24.511719 215.847656 L 22.292969 209.949219 L 20.820312 204.835938 L 19.964844 200.269531 L 19.660156 196.097656 L 19.867188 192.210938 L 20.582031 188.527344 L 21.804688 184.980469 L 23.566406 181.511719 L 25.917969 178.050781 L 28.941406 174.523438 L 32.773438 170.832031 L 37.644531 166.832031 L 43.972656 162.265625 L 52.65625 156.605469 L 66.355469 148.308594 L 159.898438 94.175781 L 253.753906 40.113281 L 267.789062 32.398438 L 277.035156 27.707031 L 284.152344 24.511719 L 290.050781 22.292969 L 295.164062 20.820312 L 299.730469 19.964844 L 303.902344 19.660156 L 307.789062 19.867188 L 311.472656 20.582031 L 315.019531 21.804688 L 318.488281 23.566406 L 321.949219 25.917969 L 325.476562 28.941406 L 329.167969 32.773438 L 333.167969 37.644531 L 337.734375 43.972656 L 343.394531 52.65625 L 351.691406 66.355469 L 405.820312 159.890625 L 459.886719 253.753906 L 467.601562 267.789062 L 472.292969 277.035156 L 475.488281 284.152344 L 477.707031 290.050781 L 479.179688 295.164062 L 480.035156 299.730469 L 480.339844 303.902344 L 480.132812 307.789062 L 479.417969 311.472656 L 478.195312 315.019531 L 476.433594 318.488281 L 474.082031 321.949219 L 471.058594 325.476562 L 467.226562 329.167969 L 462.355469 333.167969 L 456.027344 337.734375 L 447.34375 343.394531 L 433.644531 351.691406 L 340.117188 405.816406 Z M 340 405.882812 "/>
<path style=" stroke:none;fill-rule:nonzero;fill:rgb(5.882353%,42.352941%,38.039216%);fill-opacity:1;" d="M 250 430 L 141.804688 429.890625 L 125.796875 429.554688 L 115.441406 428.992188 L 107.679688 428.203125 L 101.460938 427.171875 L 96.296875 425.894531 L 91.914062 424.351562 L 88.148438 422.53125 L 84.886719 420.40625 L 82.054688 417.945312 L 79.59375 415.113281 L 77.46875 411.851562 L 75.648438 408.085938 L 74.105469 403.703125 L 72.828125 398.539062 L 71.796875 392.320312 L 71.007812 384.558594 L 70.445312 374.203125 L 70.109375 358.195312 L 70 250.101562 L 70.109375 141.804688 L 70.445312 125.796875 L 71.007812 115.441406 L 71.796875 107.679688 L 72.828125 101.460938 L 74.105469 96.296875 L 75.648438 91.914062 L 77.46875 88.148438 L 79.59375 84.886719 L 82.054688 82.054688 L 84.886719 79.59375 L 88.148438 77.46875 L 91.914062 75.648438 L 96.296875 74.105469 L 101.460938 72.828125 L 107.679688 71.796875 L 115.441406 71.007812 L 125.796875 70.445312 L 141.804688 70.109375 L 249.882812 70 L 358.195312 70.109375 L 374.203125 70.445312 L 384.558594 71.007812 L 392.320312 71.796875 L 398.539062 72.828125 L 403.703125 74.105469 L 408.085938 75.648438 L 411.851562 77.46875 L 415.113281 79.59375 L 417.945312 82.054688 L 420.40625 84.886719 L 422.53125 88.148438 L 424.351562 91.914062 L 425.894531 96.296875 L 427.171875 101.460938 L 428.203125 107.679688 L 428.992188 115.441406 L 429.554688 125.796875 L 429.890625 141.804688 L 430 249.871094 L 429.890625 358.195312 L 429.554688 374.203125 L 428.992188 384.558594 L 428.203125 392.320312 L 427.171875 398.539062 L 425.894531 403.703125 L 424.351562 408.085938 L 422.53125 411.851562 L 420.40625 415.113281 L 417.945312 417.945312 L 415.113281 420.40625 L 411.851562 422.53125 L 408.085938 424.351562 L 403.703125 425.894531 L 398.539062 427.171875 L 392.320312 428.203125 L 384.558594 428.992188 L 374.203125 429.554688 L 358.195312 429.890625 L 250.136719 430 Z M 250 430 "/>
<path style=" stroke:none;fill-rule:nonzero;fill:rgb(5.882353%,42.352941%,38.039216%);fill-opacity:1;" d="M 160 405.882812 L 66.355469 351.691406 L 52.65625 343.394531 L 43.972656 337.734375 L 37.644531 333.167969 L 32.773438 329.167969 L 28.941406 325.476562 L 25.917969 321.949219 L 23.566406 318.488281 L 21.804688 315.019531 L 20.582031 311.472656 L 19.867188 307.789062 L 19.660156 303.902344 L 19.964844 299.730469 L 20.820312 295.164062 L 22.292969 290.050781 L 24.511719 284.152344 L 27.707031 277.035156 L 32.398438 267.789062 L 40.113281 253.753906 L 94.0625 160.089844 L 148.308594 66.355469 L 156.605469 52.65625 L 162.265625 43.972656 L 166.832031 37.644531 L 170.832031 32.773438 L 174.523438 28.941406 L 178.050781 25.917969 L 181.511719 23.566406 L 184.980469 21.804688 L 188.527344 20.582031 L 192.210938 19.867188 L 196.097656 19.660156 L 200.269531 19.964844 L 204.835938 20.820312 L 209.949219 22.292969 L 215.847656 24.511719 L 222.964844 27.707031 L 232.210938 32.398438 L 246.246094 40.113281 L 339.898438 94.054688 L 433.644531 148.308594 L 447.34375 156.605469 L 456.027344 162.265625 L 462.355469 166.832031 L 467.226562 170.832031 L 471.058594 174.523438 L 474.082031 178.050781 L 476.433594 181.511719 L 478.195312 184.980469 L 479.417969 188.527344 L 480.132812 192.210938 L 480.339844 196.097656 L 480.035156 200.269531 L 479.179688 204.835938 L 477.707031 209.949219 L 475.488281 215.847656 L 472.292969 222.964844 L 467.601562 232.210938 L 459.886719 246.246094 L 405.949219 339.890625 L 351.691406 433.644531 L 343.394531 447.34375 L 337.734375 456.027344 L 333.167969 462.355469 L 329.167969 467.226562 L 325.476562 471.058594 L 321.949219 474.082031 L 318.488281 476.433594 L 315.019531 478.195312 L 311.472656 479.417969 L 307.789062 480.132812 L 303.902344 480.339844 L 299.730469 480.035156 L 295.164062 479.179688 L 290.050781 477.707031 L 284.152344 475.488281 L 277.035156 472.292969 L 267.789062 467.601562 L 253.753906 459.886719 L 160.117188 405.953125 Z M 160 405.882812 "/>
<path style=" stroke:none;fill-rule:nonzero;fill:rgb(5.882353%,42.352941%,38.039216%);fill-opacity:1;" d="M 94.117188 340 L 40.113281 246.246094 L 32.398438 232.210938 L 27.707031 222.964844 L 24.511719 215.847656 L 22.292969 209.949219 L 20.820312 204.835938 L 19.964844 200.269531 L 19.660156 196.097656 L 19.867188 192.210938 L 20.582031 188.527344 L 21.804688 184.980469 L 23.566406 181.511719 L 25.917969 178.050781 L 28.941406 174.523438 L 32.773438 170.832031 L 37.644531 166.832031 L 43.972656 162.265625 L 52.65625 156.605469 L 66.355469 148.308594 L 159.910156 94.167969 L 253.753906 40.113281 L 267.789062 32.398438 L 277.035156 27.707031 L 284.152344 24.511719 L 290.050781 22.292969 L 295.164062 20.820312 L 299.730469 19.964844 L 303.902344 19.660156 L 307.789062 19.867188 L 311.472656 20.582031 L 315.019531 21.804688 L 318.488281 23.566406 L 321.949219 25.917969 L 325.476562 28.941406 L 329.167969 32.773438 L 333.167969 37.644531 L 337.734375 43.972656 L 343.394531 52.65625 L 351.691406 66.355469 L 405.824219 159.898438 L 459.886719 253.753906 L 467.601562 267.789062 L 472.292969 277.035156 L 475.488281 284.152344 L 477.707031 290.050781 L 479.179688 295.164062 L 480.035156 299.730469 L 480.339844 303.902344 L 480.132812 307.789062 L 479.417969 311.472656 L 478.195312 315.019531 L 476.433594 318.488281 L 474.082031 321.949219 L 471.058594 325.476562 L 467.226562 329.167969 L 462.355469 333.167969 L 456.027344 337.734375 L 447.34375 343.394531 L 433.644531 351.691406 L 340.109375 405.820312 L 246.246094 459.886719 L 232.210938 467.601562 L 222.964844 472.292969 L 215.847656 475.488281 L 209.949219 477.707031 L 204.835938 479.179688 L 200.269531 480.035156 L 196.097656 480.339844 L 192.210938 480.132812 L 188.527344 479.417969 L 184.980469 478.195312 L 181.511719 476.433594 L 178.050781 474.082031 L 174.523438 471.058594 L 170.832031 467.226562 L 166.832031 462.355469 L 162.265625 456.027344 L 156.605469 447.34375 L 148.308594 433.644531 L 94.183594 340.117188 Z M 94.117188 340 "/>
<path style=" stroke:none;fill-rule:nonzero;fill:rgb(5.882353%,42.352941%,38.039216%);fill-opacity:1;" d="M 70 250 L 70.109375 141.804688 L 70.445312 125.796875 L 71.007812 115.441406 L 71.796875 107.679688 L 72.828125 101.460938 L 74.105469 96.296875 L 75.648438 91.914062 L 77.46875 88.148438 L 79.59375 84.886719 L 82.054688 82.054688 L 84.886719 79.59375 L 88.148438 77.46875 L 91.914062 75.648438 L 96.296875 74.105469 L 101.460938 72.828125 L 107.679688 71.796875 L 115.441406 71.007812 L 125.796875 70.445312 L 141.804688 70.109375 L 249.898438 70 L 358.195312 70.109375 L 374.203125 70.445312 L 384.558594 71.007812 L 392.320312 71.796875 L 398.539062 72.828125 L 403.703125 74.105469 L 408.085938 75.648438 L 411.851562 77.46875 L 415.113281 79.59375 L 417.945312 82.054688 L 420.40625 84.886719 L 422.53125 88.148438 L 424.351562 91.914062 L 425.894531 96.296875 L 427.171875 101.460938 L 428.203125 107.679688 L 428.992188 115.441406 L 429.554688 125.796875 L 429.890625 141.804688 L 430 249.882812 L 429.890625 358.195312 L 429.554688 374.203125 L 428.992188 384.558594 L 428.203125 392.320312 L 427.171875 398.539062 L 425.894531 403.703125 L 424.351562 408.085938 L 422.53125 411.851562 L 420.40625 415.113281 L 417.945312 417.945312 L 415.113281 420.40625 L 411.851562 422.53125 L 408.085938 424.351562 L 403.703125 425.894531 L 398.539062 427.171875 L 392.320312 428.203125 L 384.558594 428.992188 L 374.203125 429.554688 L 358.195312 429.890625 L 250.128906 430 L 141.804688 429.890625 L 125.796875 429.554688 L 115.441406 428.992188 L 107.679688 428.203125 L 101.460938 427.171875 L 96.296875 425.894531 L 91.914062 424.351562 L 88.148438 422.53125 L 84.886719 420.40625 L 82.054688 417.945312 L 79.59375 415.113281 L 77.46875 411.851562 L 75.648438 408.085938 L 74.105469 403.703125 L 72.828125 398.539062 L 71.796875 392.320312 L 71.007812 384.558594 L 70.445312 374.203125 L 70.109375 358.195312 L 70 250.136719 Z M 70 250 "/>
<path style=" stroke:none;fill-rule:nonzero;fill:rgb(100%,100%,100%);fill-opacity:1;" d="M 198.933594 213.183594 C 199.105469 209.875 201.929688 207.335938 205.238281 207.507812 C 208.546875 207.679688 211.089844 210.503906 210.917969 213.8125 C 210.742188 217.121094 207.921875 219.664062 204.613281 219.492188 C 201.300781 219.316406 198.761719 216.496094 198.933594 213.183594 "/>
<path style=" stroke:none;fill-rule:nonzero;fill:rgb(100%,100%,100%);fill-opacity:1;" d="M 228.996094 193.664062 C 229.171875 190.351562 231.992188 187.8125 235.300781 187.984375 C 238.613281 188.15625 241.152344 190.980469 240.980469 194.289062 C 240.808594 197.597656 237.984375 200.140625 234.675781 199.96875 C 231.367188 199.792969 228.824219 196.972656 228.996094 193.664062 "/>
<path style=" stroke:none;fill-rule:nonzero;fill:rgb(100%,100%,100%);fill-opacity:1;" d="M 264.792969 195.539062 C 264.96875 192.230469 267.789062 189.6875 271.097656 189.859375 C 274.410156 190.035156 276.949219 192.855469 276.777344 196.167969 C 276.605469 199.476562 273.78125 202.015625 270.472656 201.84375 C 267.164062 201.671875 264.621094 198.847656 264.792969 195.539062 "/>
<path style=" stroke:none;fill-rule:nonzero;fill:rgb(100%,100%,100%);fill-opacity:1;" d="M 292.652344 218.097656 C 292.824219 214.789062 295.648438 212.246094 298.957031 212.417969 C 302.265625 212.59375 304.808594 215.414062 304.632812 218.726562 C 304.460938 222.035156 301.636719 224.574219 298.328125 224.402344 C 295.019531 224.230469 292.476562 221.40625 292.652344 218.097656 "/>
<path style=" stroke:none;fill-rule:nonzero;fill:rgb(100%,100%,100%);fill-opacity:1;" d="M 301.929688 252.722656 C 302.101562 249.414062 304.925781 246.871094 308.234375 247.042969 C 311.542969 247.21875 314.085938 250.039062 313.914062 253.347656 C 313.738281 256.660156 310.914062 259.199219 307.605469 259.027344 C 304.296875 258.855469 301.753906 256.03125 301.929688 252.722656 "/>
<path style=" stroke:none;fill-rule:nonzero;fill:rgb(100%,100%,100%);fill-opacity:1;" d="M 289.082031 286.1875 C 289.257812 282.878906 292.078125 280.335938 295.386719 280.507812 C 298.699219 280.683594 301.238281 283.503906 301.066406 286.816406 C 300.894531 290.125 298.070312 292.664062 294.761719 292.492188 C 291.453125 292.320312 288.910156 289.496094 289.082031 286.1875 "/>
<path style=" stroke:none;fill-rule:nonzero;fill:rgb(100%,100%,100%);fill-opacity:1;" d="M 259.019531 305.710938 C 259.191406 302.402344 262.015625 299.859375 265.324219 300.03125 C 268.632812 300.207031 271.175781 303.027344 271.003906 306.335938 C 270.828125 309.648438 268.007812 312.1875 264.699219 312.015625 C 261.386719 311.84375 258.847656 309.019531 259.019531 305.710938 "/>
<path style=" stroke:none;fill-rule:nonzero;fill:rgb(100%,100%,100%);fill-opacity:1;" d="M 223.222656 303.832031 C 223.394531 300.523438 226.21875 297.984375 229.527344 298.15625 C 232.835938 298.328125 235.378906 301.152344 235.207031 304.460938 C 235.03125 307.769531 232.210938 310.3125 228.902344 310.140625 C 225.589844 309.964844 223.050781 307.144531 223.222656 303.832031 "/>
<path style=" stroke:none;fill-rule:nonzero;fill:rgb(100%,100%,100%);fill-opacity:1;" d="M 195.367188 281.273438 C 195.539062 277.964844 198.363281 275.425781 201.671875 275.597656 C 204.980469 275.769531 207.523438 278.59375 207.347656 281.902344 C 207.175781 285.210938 204.351562 287.753906 201.042969 287.582031 C 197.734375 287.40625 195.191406 284.585938 195.367188 281.273438 "/>
<path style=" stroke:none;fill-rule:nonzero;fill:rgb(100%,100%,100%);fill-opacity:1;" d="M 186.085938 246.652344 C 186.261719 243.339844 189.085938 240.800781 192.394531 240.972656 C 195.703125 241.144531 198.246094 243.96875 198.070312 247.277344 C 197.898438 250.585938 195.074219 253.128906 191.765625 252.957031 C 188.457031 252.78125 185.914062 249.960938 186.085938 246.652344 "/>
<path style=" stroke:none;fill-rule:nonzero;fill:rgb(100%,100%,100%);fill-opacity:1;" d="M 190.332031 195.320312 C 190.851562 192.046875 193.925781 189.816406 197.199219 190.332031 C 200.472656 190.851562 202.703125 193.925781 202.1875 197.199219 C 201.667969 200.472656 198.59375 202.703125 195.320312 202.1875 C 192.046875 201.667969 189.816406 198.59375 190.332031 195.320312 "/>
<path style=" stroke:none;fill-rule:nonzero;fill:rgb(100%,100%,100%);fill-opacity:1;" d="M 232.183594 173.996094 C 232.703125 170.722656 235.777344 168.492188 239.050781 169.007812 C 242.324219 169.527344 244.554688 172.601562 244.039062 175.875 C 243.519531 179.148438 240.445312 181.378906 237.171875 180.863281 C 233.898438 180.34375 231.667969 177.269531 232.183594 173.996094 "/>
<path style=" stroke:none;fill-rule:nonzero;fill:rgb(100%,100%,100%);fill-opacity:1;" d="M 278.578125 181.34375 C 279.09375 178.070312 282.167969 175.839844 285.441406 176.355469 C 288.714844 176.875 290.949219 179.949219 290.429688 183.222656 C 289.910156 186.496094 286.835938 188.726562 283.566406 188.210938 C 280.292969 187.691406 278.058594 184.617188 278.578125 181.34375 "/>
<path style=" stroke:none;fill-rule:nonzero;fill:rgb(100%,100%,100%);fill-opacity:1;" d="M 311.789062 214.558594 C 312.308594 211.285156 315.382812 209.050781 318.65625 209.570312 C 321.929688 210.089844 324.160156 213.164062 323.644531 216.433594 C 323.125 219.707031 320.050781 221.941406 316.777344 221.421875 C 313.503906 220.90625 311.273438 217.832031 311.789062 214.558594 "/>
<path style=" stroke:none;fill-rule:nonzero;fill:rgb(100%,100%,100%);fill-opacity:1;" d="M 319.136719 260.949219 C 319.65625 257.675781 322.730469 255.445312 326.003906 255.960938 C 329.277344 256.480469 331.507812 259.554688 330.992188 262.828125 C 330.472656 266.101562 327.398438 268.332031 324.125 267.816406 C 320.851562 267.296875 318.621094 264.222656 319.136719 260.949219 "/>
<path style=" stroke:none;fill-rule:nonzero;fill:rgb(100%,100%,100%);fill-opacity:1;" d="M 297.8125 302.800781 C 298.332031 299.527344 301.40625 297.296875 304.679688 297.8125 C 307.953125 298.332031 310.183594 301.40625 309.667969 304.679688 C 309.148438 307.953125 306.074219 310.183594 302.800781 309.667969 C 299.527344 309.148438 297.296875 306.074219 297.8125 302.800781 "/>
<path style=" stroke:none;fill-rule:nonzero;fill:rgb(100%,100%,100%);fill-opacity:1;" d="M 255.960938 324.125 C 256.480469 320.851562 259.554688 318.621094 262.828125 319.136719 C 266.101562 319.65625 268.332031 322.730469 267.816406 326.003906 C 267.296875 329.277344 264.222656 331.507812 260.949219 330.992188 C 257.675781 330.472656 255.445312 327.398438 255.960938 324.125 "/>
<path style=" stroke:none;fill-rule:nonzero;fill:rgb(100%,100%,100%);fill-opacity:1;" d="M 209.570312 316.777344 C 210.089844 313.503906 213.164062 311.273438 216.433594 311.789062 C 219.707031 312.308594 221.941406 315.382812 221.421875 318.65625 C 220.90625 321.929688 217.832031 324.160156 214.558594 323.644531 C 211.285156 323.125 209.050781 320.050781 209.570312 316.777344 "/>
<path style=" stroke:none;fill-rule:nonzero;fill:rgb(100%,100%,100%);fill-opacity:1;" d="M 176.355469 283.566406 C 176.875 280.292969 179.949219 278.058594 183.222656 278.578125 C 186.496094 279.09375 188.726562 282.167969 188.210938 285.441406 C 187.691406 288.714844 184.617188 290.949219 181.34375 290.429688 C 178.070312 289.910156 175.839844 286.835938 176.355469 283.566406 "/>
<path style=" stroke:none;fill-rule:nonzero;fill:rgb(100%,100%,100%);fill-opacity:1;" d="M 169.007812 237.171875 C 169.527344 233.898438 172.601562 231.667969 175.875 232.183594 C 179.148438 232.703125 181.378906 235.777344 180.863281 239.050781 C 180.34375 242.324219 177.269531 244.554688 173.996094 244.039062 C 170.722656 243.519531 168.492188 240.445312 169.007812 237.171875 "/>
<path style=" stroke:none;fill-rule:nonzero;fill:rgb(100%,100%,100%);fill-opacity:1;" d="M 189.042969 172.097656 C 190.066406 168.945312 193.449219 167.222656 196.601562 168.246094 C 199.753906 169.269531 201.480469 172.65625 200.453125 175.804688 C 199.429688 178.957031 196.046875 180.683594 192.894531 179.660156 C 189.742188 178.632812 188.019531 175.25 189.042969 172.097656 "/>
<path style=" stroke:none;fill-rule:nonzero;fill:rgb(100%,100%,100%);fill-opacity:1;" d="M 244.292969 154.144531 C 245.316406 150.996094 248.703125 149.269531 251.855469 150.292969 C 255.003906 151.316406 256.730469 154.703125 255.707031 157.855469 C 254.683594 161.003906 251.296875 162.730469 248.144531 161.707031 C 244.996094 160.683594 243.269531 157.296875 244.292969 154.144531 "/>
<path style=" stroke:none;fill-rule:nonzero;fill:rgb(100%,100%,100%);fill-opacity:1;" d="M 299.546875 172.097656 C 300.570312 168.945312 303.953125 167.222656 307.105469 168.246094 C 310.257812 169.269531 311.980469 172.65625 310.957031 175.804688 C 309.933594 178.957031 306.550781 180.683594 303.398438 179.660156 C 300.246094 178.632812 298.519531 175.25 299.546875 172.097656 "/>
<path style=" stroke:none;fill-rule:nonzero;fill:rgb(100%,100%,100%);fill-opacity:1;" d="M 333.691406 219.097656 C 334.71875 215.945312 338.101562 214.222656 341.253906 215.246094 C 344.40625 216.269531 346.128906 219.65625 345.105469 222.804688 C 344.082031 225.957031 340.695312 227.683594 337.546875 226.660156 C 334.394531 225.632812 332.667969 222.25 333.691406 219.097656 "/>
<path style=" stroke:none;fill-rule:nonzero;fill:rgb(100%,100%,100%);fill-opacity:1;" d="M 333.691406 277.195312 C 334.71875 274.042969 338.101562 272.316406 341.253906 273.339844 C 344.40625 274.367188 346.128906 277.75 345.105469 280.902344 C 344.082031 284.054688 340.695312 285.777344 337.546875 284.753906 C 334.394531 283.730469 332.667969 280.34375 333.691406 277.195312 "/>
<path style=" stroke:none;fill-rule:nonzero;fill:rgb(100%,100%,100%);fill-opacity:1;" d="M 299.546875 324.195312 C 300.570312 321.042969 303.953125 319.316406 307.105469 320.339844 C 310.257812 321.367188 311.980469 324.75 310.957031 327.902344 C 309.933594 331.054688 306.550781 332.777344 303.398438 331.753906 C 300.246094 330.730469 298.519531 327.34375 299.546875 324.195312 "/>
<path style=" stroke:none;fill-rule:nonzero;fill:rgb(100%,100%,100%);fill-opacity:1;" d="M 244.292969 342.144531 C 245.316406 338.996094 248.703125 337.269531 251.855469 338.292969 C 255.003906 339.316406 256.730469 342.703125 255.707031 345.855469 C 254.683594 349.003906 251.296875 350.730469 248.144531 349.707031 C 244.996094 348.683594 243.269531 345.296875 244.292969 342.144531 "/>
<path style=" stroke:none;fill-rule:nonzero;fill:rgb(100%,100%,100%);fill-opacity:1;" d="M 189.042969 324.195312 C 190.066406 321.042969 193.449219 319.316406 196.601562 320.339844 C 199.753906 321.367188 201.480469 324.75 200.453125 327.902344 C 199.429688 331.054688 196.046875 332.777344 192.894531 331.753906 C 189.742188 330.730469 188.019531 327.34375 189.042969 324.195312 "/>
<path style=" stroke:none;fill-rule:nonzero;fill:rgb(100%,100%,100%);fill-opacity:1;" d="M 154.894531 277.195312 C 155.917969 274.042969 159.304688 272.316406 162.453125 273.339844 C 165.605469 274.367188 167.332031 277.75 166.308594 280.902344 C 165.28125 284.054688 161.898438 285.777344 158.746094 284.753906 C 155.59375 283.730469 153.871094 280.34375 154.894531 277.195312 "/>
<path style=" stroke:none;fill-rule:nonzero;fill:rgb(100%,100%,100%);fill-opacity:1;" d="M 154.894531 219.097656 C 155.917969 215.945312 159.304688 214.222656 162.453125 215.246094 C 165.605469 216.269531 167.332031 219.65625 166.308594 222.804688 C 165.28125 225.957031 161.898438 227.683594 158.746094 226.660156 C 155.59375 225.632812 153.871094 222.25 154.894531 219.097656 "/>
<path style=" stroke:none;fill-rule:nonzero;fill:rgb(100%,100%,100%);fill-opacity:1;" d="M 199.25 144.683594 C 200.90625 141.8125 204.574219 140.828125 207.445312 142.488281 C 210.316406 144.144531 211.296875 147.8125 209.640625 150.683594 C 207.984375 153.550781 204.316406 154.535156 201.445312 152.878906 C 198.574219 151.222656 197.59375 147.550781 199.25 144.683594 "/>
<path style=" stroke:none;fill-rule:nonzero;fill:rgb(100%,100%,100%);fill-opacity:1;" d="M 268.089844 137.449219 C 269.746094 134.578125 273.417969 133.59375 276.285156 135.25 C 279.15625 136.90625 280.140625 140.578125 278.480469 143.449219 C 276.824219 146.316406 273.15625 147.300781 270.285156 145.644531 C 267.417969 143.988281 266.433594 140.316406 268.089844 137.449219 "/>
<path style=" stroke:none;fill-rule:nonzero;fill:rgb(100%,100%,100%);fill-opacity:1;" d="M 328.035156 172.058594 C 329.691406 169.1875 333.363281 168.203125 336.230469 169.859375 C 339.101562 171.519531 340.085938 175.1875 338.429688 178.058594 C 336.773438 180.925781 333.101562 181.910156 330.230469 180.253906 C 327.363281 178.597656 326.378906 174.925781 328.035156 172.058594 "/>
<path style=" stroke:none;fill-rule:nonzero;fill:rgb(100%,100%,100%);fill-opacity:1;" d="M 356.191406 235.292969 C 357.847656 232.421875 361.515625 231.441406 364.386719 233.097656 C 367.257812 234.753906 368.238281 238.421875 366.582031 241.292969 C 364.925781 244.164062 361.257812 245.144531 358.386719 243.488281 C 355.515625 241.832031 354.535156 238.164062 356.191406 235.292969 "/>
<path style=" stroke:none;fill-rule:nonzero;fill:rgb(100%,100%,100%);fill-opacity:1;" d="M 341.796875 303 C 343.457031 300.128906 347.125 299.148438 349.996094 300.804688 C 352.863281 302.460938 353.847656 306.128906 352.191406 309 C 350.535156 311.871094 346.863281 312.851562 343.996094 311.195312 C 341.125 309.539062 340.140625 305.871094 341.796875 303 "/>
<path style=" stroke:none;fill-rule:nonzero;fill:rgb(100%,100%,100%);fill-opacity:1;" d="M 290.359375 349.316406 C 292.015625 346.449219 295.683594 345.464844 298.554688 347.121094 C 301.425781 348.777344 302.40625 352.449219 300.75 355.316406 C 299.09375 358.1875 295.425781 359.171875 292.554688 357.511719 C 289.683594 355.855469 288.703125 352.1875 290.359375 349.316406 "/>
<path style=" stroke:none;fill-rule:nonzero;fill:rgb(100%,100%,100%);fill-opacity:1;" d="M 221.519531 356.550781 C 223.175781 353.683594 226.84375 352.699219 229.714844 354.355469 C 232.582031 356.011719 233.566406 359.683594 231.910156 362.550781 C 230.253906 365.421875 226.582031 366.40625 223.714844 364.75 C 220.84375 363.09375 219.859375 359.421875 221.519531 356.550781 "/>
<path style=" stroke:none;fill-rule:nonzero;fill:rgb(100%,100%,100%);fill-opacity:1;" d="M 161.570312 321.941406 C 163.226562 319.074219 166.898438 318.089844 169.769531 319.746094 C 172.636719 321.402344 173.621094 325.074219 171.964844 327.941406 C 170.308594 330.8125 166.636719 331.796875 163.769531 330.140625 C 160.898438 328.480469 159.914062 324.8125 161.570312 321.941406 "/>
<path style=" stroke:none;fill-rule:nonzero;fill:rgb(100%,100%,100%);fill-opacity:1;" d="M 133.417969 258.707031 C 135.074219 255.835938 138.742188 254.855469 141.613281 256.511719 C 144.484375 258.167969 145.464844 261.835938 143.808594 264.707031 C 142.152344 267.578125 138.484375 268.558594 135.613281 266.902344 C 132.742188 265.246094 131.761719 261.578125 133.417969 258.707031 "/>
<path style=" stroke:none;fill-rule:nonzero;fill:rgb(100%,100%,100%);fill-opacity:1;" d="M 147.808594 191 C 149.464844 188.128906 153.136719 187.148438 156.003906 188.804688 C 158.875 190.460938 159.859375 194.128906 158.203125 197 C 156.542969 199.871094 152.875 200.851562 150.003906 199.195312 C 147.136719 197.539062 146.152344 193.871094 147.808594 191 "/>
<path style=" stroke:none;fill-rule:nonzero;fill:rgb(100%,100%,100%);fill-opacity:1;" d="M 225.421875 117.359375 C 227.765625 115.015625 231.5625 115.015625 233.90625 117.359375 C 236.25 119.699219 236.25 123.5 233.90625 125.84375 C 231.5625 128.1875 227.765625 128.1875 225.421875 125.84375 C 223.078125 123.5 223.078125 119.699219 225.421875 117.359375 "/>
<path style=" stroke:none;fill-rule:nonzero;fill:rgb(100%,100%,100%);fill-opacity:1;" d="M 304.777344 129.925781 C 307.121094 127.582031 310.917969 127.582031 313.261719 129.925781 C 315.605469 132.269531 315.605469 136.070312 313.261719 138.410156 C 310.917969 140.753906 307.121094 140.753906 304.777344 138.410156 C 302.433594 136.070312 302.433594 132.269531 304.777344 129.925781 "/>
<path style=" stroke:none;fill-rule:nonzero;fill:rgb(100%,100%,100%);fill-opacity:1;" d="M 361.589844 186.738281 C 363.929688 184.394531 367.730469 184.394531 370.074219 186.738281 C 372.417969 189.082031 372.417969 192.878906 370.074219 195.222656 C 367.730469 197.566406 363.929688 197.566406 361.589844 195.222656 C 359.246094 192.878906 359.246094 189.082031 361.589844 186.738281 "/>
<path style=" stroke:none;fill-rule:nonzero;fill:rgb(100%,100%,100%);fill-opacity:1;" d="M 374.15625 266.09375 C 376.5 263.75 380.300781 263.75 382.640625 266.09375 C 384.984375 268.4375 384.984375 272.234375 382.640625 274.578125 C 380.300781 276.921875 376.5 276.921875 374.15625 274.578125 C 371.8125 272.234375 371.8125 268.4375 374.15625 266.09375 "/>
<path style=" stroke:none;fill-rule:nonzero;fill:rgb(100%,100%,100%);fill-opacity:1;" d="M 337.679688 337.679688 C 340.023438 335.339844 343.824219 335.339844 346.167969 337.679688 C 348.507812 340.023438 348.507812 343.824219 346.167969 346.167969 C 343.824219 348.507812 340.023438 348.507812 337.679688 346.167969 C 335.339844 343.824219 335.339844 340.023438 337.679688 337.679688 "/>
<path style=" stroke:none;fill-rule:nonzero;fill:rgb(100%,100%,100%);fill-opacity:1;" d="M 266.09375 374.15625 C 268.4375 371.8125 272.234375 371.8125 274.578125 374.15625 C 276.921875 376.5 276.921875 380.300781 274.578125 382.640625 C 272.234375 384.984375 268.4375 384.984375 266.09375 382.640625 C 263.75 380.300781 263.75 376.5 266.09375 374.15625 "/>
<path style=" stroke:none;fill-rule:nonzero;fill:rgb(100%,100%,100%);fill-opacity:1;" d="M 186.738281 361.589844 C 189.082031 359.246094 192.878906 359.246094 195.222656 361.589844 C 197.566406 363.929688 197.566406 367.730469 195.222656 370.074219 C 192.878906 372.417969 189.082031 372.417969 186.738281 370.074219 C 184.394531 367.730469 184.394531 363.929688 186.738281 361.589844 "/>
<path style=" stroke:none;fill-rule:nonzero;fill:rgb(100%,100%,100%);fill-opacity:1;" d="M 129.925781 304.777344 C 132.269531 302.433594 136.070312 302.433594 138.410156 304.777344 C 140.753906 307.121094 140.753906 310.917969 138.410156 313.261719 C 136.070312 315.605469 132.269531 315.605469 129.925781 313.261719 C 127.582031 310.917969 127.582031 307.121094 129.925781 304.777344 "/>
<path style=" stroke:none;fill-rule:nonzero;fill:rgb(100%,100%,100%);fill-opacity:1;" d="M 117.359375 225.421875 C 119.699219 223.078125 123.5 223.078125 125.84375 225.421875 C 128.1875 227.765625 128.1875 231.5625 125.84375 233.90625 C 123.5 236.25 119.699219 236.25 117.359375 233.90625 C 115.015625 231.5625 115.015625 227.765625 117.359375 225.421875 "/>
<path style=" stroke:none;fill-rule:nonzero;fill:rgb(100%,100%,100%);fill-opacity:1;" d="M 153.832031 153.832031 C 156.175781 151.492188 159.976562 151.492188 162.320312 153.832031 C 164.660156 156.175781 164.660156 159.976562 162.320312 162.320312 C 159.976562 164.660156 156.175781 164.660156 153.832031 162.320312 C 151.492188 159.976562 151.492188 156.175781 153.832031 153.832031 "/>
<path style=" stroke:none;fill-rule:nonzero;fill:rgb(100%,100%,100%);fill-opacity:1;" d="M 270.429688 98.476562 C 273.382812 96.972656 276.992188 98.144531 278.5 101.097656 C 280.003906 104.050781 278.828125 107.664062 275.875 109.167969 C 272.921875 110.671875 269.3125 109.5 267.804688 106.546875 C 266.300781 103.59375 267.476562 99.980469 270.429688 98.476562 "/>
<path style=" stroke:none;fill-rule:nonzero;fill:rgb(100%,100%,100%);fill-opacity:1;" d="M 351.929688 140.003906 C 354.878906 138.496094 358.492188 139.671875 359.996094 142.625 C 361.503906 145.578125 360.328125 149.191406 357.375 150.695312 C 354.421875 152.199219 350.808594 151.023438 349.304688 148.070312 C 347.800781 145.121094 348.976562 141.507812 351.929688 140.003906 "/>
<path style=" stroke:none;fill-rule:nonzero;fill:rgb(100%,100%,100%);fill-opacity:1;" d="M 393.453125 221.5 C 396.40625 219.996094 400.019531 221.171875 401.523438 224.125 C 403.027344 227.078125 401.855469 230.6875 398.902344 232.195312 C 395.949219 233.699219 392.335938 232.523438 390.832031 229.570312 C 389.328125 226.617188 390.5 223.007812 393.453125 221.5 "/>
<path style=" stroke:none;fill-rule:nonzero;fill:rgb(100%,100%,100%);fill-opacity:1;" d="M 379.144531 311.84375 C 382.097656 310.339844 385.710938 311.515625 387.214844 314.464844 C 388.71875 317.417969 387.546875 321.03125 384.59375 322.535156 C 381.640625 324.042969 378.027344 322.867188 376.523438 319.914062 C 375.019531 316.960938 376.191406 313.347656 379.144531 311.84375 "/>
<path style=" stroke:none;fill-rule:nonzero;fill:rgb(100%,100%,100%);fill-opacity:1;" d="M 314.464844 376.523438 C 317.417969 375.019531 321.03125 376.191406 322.535156 379.144531 C 324.042969 382.097656 322.867188 385.710938 319.914062 387.214844 C 316.960938 388.71875 313.347656 387.546875 311.84375 384.59375 C 310.339844 381.640625 311.515625 378.027344 314.464844 376.523438 "/>
<path style=" stroke:none;fill-rule:nonzero;fill:rgb(100%,100%,100%);fill-opacity:1;" d="M 224.125 390.832031 C 227.078125 389.328125 230.6875 390.5 232.195312 393.453125 C 233.699219 396.40625 232.523438 400.019531 229.570312 401.523438 C 226.617188 403.027344 223.007812 401.855469 221.5 398.902344 C 219.996094 395.949219 221.171875 392.335938 224.125 390.832031 "/>
<path style=" stroke:none;fill-rule:nonzero;fill:rgb(100%,100%,100%);fill-opacity:1;" d="M 142.625 349.304688 C 145.578125 347.800781 149.191406 348.976562 150.695312 351.929688 C 152.199219 354.878906 151.023438 358.492188 148.070312 359.996094 C 145.121094 361.503906 141.507812 360.328125 140.003906 357.375 C 138.496094 354.421875 139.671875 350.808594 142.625 349.304688 "/>
<path style=" stroke:none;fill-rule:nonzero;fill:rgb(100%,100%,100%);fill-opacity:1;" d="M 101.097656 267.804688 C 104.050781 266.300781 107.664062 267.476562 109.167969 270.429688 C 110.671875 273.382812 109.5 276.992188 106.546875 278.5 C 103.59375 280.003906 99.980469 278.828125 98.476562 275.875 C 96.972656 272.921875 98.144531 269.3125 101.097656 267.804688 "/>
<path style=" stroke:none;fill-rule:nonzero;fill:rgb(100%,100%,100%);fill-opacity:1;" d="M 115.40625 177.464844 C 118.359375 175.957031 121.972656 177.132812 123.476562 180.085938 C 124.980469 183.039062 123.808594 186.652344 120.855469 188.15625 C 117.902344 189.660156 114.289062 188.484375 112.785156 185.535156 C 111.28125 182.582031 112.453125 178.96875 115.40625 177.464844 "/>
<path style=" stroke:none;fill-rule:nonzero;fill:rgb(100%,100%,100%);fill-opacity:1;" d="M 180.085938 112.785156 C 183.039062 111.28125 186.652344 112.453125 188.15625 115.40625 C 189.660156 118.359375 188.484375 121.972656 185.535156 123.476562 C 182.582031 124.980469 178.96875 123.808594 177.464844 120.855469 C 175.957031 117.902344 177.132812 114.289062 180.085938 112.785156 "/>
<path style=" stroke:none;fill-rule:nonzero;fill:rgb(100%,100%,100%);fill-opacity:1;" d="M 332.371094 100.273438 C 335.667969 99.925781 338.621094 102.316406 338.96875 105.613281 C 339.3125 108.90625 336.921875 111.859375 333.628906 112.207031 C 330.332031 112.554688 327.378906 110.164062 327.03125 106.867188 C 326.6875 103.570312 329.078125 100.617188 332.371094 100.273438 "/>
<path style=" stroke:none;fill-rule:nonzero;fill:rgb(100%,100%,100%);fill-opacity:1;" d="M 401.019531 176.515625 C 404.316406 176.167969 407.269531 178.558594 407.617188 181.855469 C 407.960938 185.148438 405.570312 188.101562 402.277344 188.449219 C 398.980469 188.796875 396.027344 186.40625 395.679688 183.109375 C 395.335938 179.8125 397.726562 176.859375 401.019531 176.515625 "/>
<path style=" stroke:none;fill-rule:nonzero;fill:rgb(100%,100%,100%);fill-opacity:1;" d="M 411.746094 278.546875 C 415.039062 278.199219 417.992188 280.589844 418.339844 283.886719 C 418.6875 287.183594 416.296875 290.132812 413 290.480469 C 409.703125 290.828125 406.75 288.4375 406.40625 285.140625 C 406.058594 281.84375 408.449219 278.894531 411.746094 278.546875 "/>
<path style=" stroke:none;fill-rule:nonzero;fill:rgb(100%,100%,100%);fill-opacity:1;" d="M 360.449219 367.394531 C 363.742188 367.046875 366.695312 369.4375 367.042969 372.734375 C 367.390625 376.03125 365 378.984375 361.703125 379.328125 C 358.40625 379.675781 355.453125 377.285156 355.109375 373.988281 C 354.761719 370.695312 357.152344 367.742188 360.449219 367.394531 "/>
<path style=" stroke:none;fill-rule:nonzero;fill:rgb(100%,100%,100%);fill-opacity:1;" d="M 266.722656 409.125 C 270.019531 408.777344 272.972656 411.167969 273.320312 414.464844 C 273.664062 417.757812 271.273438 420.710938 267.980469 421.058594 C 264.683594 421.402344 261.730469 419.011719 261.382812 415.71875 C 261.039062 412.421875 263.429688 409.46875 266.722656 409.125 "/>
<path style=" stroke:none;fill-rule:nonzero;fill:rgb(100%,100%,100%);fill-opacity:1;" d="M 166.371094 387.792969 C 169.667969 387.445312 172.621094 389.835938 172.96875 393.132812 C 173.3125 396.429688 170.921875 399.382812 167.628906 399.726562 C 164.332031 400.074219 161.378906 397.683594 161.03125 394.386719 C 160.6875 391.09375 163.078125 388.140625 166.371094 387.792969 "/>
<path style=" stroke:none;fill-rule:nonzero;fill:rgb(100%,100%,100%);fill-opacity:1;" d="M 97.722656 311.550781 C 101.019531 311.203125 103.972656 313.59375 104.320312 316.890625 C 104.664062 320.1875 102.273438 323.140625 98.980469 323.484375 C 95.683594 323.832031 92.730469 321.441406 92.382812 318.144531 C 92.039062 314.851562 94.429688 311.898438 97.722656 311.550781 "/>
<path style=" stroke:none;fill-rule:nonzero;fill:rgb(100%,100%,100%);fill-opacity:1;" d="M 87 209.519531 C 90.296875 209.171875 93.25 211.5625 93.59375 214.859375 C 93.941406 218.15625 91.550781 221.105469 88.253906 221.453125 C 84.960938 221.800781 82.007812 219.410156 81.660156 216.113281 C 81.3125 212.816406 83.703125 209.867188 87 209.519531 "/>
<path style=" stroke:none;fill-rule:nonzero;fill:rgb(100%,100%,100%);fill-opacity:1;" d="M 138.296875 120.671875 C 141.59375 120.324219 144.546875 122.714844 144.890625 126.011719 C 145.238281 129.304688 142.847656 132.257812 139.550781 132.605469 C 136.257812 132.953125 133.304688 130.5625 132.957031 127.265625 C 132.609375 123.96875 135 121.015625 138.296875 120.671875 "/>
<path style=" stroke:none;fill-rule:nonzero;fill:rgb(100%,100%,100%);fill-opacity:1;" d="M 232.019531 78.941406 C 235.316406 78.597656 238.269531 80.988281 238.617188 84.28125 C 238.960938 87.578125 236.570312 90.53125 233.277344 90.875 C 229.980469 91.222656 227.027344 88.832031 226.679688 85.535156 C 226.335938 82.242188 228.726562 79.289062 232.019531 78.941406 "/>
<path style=" stroke:none;fill-rule:nonzero;fill:rgb(100%,100%,100%);fill-opacity:1;" d="M 400.714844 136.140625 C 403.863281 137.164062 405.589844 140.550781 404.566406 143.703125 C 403.542969 146.851562 400.15625 148.578125 397.003906 147.554688 C 393.851562 146.53125 392.128906 143.144531 393.152344 139.992188 C 394.175781 136.84375 397.5625 135.117188 400.714844 136.140625 "/>
<path style=" stroke:none;fill-rule:nonzero;fill:rgb(100%,100%,100%);fill-opacity:1;" d="M 435.855469 244.292969 C 439.003906 245.316406 440.730469 248.703125 439.707031 251.855469 C 438.683594 255.003906 435.296875 256.730469 432.144531 255.707031 C 428.996094 254.683594 427.269531 251.296875 428.292969 248.144531 C 429.316406 244.996094 432.703125 243.269531 435.855469 244.292969 "/>
<path style=" stroke:none;fill-rule:nonzero;fill:rgb(100%,100%,100%);fill-opacity:1;" d="M 400.714844 352.445312 C 403.863281 353.46875 405.589844 356.855469 404.566406 360.007812 C 403.542969 363.15625 400.15625 364.882812 397.003906 363.859375 C 393.851562 362.835938 392.128906 359.449219 393.152344 356.296875 C 394.175781 353.148438 397.5625 351.421875 400.714844 352.445312 "/>
<path style=" stroke:none;fill-rule:nonzero;fill:rgb(100%,100%,100%);fill-opacity:1;" d="M 308.714844 419.289062 C 311.863281 420.3125 313.589844 423.695312 312.566406 426.847656 C 311.542969 430 308.15625 431.726562 305.003906 430.699219 C 301.851562 429.675781 300.128906 426.292969 301.152344 423.140625 C 302.175781 419.988281 305.5625 418.265625 308.714844 419.289062 "/>
<path style=" stroke:none;fill-rule:nonzero;fill:rgb(100%,100%,100%);fill-opacity:1;" d="M 194.996094 419.289062 C 198.148438 420.3125 199.871094 423.695312 198.847656 426.847656 C 197.824219 430 194.4375 431.726562 191.285156 430.699219 C 188.136719 429.675781 186.410156 426.292969 187.433594 423.140625 C 188.457031 419.988281 191.84375 418.265625 194.996094 419.289062 "/>
<path style=" stroke:none;fill-rule:nonzero;fill:rgb(100%,100%,100%);fill-opacity:1;" d="M 102.996094 352.445312 C 106.148438 353.46875 107.871094 356.855469 106.847656 360.007812 C 105.824219 363.15625 102.4375 364.882812 99.285156 363.859375 C 96.136719 362.835938 94.410156 359.449219 95.433594 356.296875 C 96.457031 353.148438 99.84375 351.421875 102.996094 352.445312 "/>
<path style=" stroke:none;fill-rule:nonzero;fill:rgb(100%,100%,100%);fill-opacity:1;" d="M 67.855469 244.292969 C 71.003906 245.316406 72.730469 248.703125 71.707031 251.855469 C 70.683594 255.003906 67.296875 256.730469 64.144531 255.707031 C 60.996094 254.683594 59.269531 251.296875 60.292969 248.144531 C 61.316406 244.996094 64.703125 243.269531 67.855469 244.292969 "/>
<path style=" stroke:none;fill-rule:nonzero;fill:rgb(100%,100%,100%);fill-opacity:1;" d="M 102.996094 136.140625 C 106.148438 137.164062 107.871094 140.550781 106.847656 143.703125 C 105.824219 146.851562 102.4375 148.578125 99.285156 147.554688 C 96.136719 146.53125 94.410156 143.144531 95.433594 139.992188 C 96.457031 136.84375 99.84375 135.117188 102.996094 136.140625 "/>
<path style=" stroke:none;fill-rule:nonzero;fill:rgb(100%,100%,100%);fill-opacity:1;" d="M 194.996094 69.300781 C 198.148438 70.324219 199.871094 73.707031 198.847656 76.859375 C 197.824219 80.011719 194.4375 81.734375 191.285156 80.710938 C 188.136719 79.6875 186.410156 76.304688 187.433594 73.152344 C 188.457031 70 191.84375 68.273438 194.996094 69.300781 "/>
<path style=" stroke:none;fill-rule:nonzero;fill:rgb(100%,100%,100%);fill-opacity:1;" d="M 308.714844 69.300781 C 311.863281 70.324219 313.589844 73.707031 312.566406 76.859375 C 311.542969 80.011719 308.15625 81.734375 305.003906 80.710938 C 301.851562 79.6875 300.128906 76.304688 301.152344 73.152344 C 302.175781 70 305.5625 68.273438 308.714844 69.300781 "/>
</g>
</svg>
