<?xml version="1.0" encoding="UTF-8"?>
<svg xmlns="http://www.w3.org/2000/svg" xmlns:xlink="http://www.w3.org/1999/xlink" width="500pt" height="500pt" viewBox="0 0 500 500" version="1.1">
<g id="surface26">
<path style="fill:none;stroke-width:1;stroke-linecap:butt;stroke-linejoin:miter;stroke:rgb(25.882353%,58.039216%,58.823529%);stroke-opacity:1;stroke-miterlimit:10;" d="M 451 240 C 451 358.742188 354.742188 455 236 455 C 117.257812 455 21 358.742188 21 240 C 21 121.257812 117.257812 25 236 25 C 354.742188 25 451 121.257812 451 240 "/>
<path style="fill:none;stroke-width:1;stroke-linecap:butt;stroke-linejoin:miter;stroke:rgb(25.882353%,58.039216%,58.823529%);stroke-opacity:1;stroke-miterlimit:10;" d="M 448 251 C 448 364.21875 356.21875 456 243 456 C 129.78125 456 38 364.21875 38 251 C 38 137.78125 129.78125 46 243 46 C 356.21875 46 448 137.78125 448 251 "/>
<path style="fill:none;stroke-width:1;stroke-linecap:butt;stroke-linejoin:miter;stroke:rgb(25.882353%,58.039216%,58.823529%);stroke-opacity:1;stroke-miterlimit:10;" d="M 465 239 C 465 353.324219 372.324219 446 258 446 C 143.675781 446 51 353.324219 51 239 C 51 124.675781 143.675781 32 258 32 C 372.324219 32 465 124.675781 465 239 "/>
<path style="fill:none;stroke-width:1;stroke-linecap:butt;stroke-linejoin:miter;stroke:rgb(25.882353%,58.039216%,58.823529%);stroke-opacity:1;stroke-miterlimit:10;" d="M 476 242 C 476 369.027344 373.027344 472 246 472 C 118.972656 472 16 369.027344 16 242 C 16 114.972656 118.972656 12 246 12 C 373.027344 12 476 114.972656 476 242 "/>
<path style="fill:none;stroke-width:1;stroke-linecap:butt;stroke-linejoin:miter;stroke:rgb(25.882353%,58.039216%,58.823529%);stroke-opacity:1;stroke-miterlimit:10;" d="M 500 261 C 500 391.339844 394.339844 497 264 497 C 133.660156 497 28 391.339844 28 261 C 28 130.660156 133.660156 25 264 25 C 394.339844 25 500 130.660156 500 261 "/>
<path style="fill:none;stroke-width:1;stroke-linecap:butt;stroke-linejoin:miter;stroke:rgb(25.882353%,58.039216%,58.823529%);stroke-opacity:1;stroke-miterlimit:10;" d="M 462 251 C 462 372.503906 363.503906 471 242 471 C 120.496094 471 22 372.503906 22 251 C 22 129.496094 120.496094 31 242 31 C 363.503906 31 462 129.496094 462 251 "/>
<path style="fill:none;stroke-width:1;stroke-linecap:butt;stroke-linejoin:miter;stroke:rgb(25.882353%,58.039216%,58.823529%);stroke-opacity:1;stroke-miterlimit:10;" d="M 462 247 C 462 370.160156 362.160156 470 239 470 C 115.839844 470 16 370.160156 16 247 C 16 123.839844 115.839844 24 239 24 C 362.160156 24 462 123.839844 462 247 "/>
<path style="fill:none;stroke-width:1;stroke-linecap:butt;stroke-linejoin:miter;stroke:rgb(25.882353%,58.039216%,58.823529%);stroke-opacity:1;stroke-miterlimit:10;" d="M 487 252 C 487 381.234375 382.234375 486 253 486 C 123.765625 486 19 381.234375 19 252 C 19 122.765625 123.765625 18 253 18 C 382.234375 18 487 122.765625 487 252 "/>
<path style="fill:none;stroke-width:3;stroke-linecap:butt;stroke-linejoin:miter;stroke:rgb(43.921569%,43.137255%,69.411765%);stroke-opacity:1;stroke-miterlimit:10;" d="M 470 250 C 470 371.503906 371.503906 470 250 470 C 128.496094 470 30 371.503906 30 250 C 30 128.496094 128.496094 30 250 30 C 371.503906 30 470 128.496094 470 250 "/>
<path style="fill:none;stroke-width:2;stroke-linecap:butt;stroke-linejoin:miter;stroke:rgb(0%,51.372549%,65.098039%);stroke-opacity:1;stroke-miterlimit:10;" d="M 264.453125 284.378906 C 264.222656 287.683594 261.355469 290.175781 258.046875 289.945312 C 254.742188 289.714844 252.25 286.847656 252.480469 283.542969 C 252.714844 280.234375 255.582031 277.742188 258.886719 277.976562 C 262.191406 278.207031 264.683594 281.074219 264.453125 284.378906 "/>
<path style="fill:none;stroke-width:4;stroke-linecap:butt;stroke-linejoin:miter;stroke:rgb(0%,51.372549%,65.098039%);stroke-opacity:1;stroke-miterlimit:10;" d="M 224.328125 270.128906 C 224.257812 274.125 218.261719 274.023438 218.332031 270.023438 C 218.398438 266.023438 224.398438 266.128906 224.328125 270.128906 "/>
<path style="fill:none;stroke-width:4;stroke-linecap:butt;stroke-linejoin:miter;stroke:rgb(100%,54.117647%,26.27451%);stroke-opacity:1;stroke-miterlimit:10;" d="M 224.980469 230.289062 C 225.167969 235.617188 217.171875 235.898438 216.984375 230.566406 C 216.800781 225.238281 224.796875 224.957031 224.980469 230.289062 "/>
<path style="fill:none;stroke-width:3;stroke-linecap:butt;stroke-linejoin:miter;stroke:rgb(0%,51.372549%,65.098039%);stroke-opacity:1;stroke-miterlimit:10;" d="M 265.644531 216.144531 C 265.757812 219.457031 263.167969 222.238281 259.855469 222.351562 C 256.546875 222.46875 253.765625 219.875 253.652344 216.566406 C 253.535156 213.253906 256.125 210.476562 259.4375 210.359375 C 262.75 210.242188 265.527344 212.835938 265.644531 216.144531 "/>
<path style="fill:none;stroke-width:3;stroke-linecap:butt;stroke-linejoin:miter;stroke:rgb(100%,54.117647%,26.27451%);stroke-opacity:1;stroke-miterlimit:10;" d="M 290.992188 249.285156 C 291.050781 252.597656 288.414062 255.332031 285.097656 255.386719 C 281.785156 255.445312 279.054688 252.808594 278.996094 249.492188 C 278.9375 246.179688 281.578125 243.449219 284.890625 243.390625 C 288.203125 243.332031 290.9375 245.972656 290.992188 249.285156 "/>
<path style=" stroke:none;fill-rule:nonzero;fill:rgb(0%,51.372549%,65.098039%);fill-opacity:1;" d="M 268.082031 298.933594 C 267.851562 302.238281 264.984375 304.730469 261.675781 304.5 C 258.371094 304.269531 255.878906 301.402344 256.109375 298.097656 C 256.34375 294.789062 259.210938 292.296875 262.515625 292.53125 C 265.820312 292.761719 268.3125 295.628906 268.082031 298.933594 "/>
<path style=" stroke:none;fill-rule:nonzero;fill:rgb(0%,51.372549%,65.098039%);fill-opacity:1;" d="M 210.386719 273.480469 C 209.34375 280.066406 199.46875 278.5 200.511719 271.917969 C 201.554688 265.332031 211.429688 266.898438 210.386719 273.480469 "/>
<path style="fill:none;stroke-width:4;stroke-linecap:butt;stroke-linejoin:miter;stroke:rgb(100%,54.117647%,26.27451%);stroke-opacity:1;stroke-miterlimit:10;" d="M 220.570312 215.582031 C 220.050781 218.855469 216.980469 221.089844 213.707031 220.570312 C 210.433594 220.050781 208.199219 216.980469 208.71875 213.707031 C 209.238281 210.433594 212.308594 208.199219 215.582031 208.71875 C 218.855469 209.238281 221.089844 212.308594 220.570312 215.582031 "/>
<path style="fill:none;stroke-width:5;stroke-linecap:butt;stroke-linejoin:miter;stroke:rgb(0%,51.372549%,65.098039%);stroke-opacity:1;stroke-miterlimit:10;" d="M 274.675781 205.761719 C 274.257812 208.394531 270.308594 207.769531 270.722656 205.136719 C 271.140625 202.503906 275.09375 203.128906 274.675781 205.761719 "/>
<path style=" stroke:none;fill-rule:nonzero;fill:rgb(100%,54.117647%,26.27451%);fill-opacity:1;" d="M 304.164062 259.550781 C 303.007812 266.117188 293.160156 264.378906 294.316406 257.8125 C 295.472656 251.25 305.320312 252.984375 304.164062 259.550781 "/>
<path style=" stroke:none;fill-rule:nonzero;fill:rgb(0%,51.372549%,65.098039%);fill-opacity:1;" d="M 256.300781 315.6875 C 255.265625 319.550781 249.46875 318 250.503906 314.132812 C 251.539062 310.269531 257.335938 311.824219 256.300781 315.6875 "/>
<path style=" stroke:none;fill-rule:nonzero;fill:rgb(0%,51.372549%,65.098039%);fill-opacity:1;" d="M 190.84375 272.78125 C 190.109375 275.347656 186.261719 274.242188 186.996094 271.679688 C 187.734375 269.117188 191.578125 270.21875 190.84375 272.78125 "/>
<path style="fill:none;stroke-width:3;stroke-linecap:butt;stroke-linejoin:miter;stroke:rgb(100%,54.117647%,26.27451%);stroke-opacity:1;stroke-miterlimit:10;" d="M 218.351562 197.824219 C 216.070312 204.085938 206.675781 200.667969 208.953125 194.402344 C 211.234375 188.136719 220.632812 191.558594 218.351562 197.824219 "/>
<path style="fill:none;stroke-width:4;stroke-linecap:butt;stroke-linejoin:miter;stroke:rgb(100%,54.117647%,26.27451%);stroke-opacity:1;stroke-miterlimit:10;" d="M 292.113281 197.765625 C 291.203125 200.953125 287.878906 202.792969 284.695312 201.878906 C 281.507812 200.964844 279.667969 197.644531 280.578125 194.457031 C 281.492188 191.273438 284.816406 189.429688 288 190.34375 C 291.1875 191.257812 293.027344 194.582031 292.113281 197.765625 "/>
<path style="fill:none;stroke-width:2;stroke-linecap:butt;stroke-linejoin:miter;stroke:rgb(0%,51.372549%,65.098039%);stroke-opacity:1;stroke-miterlimit:10;" d="M 312.550781 274.011719 C 311.59375 276.5 307.859375 275.066406 308.816406 272.578125 C 309.769531 270.085938 313.503906 271.519531 312.550781 274.011719 "/>
<path style="fill:none;stroke-width:2;stroke-linecap:butt;stroke-linejoin:miter;stroke:rgb(0%,51.372549%,65.098039%);stroke-opacity:1;stroke-miterlimit:10;" d="M 232.09375 329.695312 C 228.367188 335.222656 220.074219 329.632812 223.804688 324.105469 C 227.53125 318.578125 235.820312 324.171875 232.09375 329.695312 "/>
<path style=" stroke:none;fill-rule:nonzero;fill:rgb(100%,54.117647%,26.27451%);fill-opacity:1;" d="M 175.84375 262.660156 C 174.238281 265.554688 170.585938 266.605469 167.6875 264.996094 C 164.789062 263.390625 163.742188 259.738281 165.347656 256.839844 C 166.957031 253.941406 170.605469 252.894531 173.503906 254.5 C 176.402344 256.109375 177.449219 259.761719 175.84375 262.660156 "/>
<path style="fill:none;stroke-width:4;stroke-linecap:butt;stroke-linejoin:miter;stroke:rgb(100%,54.117647%,26.27451%);stroke-opacity:1;stroke-miterlimit:10;" d="M 219.027344 181.445312 C 217.523438 184.394531 213.910156 185.570312 210.957031 184.066406 C 208.003906 182.5625 206.832031 178.949219 208.335938 175.996094 C 209.839844 173.042969 213.453125 171.867188 216.40625 173.375 C 219.355469 174.878906 220.53125 178.492188 219.027344 181.445312 "/>
<path style="fill:none;stroke-width:5;stroke-linecap:butt;stroke-linejoin:miter;stroke:rgb(100%,54.117647%,26.27451%);stroke-opacity:1;stroke-miterlimit:10;" d="M 312.980469 199.636719 C 311.566406 201.898438 308.175781 199.777344 309.585938 197.515625 C 311 195.253906 314.394531 197.375 312.980469 199.636719 "/>
<path style=" stroke:none;fill-rule:nonzero;fill:rgb(100%,54.117647%,26.27451%);fill-opacity:1;" d="M 321.234375 294.511719 C 318.410156 299.035156 311.625 294.796875 314.453125 290.273438 C 317.277344 285.75 324.0625 289.992188 321.234375 294.511719 "/>
<path style=" stroke:none;fill-rule:nonzero;fill:rgb(0%,51.372549%,65.098039%);fill-opacity:1;" d="M 213.507812 339.507812 C 208.960938 344.386719 201.648438 337.566406 206.195312 332.6875 C 210.742188 327.8125 218.054688 334.632812 213.507812 339.507812 "/>
<path style=" stroke:none;fill-rule:nonzero;fill:rgb(100%,54.117647%,26.27451%);fill-opacity:1;" d="M 158.238281 247.546875 C 154.882812 251.691406 148.664062 246.65625 152.023438 242.511719 C 155.378906 238.367188 161.59375 243.402344 158.238281 247.546875 "/>
<path style=" stroke:none;fill-rule:nonzero;fill:rgb(0%,51.372549%,65.098039%);fill-opacity:1;" d="M 235.660156 158.527344 C 232.882812 161.40625 228.566406 157.238281 231.34375 154.359375 C 234.125 151.480469 238.441406 155.648438 235.660156 158.527344 "/>
<path style="fill:none;stroke-width:3;stroke-linecap:butt;stroke-linejoin:miter;stroke:rgb(0%,51.372549%,65.098039%);stroke-opacity:1;stroke-miterlimit:10;" d="M 338.195312 209.566406 C 335.894531 211.953125 332.097656 212.019531 329.710938 209.714844 C 327.328125 207.414062 327.261719 203.617188 329.5625 201.230469 C 331.867188 198.847656 335.664062 198.78125 338.046875 201.085938 C 340.433594 203.386719 340.496094 207.183594 338.195312 209.566406 "/>
<path style="fill:none;stroke-width:5;stroke-linecap:butt;stroke-linejoin:miter;stroke:rgb(100%,54.117647%,26.27451%);stroke-opacity:1;stroke-miterlimit:10;" d="M 327.371094 314.921875 C 325.242188 317.460938 321.457031 317.792969 318.917969 315.660156 C 316.378906 313.53125 316.046875 309.746094 318.179688 307.207031 C 320.308594 304.667969 324.09375 304.339844 326.632812 306.46875 C 329.167969 308.597656 329.5 312.382812 327.371094 314.921875 "/>
<path style=" stroke:none;fill-rule:nonzero;fill:rgb(0%,51.372549%,65.098039%);fill-opacity:1;" d="M 190.515625 344.898438 C 187.871094 346.894531 184.109375 346.363281 182.113281 343.71875 C 180.121094 341.070312 180.648438 337.308594 183.296875 335.316406 C 185.941406 333.320312 189.703125 333.847656 191.699219 336.496094 C 193.691406 339.140625 193.164062 342.90625 190.515625 344.898438 "/>
<path style="fill:none;stroke-width:5;stroke-linecap:butt;stroke-linejoin:miter;stroke:rgb(0%,51.372549%,65.098039%);stroke-opacity:1;stroke-miterlimit:10;" d="M 148.394531 212.257812 C 146.160156 213.710938 143.980469 210.355469 146.21875 208.902344 C 148.453125 207.449219 150.632812 210.804688 148.394531 212.257812 "/>
<path style=" stroke:none;fill-rule:nonzero;fill:rgb(0%,51.372549%,65.098039%);fill-opacity:1;" d="M 250.488281 143.210938 C 246.226562 146.421875 241.414062 140.03125 245.671875 136.820312 C 249.933594 133.613281 254.746094 140 250.488281 143.210938 "/>
<path style=" stroke:none;fill-rule:nonzero;fill:rgb(0%,51.372549%,65.098039%);fill-opacity:1;" d="M 355.828125 215.53125 C 351.625 218.8125 346.699219 212.507812 350.902344 209.226562 C 355.105469 205.941406 360.03125 212.246094 355.828125 215.53125 "/>
<path style="fill:none;stroke-width:2;stroke-linecap:butt;stroke-linejoin:miter;stroke:rgb(0%,51.372549%,65.098039%);stroke-opacity:1;stroke-miterlimit:10;" d="M 316.417969 341.417969 C 313.183594 343.769531 309.65625 338.914062 312.894531 336.566406 C 316.128906 334.214844 319.65625 339.066406 316.417969 341.417969 "/>
<path style=" stroke:none;fill-rule:nonzero;fill:rgb(100%,54.117647%,26.27451%);fill-opacity:1;" d="M 149.359375 327.433594 C 146.191406 328.402344 142.835938 326.621094 141.867188 323.453125 C 140.898438 320.28125 142.683594 316.929688 145.851562 315.960938 C 149.019531 314.992188 152.375 316.773438 153.34375 319.941406 C 154.3125 323.113281 152.527344 326.464844 149.359375 327.433594 "/>
<path style="fill:none;stroke-width:4;stroke-linecap:butt;stroke-linejoin:miter;stroke:rgb(100%,54.117647%,26.27451%);stroke-opacity:1;stroke-miterlimit:10;" d="M 154.410156 177.128906 C 151.207031 177.988281 147.917969 176.089844 147.0625 172.886719 C 146.203125 169.6875 148.101562 166.398438 151.304688 165.539062 C 154.503906 164.683594 157.792969 166.582031 158.652344 169.78125 C 159.511719 172.984375 157.609375 176.273438 154.410156 177.128906 "/>
<path style="fill:none;stroke-width:5;stroke-linecap:butt;stroke-linejoin:miter;stroke:rgb(0%,51.372549%,65.098039%);stroke-opacity:1;stroke-miterlimit:10;" d="M 289.554688 133.972656 C 285.75 135.207031 283.894531 129.5 287.699219 128.265625 C 291.503906 127.027344 293.359375 132.734375 289.554688 133.972656 "/>
<path style=" stroke:none;fill-rule:nonzero;fill:rgb(100%,54.117647%,26.27451%);fill-opacity:1;" d="M 375.863281 260.40625 C 370.710938 261.785156 368.640625 254.058594 373.792969 252.679688 C 378.945312 251.296875 381.015625 259.023438 375.863281 260.40625 "/>
<path style="fill:none;stroke-width:5;stroke-linecap:butt;stroke-linejoin:miter;stroke:rgb(0%,51.372549%,65.098039%);stroke-opacity:1;stroke-miterlimit:10;" d="M 277.238281 378.136719 C 273.996094 378.828125 270.808594 376.757812 270.121094 373.515625 C 269.429688 370.273438 271.5 367.089844 274.742188 366.398438 C 277.984375 365.710938 281.167969 367.78125 281.859375 371.019531 C 282.546875 374.261719 280.476562 377.449219 277.238281 378.136719 "/>
<path style="fill:none;stroke-width:4;stroke-linecap:butt;stroke-linejoin:miter;stroke:rgb(100%,54.117647%,26.27451%);stroke-opacity:1;stroke-miterlimit:10;" d="M 108.851562 256.269531 C 103.75 254.710938 106.089844 247.058594 111.191406 248.617188 C 116.292969 250.175781 113.953125 257.828125 108.851562 256.269531 "/>
<path style=" stroke:none;fill-rule:nonzero;fill:rgb(0%,51.372549%,65.098039%);fill-opacity:1;" d="M 198.277344 125.09375 C 195.074219 124.238281 193.175781 120.945312 194.03125 117.746094 C 194.890625 114.546875 198.179688 112.644531 201.382812 113.503906 C 204.582031 114.359375 206.480469 117.652344 205.625 120.851562 C 204.765625 124.050781 201.476562 125.953125 198.277344 125.09375 "/>
<path style=" stroke:none;fill-rule:nonzero;fill:rgb(100%,54.117647%,26.27451%);fill-opacity:1;" d="M 360.640625 169.570312 C 355.539062 168.011719 357.878906 160.363281 362.976562 161.921875 C 368.078125 163.480469 365.738281 171.128906 360.640625 169.570312 "/>
<path style=" stroke:none;fill-rule:nonzero;fill:rgb(0%,51.372549%,65.098039%);fill-opacity:1;" d="M 358.613281 340.890625 C 352.347656 338.609375 355.765625 329.214844 362.03125 331.496094 C 368.296875 333.773438 364.875 343.171875 358.613281 340.890625 "/>
<path style=" stroke:none;fill-rule:nonzero;fill:rgb(100%,54.117647%,26.27451%);fill-opacity:1;" d="M 189.988281 378.695312 C 187.570312 377.570312 189.261719 373.945312 191.679688 375.070312 C 194.09375 376.199219 192.40625 379.824219 189.988281 378.695312 "/>
<path style="fill:none;stroke-width:2;stroke-linecap:butt;stroke-linejoin:miter;stroke:rgb(100%,54.117647%,26.27451%);stroke-opacity:1;stroke-miterlimit:10;" d="M 114.722656 171.078125 C 110.4375 165.96875 118.097656 159.542969 122.382812 164.648438 C 126.667969 169.753906 119.007812 176.183594 114.722656 171.078125 "/>
<path style=" stroke:none;fill-rule:nonzero;fill:rgb(100%,54.117647%,26.27451%);fill-opacity:1;" d="M 287.785156 102.167969 C 285.269531 99.0625 289.929688 95.285156 292.449219 98.394531 C 294.964844 101.503906 290.304688 105.277344 287.785156 102.167969 "/>
<path style=" stroke:none;fill-rule:nonzero;fill:rgb(100%,54.117647%,26.27451%);fill-opacity:1;" d="M 400.433594 237.144531 C 395.972656 232.1875 403.40625 225.5 407.867188 230.453125 C 412.328125 235.40625 404.894531 242.097656 400.433594 237.144531 "/>
<path style=" stroke:none;fill-rule:nonzero;fill:rgb(0%,51.372549%,65.098039%);fill-opacity:1;" d="M 313.632812 393.480469 C 311.328125 391.097656 311.394531 387.300781 313.78125 384.996094 C 316.164062 382.695312 319.960938 382.761719 322.261719 385.144531 C 324.566406 387.527344 324.5 391.328125 322.117188 393.628906 C 319.730469 395.929688 315.933594 395.863281 313.632812 393.480469 "/>
<path style="fill:none;stroke-width:3;stroke-linecap:butt;stroke-linejoin:miter;stroke:rgb(0%,51.372549%,65.098039%);stroke-opacity:1;stroke-miterlimit:10;" d="M 145.6875 370 C 141.660156 366.5 146.910156 360.460938 150.933594 363.960938 C 154.960938 367.460938 149.710938 373.496094 145.6875 370 "/>
<path style="fill:none;stroke-width:4;stroke-linecap:butt;stroke-linejoin:miter;stroke:rgb(100%,54.117647%,26.27451%);stroke-opacity:1;stroke-miterlimit:10;" d="M 145.320312 114.011719 C 143.261719 107.671875 152.773438 104.582031 154.832031 110.921875 C 156.890625 117.261719 147.382812 120.351562 145.320312 114.011719 "/>
<path style=" stroke:none;fill-rule:nonzero;fill:rgb(0%,51.372549%,65.098039%);fill-opacity:1;" d="M 345.617188 111.394531 C 344.75 108.875 348.53125 107.570312 349.398438 110.09375 C 350.265625 112.613281 346.484375 113.917969 345.617188 111.394531 "/>
<path style="fill:none;stroke-width:3;stroke-linecap:butt;stroke-linejoin:miter;stroke:rgb(0%,51.372549%,65.098039%);stroke-opacity:1;stroke-miterlimit:10;" d="M 413.800781 289.023438 C 412.761719 286.570312 416.441406 285.003906 417.484375 287.460938 C 418.527344 289.914062 414.84375 291.476562 413.800781 289.023438 "/>
<path style=" stroke:none;fill-rule:nonzero;fill:rgb(0%,51.372549%,65.098039%);fill-opacity:1;" d="M 268.265625 420.976562 C 266.8125 417.996094 268.050781 414.40625 271.027344 412.953125 C 274.007812 411.5 277.597656 412.738281 279.050781 415.714844 C 280.503906 418.695312 279.269531 422.285156 276.289062 423.738281 C 273.3125 425.191406 269.71875 423.953125 268.265625 420.976562 "/>
<path style="fill:none;stroke-width:4;stroke-linecap:butt;stroke-linejoin:miter;stroke:rgb(100%,54.117647%,26.27451%);stroke-opacity:1;stroke-miterlimit:10;" d="M 90.523438 314.433594 C 89.527344 311.960938 93.234375 310.460938 94.234375 312.933594 C 95.230469 315.40625 91.523438 316.90625 90.523438 314.433594 "/>
</g>
</svg>
