<?xml version="1.0" encoding="UTF-8"?>
<svg xmlns="http://www.w3.org/2000/svg" xmlns:xlink="http://www.w3.org/1999/xlink" width="500pt" height="500pt" viewBox="0 0 500 500" version="1.1">
<g id="surface611">
<path style="fill:none;stroke-width:2;stroke-linecap:butt;stroke-linejoin:miter;stroke:rgb(25.882353%,58.039216%,58.823529%);stroke-opacity:1;stroke-miterlimit:10;" d="M 443.183594 301.765625 L 428.386719 355.796875 L 421.519531 377.851562 L 415.488281 394.382812 L 409.625 407.871094 L 403.664062 419.261719 L 397.476562 429.027344 L 390.96875 437.441406 L 384.074219 444.667969 L 376.746094 450.824219 L 368.921875 455.976562 L 360.546875 460.175781 L 351.550781 463.445312 L 341.84375 465.800781 L 331.304688 467.230469 L 319.753906 467.707031 L 306.910156 467.171875 L 292.296875 465.507812 L 274.964844 462.464844 L 252.429688 457.386719 L 198.234375 443.183594 L 144.203125 428.386719 L 122.148438 421.519531 L 105.617188 415.488281 L 92.128906 409.625 L 80.738281 403.664062 L 70.972656 397.476562 L 62.558594 390.96875 L 55.332031 384.074219 L 49.175781 376.746094 L 44.023438 368.921875 L 39.824219 360.546875 L 36.554688 351.550781 L 34.199219 341.84375 L 32.769531 331.304688 L 32.292969 319.753906 L 32.828125 306.910156 L 34.492188 292.296875 L 37.535156 274.964844 L 42.613281 252.429688 L 56.816406 198.234375 L 71.613281 144.203125 L 78.480469 122.148438 L 84.511719 105.617188 L 90.375 92.128906 L 96.335938 80.738281 L 102.523438 70.972656 L 109.03125 62.558594 L 115.925781 55.332031 L 123.253906 49.175781 L 131.078125 44.023438 L 139.453125 39.824219 L 148.449219 36.554688 L 158.15625 34.199219 L 168.695312 32.769531 L 180.246094 32.292969 L 193.089844 32.828125 L 207.703125 34.492188 L 225.035156 37.535156 L 247.570312 42.613281 L 301.765625 56.816406 L 355.796875 71.613281 L 377.851562 78.480469 L 394.382812 84.511719 L 407.871094 90.375 L 419.261719 96.335938 L 429.027344 102.523438 L 437.441406 109.03125 L 444.667969 115.925781 L 450.824219 123.253906 L 455.976562 131.078125 L 460.175781 139.453125 L 463.445312 148.449219 L 465.800781 158.15625 L 467.230469 168.695312 L 467.707031 180.246094 L 467.171875 193.089844 L 465.507812 207.703125 L 462.464844 225.035156 L 457.386719 247.570312 Z M 443.183594 301.765625 "/>
<path style=" stroke:none;fill-rule:nonzero;fill:rgb(25.882353%,58.039216%,58.823529%);fill-opacity:1;" d="M 244.71875 289.039062 C 239.425781 293.027344 231.902344 291.972656 227.914062 286.679688 C 223.925781 281.386719 224.980469 273.859375 230.273438 269.871094 C 235.566406 265.882812 243.089844 266.941406 247.082031 272.234375 C 251.070312 277.527344 250.011719 285.050781 244.71875 289.039062 "/>
<path style=" stroke:none;fill-rule:nonzero;fill:rgb(25.882353%,58.039216%,58.823529%);fill-opacity:1;" d="M 225.460938 263.484375 C 220.167969 267.472656 212.644531 266.414062 208.65625 261.121094 C 204.667969 255.828125 205.722656 248.304688 211.015625 244.316406 C 216.308594 240.328125 223.832031 241.386719 227.820312 246.679688 C 231.8125 251.972656 230.753906 259.496094 225.460938 263.484375 "/>
<path style=" stroke:none;fill-rule:nonzero;fill:rgb(25.882353%,58.039216%,58.823529%);fill-opacity:1;" d="M 237.964844 234.027344 C 232.671875 238.015625 225.148438 236.957031 221.160156 231.664062 C 217.167969 226.371094 218.226562 218.847656 223.519531 214.859375 C 228.8125 210.871094 236.335938 211.929688 240.324219 217.222656 C 244.3125 222.515625 243.257812 230.039062 237.964844 234.027344 "/>
<path style=" stroke:none;fill-rule:nonzero;fill:rgb(25.882353%,58.039216%,58.823529%);fill-opacity:1;" d="M 269.726562 230.128906 C 264.433594 234.117188 256.910156 233.058594 252.917969 227.765625 C 248.929688 222.472656 249.988281 214.949219 255.28125 210.960938 C 260.574219 206.972656 268.097656 208.027344 272.085938 213.320312 C 276.074219 218.613281 275.019531 226.140625 269.726562 230.128906 "/>
<path style=" stroke:none;fill-rule:nonzero;fill:rgb(25.882353%,58.039216%,58.823529%);fill-opacity:1;" d="M 288.984375 255.683594 C 283.691406 259.671875 276.167969 258.613281 272.179688 253.320312 C 268.1875 248.027344 269.246094 240.503906 274.539062 236.515625 C 279.832031 232.527344 287.355469 233.585938 291.34375 238.878906 C 295.332031 244.171875 294.277344 251.695312 288.984375 255.683594 "/>
<path style=" stroke:none;fill-rule:nonzero;fill:rgb(25.882353%,58.039216%,58.823529%);fill-opacity:1;" d="M 276.480469 285.140625 C 271.1875 289.128906 263.664062 288.070312 259.675781 282.777344 C 255.6875 277.484375 256.742188 269.960938 262.035156 265.972656 C 267.328125 261.984375 274.851562 263.042969 278.839844 268.335938 C 282.832031 273.628906 281.773438 281.152344 276.480469 285.140625 "/>
<path style=" stroke:none;fill-rule:nonzero;fill:rgb(25.882353%,58.039216%,58.823529%);fill-opacity:1;" d="M 199.722656 246.390625 C 195.425781 242.09375 195.425781 235.128906 199.722656 230.832031 C 204.015625 226.539062 210.980469 226.539062 215.277344 230.832031 C 219.574219 235.128906 219.574219 242.09375 215.277344 246.390625 C 210.980469 250.6875 204.015625 250.6875 199.722656 246.390625 "/>
<path style=" stroke:none;fill-rule:nonzero;fill:rgb(25.882353%,58.039216%,58.823529%);fill-opacity:1;" d="M 230.832031 215.277344 C 226.539062 210.980469 226.539062 204.015625 230.832031 199.722656 C 235.128906 195.425781 242.09375 195.425781 246.390625 199.722656 C 250.6875 204.015625 250.6875 210.980469 246.390625 215.277344 C 242.09375 219.574219 235.128906 219.574219 230.832031 215.277344 "/>
<path style=" stroke:none;fill-rule:nonzero;fill:rgb(25.882353%,58.039216%,58.823529%);fill-opacity:1;" d="M 273.335938 226.664062 C 269.039062 222.371094 269.039062 215.40625 273.335938 211.109375 C 277.628906 206.8125 284.59375 206.8125 288.890625 211.109375 C 293.1875 215.40625 293.1875 222.371094 288.890625 226.664062 C 284.59375 230.960938 277.628906 230.960938 273.335938 226.664062 "/>
<path style=" stroke:none;fill-rule:nonzero;fill:rgb(25.882353%,58.039216%,58.823529%);fill-opacity:1;" d="M 284.722656 269.167969 C 280.425781 264.871094 280.425781 257.90625 284.722656 253.609375 C 289.019531 249.3125 295.984375 249.3125 300.277344 253.609375 C 304.574219 257.90625 304.574219 264.871094 300.277344 269.167969 C 295.984375 273.460938 289.019531 273.460938 284.722656 269.167969 "/>
<path style=" stroke:none;fill-rule:nonzero;fill:rgb(25.882353%,58.039216%,58.823529%);fill-opacity:1;" d="M 253.609375 300.277344 C 249.3125 295.984375 249.3125 289.019531 253.609375 284.722656 C 257.90625 280.425781 264.871094 280.425781 269.167969 284.722656 C 273.460938 289.019531 273.460938 295.984375 269.167969 300.277344 C 264.871094 304.574219 257.90625 304.574219 253.609375 300.277344 "/>
<path style=" stroke:none;fill-rule:nonzero;fill:rgb(25.882353%,58.039216%,58.823529%);fill-opacity:1;" d="M 211.109375 288.890625 C 206.8125 284.59375 206.8125 277.628906 211.109375 273.335938 C 215.40625 269.039062 222.371094 269.039062 226.664062 273.335938 C 230.960938 277.628906 230.960938 284.59375 226.664062 288.890625 C 222.371094 293.1875 215.40625 293.1875 211.109375 288.890625 "/>
<path style="fill:none;stroke-width:2;stroke-linecap:butt;stroke-linejoin:miter;stroke:rgb(25.882353%,58.039216%,58.823529%);stroke-opacity:1;stroke-miterlimit:10;" d="M 289.535156 202.746094 C 294.9375 201.597656 300.25 205.046875 301.398438 210.449219 C 302.546875 215.851562 299.097656 221.160156 293.695312 222.308594 C 288.292969 223.457031 282.984375 220.011719 281.835938 214.609375 C 280.6875 209.207031 284.136719 203.894531 289.535156 202.746094 "/>
<path style="fill:none;stroke-width:2;stroke-linecap:butt;stroke-linejoin:miter;stroke:rgb(25.882353%,58.039216%,58.823529%);stroke-opacity:1;stroke-miterlimit:10;" d="M 301.179688 257.523438 C 306.582031 256.375 311.890625 259.824219 313.039062 265.226562 C 314.1875 270.628906 310.742188 275.9375 305.339844 277.085938 C 299.9375 278.234375 294.625 274.785156 293.476562 269.382812 C 292.328125 263.980469 295.777344 258.671875 301.179688 257.523438 "/>
<path style="fill:none;stroke-width:2;stroke-linecap:butt;stroke-linejoin:miter;stroke:rgb(25.882353%,58.039216%,58.823529%);stroke-opacity:1;stroke-miterlimit:10;" d="M 259.5625 294.996094 C 264.964844 293.847656 270.277344 297.296875 271.425781 302.695312 C 272.574219 308.097656 269.125 313.410156 263.722656 314.558594 C 258.320312 315.707031 253.011719 312.257812 251.863281 306.855469 C 250.714844 301.453125 254.160156 296.144531 259.5625 294.996094 "/>
<path style="fill:none;stroke-width:2;stroke-linecap:butt;stroke-linejoin:miter;stroke:rgb(25.882353%,58.039216%,58.823529%);stroke-opacity:1;stroke-miterlimit:10;" d="M 206.304688 277.691406 C 211.707031 276.542969 217.015625 279.988281 218.164062 285.390625 C 219.3125 290.792969 215.863281 296.105469 210.464844 297.253906 C 205.0625 298.402344 199.75 294.953125 198.601562 289.550781 C 197.453125 284.148438 200.902344 278.839844 206.304688 277.691406 "/>
<path style="fill:none;stroke-width:2;stroke-linecap:butt;stroke-linejoin:miter;stroke:rgb(25.882353%,58.039216%,58.823529%);stroke-opacity:1;stroke-miterlimit:10;" d="M 194.660156 222.914062 C 200.0625 221.765625 205.375 225.214844 206.523438 230.617188 C 207.671875 236.019531 204.222656 241.328125 198.820312 242.476562 C 193.417969 243.625 188.109375 240.175781 186.960938 234.773438 C 185.8125 229.371094 189.257812 224.0625 194.660156 222.914062 "/>
<path style="fill:none;stroke-width:2;stroke-linecap:butt;stroke-linejoin:miter;stroke:rgb(25.882353%,58.039216%,58.823529%);stroke-opacity:1;stroke-miterlimit:10;" d="M 236.277344 185.441406 C 241.679688 184.292969 246.988281 187.742188 248.136719 193.144531 C 249.285156 198.546875 245.839844 203.855469 240.4375 205.003906 C 235.035156 206.152344 229.722656 202.703125 228.574219 197.304688 C 227.425781 191.902344 230.875 186.589844 236.277344 185.441406 "/>
<path style=" stroke:none;fill-rule:nonzero;fill:rgb(25.882353%,58.039216%,58.823529%);fill-opacity:1;" d="M 218.191406 315.613281 C 213.800781 317.949219 208.351562 316.28125 206.019531 311.890625 C 203.683594 307.503906 205.351562 302.054688 209.742188 299.722656 C 214.128906 297.386719 219.578125 299.054688 221.910156 303.441406 C 224.246094 307.832031 222.578125 313.28125 218.191406 315.613281 "/>
<path style=" stroke:none;fill-rule:nonzero;fill:rgb(25.882353%,58.039216%,58.823529%);fill-opacity:1;" d="M 186.265625 255.574219 C 181.878906 257.90625 176.429688 256.242188 174.09375 251.851562 C 171.761719 247.464844 173.425781 242.015625 177.816406 239.679688 C 182.203125 237.347656 187.65625 239.011719 189.988281 243.402344 C 192.320312 247.789062 190.65625 253.238281 186.265625 255.574219 "/>
<path style=" stroke:none;fill-rule:nonzero;fill:rgb(25.882353%,58.039216%,58.823529%);fill-opacity:1;" d="M 222.300781 197.90625 C 217.914062 200.238281 212.464844 198.574219 210.128906 194.183594 C 207.796875 189.796875 209.460938 184.347656 213.851562 182.011719 C 218.238281 179.679688 223.6875 181.34375 226.023438 185.734375 C 228.355469 190.125 226.691406 195.574219 222.300781 197.90625 "/>
<path style=" stroke:none;fill-rule:nonzero;fill:rgb(25.882353%,58.039216%,58.823529%);fill-opacity:1;" d="M 290.257812 200.277344 C 285.871094 202.613281 280.421875 200.945312 278.089844 196.558594 C 275.753906 192.167969 277.421875 186.71875 281.808594 184.386719 C 286.199219 182.050781 291.648438 183.71875 293.980469 188.109375 C 296.316406 192.496094 294.648438 197.945312 290.257812 200.277344 "/>
<path style=" stroke:none;fill-rule:nonzero;fill:rgb(25.882353%,58.039216%,58.823529%);fill-opacity:1;" d="M 322.183594 260.320312 C 317.796875 262.652344 312.34375 260.988281 310.011719 256.597656 C 307.679688 252.210938 309.34375 246.761719 313.734375 244.425781 C 318.121094 242.09375 323.570312 243.757812 325.90625 248.148438 C 328.238281 252.535156 326.574219 257.984375 322.183594 260.320312 "/>
<path style=" stroke:none;fill-rule:nonzero;fill:rgb(25.882353%,58.039216%,58.823529%);fill-opacity:1;" d="M 286.148438 317.988281 C 281.761719 320.320312 276.3125 318.65625 273.976562 314.265625 C 271.644531 309.875 273.308594 304.425781 277.699219 302.09375 C 282.085938 299.761719 287.535156 301.425781 289.871094 305.816406 C 292.203125 310.203125 290.539062 315.652344 286.148438 317.988281 "/>
<path style=" stroke:none;fill-rule:nonzero;fill:rgb(25.882353%,58.039216%,58.823529%);fill-opacity:1;" d="M 316.675781 198.441406 C 321.085938 198.207031 324.851562 201.597656 325.082031 206.011719 C 325.3125 210.421875 321.925781 214.1875 317.511719 214.417969 C 313.101562 214.648438 309.335938 211.261719 309.105469 206.847656 C 308.875 202.433594 312.261719 198.671875 316.675781 198.441406 "/>
<path style=" stroke:none;fill-rule:nonzero;fill:rgb(25.882353%,58.039216%,58.823529%);fill-opacity:1;" d="M 320.863281 278.332031 C 325.273438 278.097656 329.039062 281.488281 329.269531 285.902344 C 329.5 290.3125 326.113281 294.078125 321.699219 294.308594 C 317.285156 294.539062 313.523438 291.148438 313.292969 286.738281 C 313.058594 282.324219 316.449219 278.5625 320.863281 278.332031 "/>
<path style=" stroke:none;fill-rule:nonzero;fill:rgb(25.882353%,58.039216%,58.823529%);fill-opacity:1;" d="M 253.769531 321.902344 C 258.179688 321.671875 261.945312 325.058594 262.175781 329.472656 C 262.40625 333.882812 259.019531 337.648438 254.605469 337.878906 C 250.191406 338.109375 246.429688 334.722656 246.199219 330.308594 C 245.964844 325.898438 249.355469 322.132812 253.769531 321.902344 "/>
<path style=" stroke:none;fill-rule:nonzero;fill:rgb(25.882353%,58.039216%,58.823529%);fill-opacity:1;" d="M 182.488281 285.582031 C 186.898438 285.351562 190.664062 288.738281 190.894531 293.152344 C 191.125 297.566406 187.738281 301.328125 183.324219 301.558594 C 178.914062 301.792969 175.148438 298.402344 174.917969 293.988281 C 174.6875 289.578125 178.074219 285.8125 182.488281 285.582031 "/>
<path style=" stroke:none;fill-rule:nonzero;fill:rgb(25.882353%,58.039216%,58.823529%);fill-opacity:1;" d="M 178.300781 205.691406 C 182.714844 205.460938 186.476562 208.851562 186.707031 213.261719 C 186.941406 217.675781 183.550781 221.4375 179.136719 221.667969 C 174.726562 221.902344 170.960938 218.511719 170.730469 214.097656 C 170.5 209.6875 173.886719 205.921875 178.300781 205.691406 "/>
<path style=" stroke:none;fill-rule:nonzero;fill:rgb(25.882353%,58.039216%,58.823529%);fill-opacity:1;" d="M 245.394531 162.121094 C 249.808594 161.890625 253.570312 165.277344 253.800781 169.691406 C 254.035156 174.101562 250.644531 177.867188 246.230469 178.097656 C 241.820312 178.328125 238.054688 174.941406 237.824219 170.527344 C 237.59375 166.117188 240.980469 162.351562 245.394531 162.121094 "/>
<path style=" stroke:none;fill-rule:nonzero;fill:rgb(25.882353%,58.039216%,58.823529%);fill-opacity:1;" d="M 166.605469 203.070312 C 164.851562 199.625 166.21875 195.410156 169.664062 193.65625 C 173.109375 191.902344 177.324219 193.269531 179.078125 196.714844 C 180.835938 200.160156 179.464844 204.375 176.019531 206.128906 C 172.574219 207.886719 168.359375 206.515625 166.605469 203.070312 "/>
<path style=" stroke:none;fill-rule:nonzero;fill:rgb(25.882353%,58.039216%,58.823529%);fill-opacity:1;" d="M 248.578125 161.304688 C 246.824219 157.859375 248.191406 153.644531 251.636719 151.890625 C 255.082031 150.132812 259.296875 151.503906 261.050781 154.949219 C 262.808594 158.394531 261.4375 162.609375 257.992188 164.363281 C 254.546875 166.117188 250.332031 164.75 248.578125 161.304688 "/>
<path style=" stroke:none;fill-rule:nonzero;fill:rgb(25.882353%,58.039216%,58.823529%);fill-opacity:1;" d="M 325.734375 211.410156 C 323.980469 207.964844 325.351562 203.75 328.792969 201.996094 C 332.238281 200.242188 336.453125 201.609375 338.210938 205.054688 C 339.964844 208.5 338.59375 212.714844 335.152344 214.46875 C 331.707031 216.226562 327.492188 214.855469 325.734375 211.410156 "/>
<path style=" stroke:none;fill-rule:nonzero;fill:rgb(25.882353%,58.039216%,58.823529%);fill-opacity:1;" d="M 320.921875 303.285156 C 319.164062 299.839844 320.535156 295.625 323.980469 293.871094 C 327.425781 292.113281 331.640625 293.484375 333.394531 296.929688 C 335.148438 300.375 333.78125 304.589844 330.335938 306.34375 C 326.890625 308.097656 322.675781 306.730469 320.921875 303.285156 "/>
<path style=" stroke:none;fill-rule:nonzero;fill:rgb(25.882353%,58.039216%,58.823529%);fill-opacity:1;" d="M 238.949219 345.050781 C 237.191406 341.605469 238.5625 337.390625 242.007812 335.636719 C 245.453125 333.882812 249.667969 335.25 251.421875 338.695312 C 253.175781 342.140625 251.808594 346.355469 248.363281 348.109375 C 244.917969 349.867188 240.703125 348.496094 238.949219 345.050781 "/>
<path style=" stroke:none;fill-rule:nonzero;fill:rgb(25.882353%,58.039216%,58.823529%);fill-opacity:1;" d="M 161.789062 294.945312 C 160.035156 291.5 161.40625 287.285156 164.847656 285.53125 C 168.292969 283.773438 172.507812 285.144531 174.265625 288.589844 C 176.019531 292.035156 174.648438 296.25 171.207031 298.003906 C 167.761719 299.757812 163.546875 298.390625 161.789062 294.945312 "/>
<path style=" stroke:none;fill-rule:nonzero;fill:rgb(25.882353%,58.039216%,58.823529%);fill-opacity:1;" d="M 171.375 322.757812 C 168.109375 323.335938 164.996094 321.15625 164.421875 317.890625 C 163.847656 314.628906 166.027344 311.515625 169.289062 310.941406 C 172.554688 310.367188 175.664062 312.542969 176.238281 315.808594 C 176.816406 319.070312 174.636719 322.183594 171.375 322.757812 "/>
<path style=" stroke:none;fill-rule:nonzero;fill:rgb(25.882353%,58.039216%,58.823529%);fill-opacity:1;" d="M 153.3125 220.339844 C 150.050781 220.914062 146.9375 218.734375 146.363281 215.472656 C 145.789062 212.207031 147.964844 209.097656 151.230469 208.519531 C 154.492188 207.945312 157.605469 210.125 158.179688 213.386719 C 158.757812 216.652344 156.578125 219.761719 153.3125 220.339844 "/>
<path style=" stroke:none;fill-rule:nonzero;fill:rgb(25.882353%,58.039216%,58.823529%);fill-opacity:1;" d="M 232.984375 153.488281 C 229.71875 154.0625 226.605469 151.886719 226.03125 148.621094 C 225.457031 145.359375 227.636719 142.246094 230.898438 141.671875 C 234.160156 141.097656 237.273438 143.273438 237.847656 146.539062 C 238.425781 149.800781 236.246094 152.914062 232.984375 153.488281 "/>
<path style=" stroke:none;fill-rule:nonzero;fill:rgb(25.882353%,58.039216%,58.823529%);fill-opacity:1;" d="M 330.710938 189.058594 C 327.445312 189.632812 324.335938 187.457031 323.761719 184.191406 C 323.183594 180.929688 325.363281 177.816406 328.625 177.242188 C 331.890625 176.664062 335.003906 178.84375 335.578125 182.109375 C 336.152344 185.371094 333.972656 188.484375 330.710938 189.058594 "/>
<path style=" stroke:none;fill-rule:nonzero;fill:rgb(25.882353%,58.039216%,58.823529%);fill-opacity:1;" d="M 348.769531 291.480469 C 345.507812 292.054688 342.394531 289.875 341.820312 286.613281 C 341.242188 283.347656 343.421875 280.238281 346.6875 279.660156 C 349.949219 279.085938 353.0625 281.265625 353.636719 284.527344 C 354.210938 287.792969 352.035156 290.902344 348.769531 291.480469 "/>
<path style=" stroke:none;fill-rule:nonzero;fill:rgb(25.882353%,58.039216%,58.823529%);fill-opacity:1;" d="M 269.101562 358.328125 C 265.839844 358.902344 262.726562 356.726562 262.152344 353.460938 C 261.574219 350.199219 263.753906 347.085938 267.015625 346.511719 C 270.28125 345.9375 273.394531 348.113281 273.96875 351.378906 C 274.542969 354.640625 272.363281 357.753906 269.101562 358.328125 "/>
<path style="fill:none;stroke-width:2;stroke-linecap:butt;stroke-linejoin:miter;stroke:rgb(25.882353%,58.039216%,58.823529%);stroke-opacity:1;stroke-miterlimit:10;" d="M 217.5 364.039062 C 212.546875 368.5 205.855469 361.066406 210.808594 356.605469 C 215.761719 352.144531 222.453125 359.578125 217.5 364.039062 "/>
<path style="fill:none;stroke-width:2;stroke-linecap:butt;stroke-linejoin:miter;stroke:rgb(25.882353%,58.039216%,58.823529%);stroke-opacity:1;stroke-miterlimit:10;" d="M 139.878906 277.832031 C 134.925781 282.292969 128.234375 274.863281 133.1875 270.402344 C 138.144531 265.941406 144.835938 273.371094 139.878906 277.832031 "/>
<path style="fill:none;stroke-width:2;stroke-linecap:butt;stroke-linejoin:miter;stroke:rgb(25.882353%,58.039216%,58.823529%);stroke-opacity:1;stroke-miterlimit:10;" d="M 175.726562 167.511719 C 170.773438 171.972656 164.082031 164.539062 169.035156 160.078125 C 173.988281 155.617188 180.679688 163.050781 175.726562 167.511719 "/>
<path style="fill:none;stroke-width:2;stroke-linecap:butt;stroke-linejoin:miter;stroke:rgb(25.882353%,58.039216%,58.823529%);stroke-opacity:1;stroke-miterlimit:10;" d="M 289.191406 143.394531 C 284.238281 147.855469 277.546875 140.421875 282.5 135.960938 C 287.453125 131.5 294.144531 138.933594 289.191406 143.394531 "/>
<path style="fill:none;stroke-width:2;stroke-linecap:butt;stroke-linejoin:miter;stroke:rgb(25.882353%,58.039216%,58.823529%);stroke-opacity:1;stroke-miterlimit:10;" d="M 366.8125 229.597656 C 361.855469 234.058594 355.164062 226.628906 360.121094 222.167969 C 365.074219 217.707031 371.765625 225.136719 366.8125 229.597656 "/>
<path style="fill:none;stroke-width:2;stroke-linecap:butt;stroke-linejoin:miter;stroke:rgb(25.882353%,58.039216%,58.823529%);stroke-opacity:1;stroke-miterlimit:10;" d="M 330.964844 339.921875 C 326.011719 344.382812 319.320312 336.949219 324.273438 332.488281 C 329.226562 328.027344 335.917969 335.460938 330.964844 339.921875 "/>
<path style=" stroke:none;fill-rule:nonzero;fill:rgb(25.882353%,58.039216%,58.823529%);fill-opacity:1;" d="M 194.066406 367.402344 C 189.59375 370.308594 185.238281 363.597656 189.710938 360.695312 C 194.183594 357.789062 198.539062 364.5 194.066406 367.402344 "/>
<path style=" stroke:none;fill-rule:nonzero;fill:rgb(25.882353%,58.039216%,58.823529%);fill-opacity:1;" d="M 124.355469 260.054688 C 119.882812 262.957031 115.523438 256.25 119.996094 253.34375 C 124.46875 250.441406 128.828125 257.148438 124.355469 260.054688 "/>
<path style=" stroke:none;fill-rule:nonzero;fill:rgb(25.882353%,58.039216%,58.823529%);fill-opacity:1;" d="M 182.464844 146.003906 C 177.992188 148.910156 173.632812 142.199219 178.109375 139.296875 C 182.582031 136.390625 186.9375 143.101562 182.464844 146.003906 "/>
<path style=" stroke:none;fill-rule:nonzero;fill:rgb(25.882353%,58.039216%,58.823529%);fill-opacity:1;" d="M 310.289062 139.304688 C 305.816406 142.210938 301.460938 135.5 305.933594 132.597656 C 310.40625 129.691406 314.761719 136.402344 310.289062 139.304688 "/>
<path style=" stroke:none;fill-rule:nonzero;fill:rgb(25.882353%,58.039216%,58.823529%);fill-opacity:1;" d="M 380.003906 246.65625 C 375.53125 249.558594 371.171875 242.851562 375.644531 239.945312 C 380.117188 237.042969 384.476562 243.75 380.003906 246.65625 "/>
<path style=" stroke:none;fill-rule:nonzero;fill:rgb(25.882353%,58.039216%,58.823529%);fill-opacity:1;" d="M 321.890625 360.703125 C 317.417969 363.609375 313.0625 356.898438 317.535156 353.996094 C 322.007812 351.089844 326.367188 357.800781 321.890625 360.703125 "/>
<path style=" stroke:none;fill-rule:nonzero;fill:rgb(25.882353%,58.039216%,58.823529%);fill-opacity:1;" d="M 112.710938 284.363281 C 108.886719 283.191406 110.640625 277.453125 114.464844 278.625 C 118.289062 279.792969 116.535156 285.53125 112.710938 284.363281 "/>
<path style=" stroke:none;fill-rule:nonzero;fill:rgb(25.882353%,58.039216%,58.823529%);fill-opacity:1;" d="M 153.644531 150.480469 C 149.816406 149.308594 151.570312 143.570312 155.398438 144.742188 C 159.222656 145.910156 157.46875 151.648438 153.644531 150.480469 "/>
<path style=" stroke:none;fill-rule:nonzero;fill:rgb(25.882353%,58.039216%,58.823529%);fill-opacity:1;" d="M 290.054688 118.984375 C 286.230469 117.816406 287.984375 112.078125 291.808594 113.25 C 295.632812 114.417969 293.878906 120.15625 290.054688 118.984375 "/>
<path style=" stroke:none;fill-rule:nonzero;fill:rgb(25.882353%,58.039216%,58.823529%);fill-opacity:1;" d="M 385.535156 221.375 C 381.710938 220.207031 383.464844 214.46875 387.289062 215.636719 C 391.113281 216.808594 389.359375 222.546875 385.535156 221.375 "/>
<path style=" stroke:none;fill-rule:nonzero;fill:rgb(25.882353%,58.039216%,58.823529%);fill-opacity:1;" d="M 344.601562 355.257812 C 340.777344 354.089844 342.53125 348.351562 346.355469 349.519531 C 350.183594 350.691406 348.429688 356.429688 344.601562 355.257812 "/>
<path style=" stroke:none;fill-rule:nonzero;fill:rgb(25.882353%,58.039216%,58.823529%);fill-opacity:1;" d="M 208.191406 386.75 C 204.367188 385.582031 206.121094 379.84375 209.945312 381.015625 C 213.769531 382.183594 212.015625 387.921875 208.191406 386.75 "/>
<path style="fill:none;stroke-width:2;stroke-linecap:butt;stroke-linejoin:miter;stroke:rgb(25.882353%,58.039216%,58.823529%);stroke-opacity:1;stroke-miterlimit:10;" d="M 216.496094 100.703125 C 217.320312 98.167969 221.125 99.402344 220.300781 101.941406 C 219.476562 104.476562 215.671875 103.238281 216.496094 100.703125 "/>
<path style="fill:none;stroke-width:2;stroke-linecap:butt;stroke-linejoin:miter;stroke:rgb(25.882353%,58.039216%,58.823529%);stroke-opacity:1;stroke-miterlimit:10;" d="M 361.054688 147.675781 C 361.878906 145.136719 365.683594 146.375 364.859375 148.910156 C 364.035156 151.445312 360.230469 150.210938 361.054688 147.675781 "/>
<path style="fill:none;stroke-width:2;stroke-linecap:butt;stroke-linejoin:miter;stroke:rgb(25.882353%,58.039216%,58.823529%);stroke-opacity:1;stroke-miterlimit:10;" d="M 392.660156 296.351562 C 393.484375 293.816406 397.285156 295.050781 396.460938 297.589844 C 395.636719 300.125 391.835938 298.890625 392.660156 296.351562 "/>
<path style="fill:none;stroke-width:2;stroke-linecap:butt;stroke-linejoin:miter;stroke:rgb(25.882353%,58.039216%,58.823529%);stroke-opacity:1;stroke-miterlimit:10;" d="M 279.699219 398.058594 C 280.523438 395.523438 284.328125 396.761719 283.503906 399.296875 C 282.679688 401.832031 278.875 400.597656 279.699219 398.058594 "/>
<path style="fill:none;stroke-width:2;stroke-linecap:butt;stroke-linejoin:miter;stroke:rgb(25.882353%,58.039216%,58.823529%);stroke-opacity:1;stroke-miterlimit:10;" d="M 135.140625 351.089844 C 135.964844 348.554688 139.769531 349.789062 138.945312 352.324219 C 138.121094 354.863281 134.316406 353.625 135.140625 351.089844 "/>
<path style="fill:none;stroke-width:2;stroke-linecap:butt;stroke-linejoin:miter;stroke:rgb(25.882353%,58.039216%,58.823529%);stroke-opacity:1;stroke-miterlimit:10;" d="M 103.539062 202.410156 C 104.363281 199.875 108.164062 201.109375 107.339844 203.648438 C 106.515625 206.183594 102.714844 204.949219 103.539062 202.410156 "/>
<path style=" stroke:none;fill-rule:nonzero;fill:rgb(25.882353%,58.039216%,58.823529%);fill-opacity:1;" d="M 392.894531 331.5 C 393.5625 332.65625 391.828125 333.65625 391.164062 332.5 C 390.496094 331.34375 392.226562 330.34375 392.894531 331.5 "/>
<path style=" stroke:none;fill-rule:nonzero;fill:rgb(25.882353%,58.039216%,58.823529%);fill-opacity:1;" d="M 250.867188 413.5 C 251.53125 414.65625 249.800781 415.65625 249.132812 414.5 C 248.46875 413.34375 250.199219 412.34375 250.867188 413.5 "/>
<path style=" stroke:none;fill-rule:nonzero;fill:rgb(25.882353%,58.039216%,58.823529%);fill-opacity:1;" d="M 108.835938 331.5 C 109.503906 332.65625 107.773438 333.65625 107.105469 332.5 C 106.4375 331.34375 108.171875 330.34375 108.835938 331.5 "/>
<path style=" stroke:none;fill-rule:nonzero;fill:rgb(25.882353%,58.039216%,58.823529%);fill-opacity:1;" d="M 108.835938 167.5 C 109.503906 168.65625 107.773438 169.65625 107.105469 168.5 C 106.4375 167.34375 108.171875 166.34375 108.835938 167.5 "/>
<path style=" stroke:none;fill-rule:nonzero;fill:rgb(25.882353%,58.039216%,58.823529%);fill-opacity:1;" d="M 250.867188 85.5 C 251.53125 86.65625 249.800781 87.65625 249.132812 86.5 C 248.46875 85.34375 250.199219 84.34375 250.867188 85.5 "/>
<path style=" stroke:none;fill-rule:nonzero;fill:rgb(25.882353%,58.039216%,58.823529%);fill-opacity:1;" d="M 392.894531 167.5 C 393.5625 168.65625 391.828125 169.65625 391.164062 168.5 C 390.496094 167.34375 392.226562 166.34375 392.894531 167.5 "/>
</g>
</svg>
