<?xml version="1.0" standalone="no"?>
<!DOCTYPE svg PUBLIC "-//W3C//DTD SVG 20010904//EN"
 "http://www.w3.org/TR/2001/REC-SVG-20010904/DTD/svg10.dtd">
<svg version="1.0" xmlns="http://www.w3.org/2000/svg"
 width="700.000000pt" height="700.000000pt" viewBox="0 0 700.000000 700.000000"
 preserveAspectRatio="xMidYMid meet">
<metadata>
Created by potrace 1.14, written by Peter Selinger 2001-2017
</metadata>
<g transform="translate(0.000000,700.000000) scale(0.100000,-0.100000)"
fill="#000000" stroke="none">
<path d="M2345 6537 c-44 -4 -111 -15 -150 -23 -38 -8 -80 -17 -91 -20 -12 -2
-51 -15 -88 -29 -213 -80 -379 -204 -527 -392 -214 -272 -359 -623 -552 -1333
-76 -276 -68 -250 -102 -370 -28 -100 -114 -423 -120 -451 -2 -10 -20 -79 -40
-155 -20 -77 -39 -146 -41 -154 -2 -8 -8 -33 -14 -55 -19 -70 -21 -80 -25
-100 -3 -11 -20 -87 -39 -170 -19 -82 -37 -168 -40 -190 -4 -22 -13 -76 -21
-120 -27 -155 -39 -292 -39 -450 0 -113 3 -161 19 -285 8 -69 60 -234 100
-317 143 -302 406 -527 817 -701 170 -72 570 -210 659 -227 12 -3 36 -9 54
-15 18 -6 41 -13 51 -15 21 -5 95 -25 404 -110 113 -32 239 -66 280 -77 41
-10 116 -30 165 -42 50 -13 153 -40 230 -61 189 -50 443 -113 480 -119 17 -3
71 -14 120 -25 87 -19 243 -46 315 -55 19 -2 64 -7 100 -11 146 -17 377 -12
510 11 19 3 49 8 65 10 59 10 236 76 306 114 278 154 478 397 648 792 99 231
185 499 315 978 30 113 71 261 90 330 26 94 132 496 182 690 15 59 64 260 68
280 3 14 13 57 21 95 22 97 64 334 70 397 3 29 8 70 11 91 10 64 12 307 2 387
-4 41 -10 91 -12 110 -5 41 -34 166 -46 195 -4 11 -14 36 -20 55 -18 48 -87
187 -113 224 -220 317 -572 528 -1213 726 -92 29 -422 123 -594 169 -41 11
-127 34 -190 51 -63 17 -122 33 -130 35 -8 2 -49 13 -90 24 -41 11 -120 31
-175 46 -297 80 -661 170 -763 190 -13 2 -31 6 -40 9 -9 3 -37 8 -62 11 -25 4
-63 10 -85 15 -22 5 -64 11 -94 15 -30 3 -57 8 -60 9 -28 17 -382 26 -506 13z"/>
</g>
</svg>
